<?xml version="1.0" encoding="UTF-8"?>
<svg width="85px" height="62px" viewBox="0 0 85 62" version="1.1" xmlns="http://www.w3.org/2000/svg" xmlns:xlink="http://www.w3.org/1999/xlink">
    <!-- Generator: sketchtool 50.2 (55047) - http://www.bohemiancoding.com/sketch -->
    <title>376D973E-70CC-46A9-AD7A-2558A1E5440A</title>
    <desc>Created with sketchtool.</desc>
    <defs></defs>
    <g id="Page-1" stroke="none" stroke-width="1" fill="none" fill-rule="evenodd">
        <g id="Oil-type-(L)" transform="translate(-704.000000, -382.000000)">
            <g id="1-copy" transform="translate(573.000000, 335.000000)">
                <g id="Icons-/-circulation" transform="translate(132.000000, 48.000000)">
                    <rect id="Background" x="0" y="0" width="83" height="60"></rect>
                    <path d="M33,35.8212824 L33,23 L50,23 L50,35.8212824 L83,35.8212824 L83,53.8212824 L0,53.8212824 L0,35.8212824 L33,35.8212824 Z" id="Rectangle-2" stroke="#00A19C" stroke-width="1.5" stroke-linecap="round" stroke-linejoin="round"></path>
                    <rect id="Rectangle-2" stroke="#00A19C" stroke-width="1.5" fill="#FFFFFF" stroke-linecap="round" stroke-linejoin="round" x="16" y="30" width="6" height="30" rx="3"></rect>
                    <rect id="Rectangle-2-Copy" stroke="#00A19C" stroke-width="1.5" fill="#FFFFFF" stroke-linecap="round" stroke-linejoin="round" x="61" y="30" width="6" height="30" rx="3"></rect>
                    <path d="M41.3048522,5.19514778 L41.6951478,5.19514778 C43.0758597,5.19514778 44.1951478,6.3144359 44.1951478,7.69514778 L44.1951478,32.6951478 C44.1951478,34.0758597 43.0758597,35.1951478 41.6951478,35.1951478 L41.3048522,35.1951478 C39.9241403,35.1951478 38.8048522,34.0758597 38.8048522,32.6951478 L38.8048522,7.69514778 C38.8048522,6.3144359 39.9241403,5.19514778 41.3048522,5.19514778 Z" id="Rectangle-2-Copy-2" stroke="#00A19C" stroke-width="1.5" stroke-linecap="round" stroke-linejoin="round" transform="translate(41.500000, 20.195148) rotate(90.000000) translate(-41.500000, -20.195148) "></path>
                    <rect id="Rectangle-2-Copy-3" stroke="#00A19C" stroke-width="1.5" stroke-linecap="round" stroke-linejoin="round" transform="translate(41.625000, 14.750000) rotate(90.000000) translate(-41.625000, -14.750000) " x="39" y="9" width="5.25" height="11.5"></rect>
                    <polygon id="Rectangle-2-Copy-4" stroke="#00A19C" stroke-width="1.5" stroke-linecap="round" stroke-linejoin="round" transform="translate(41.625000, 9.243978) rotate(90.000000) translate(-41.625000, -9.243978) " points="38.7560218 0.243978172 44.4939782 0.243978172 44.4939782 18.2439782 38.7560218 18.2439782"></polygon>
                    <path d="M41.4302077,-17.8052077 L42.4699023,-17.8052077 C43.9196498,-17.8052077 45.0949023,-16.6299552 45.0949023,-15.1802077 L45.0949023,21.5697923 C45.0949023,23.0195398 43.9196498,24.1947923 42.4699023,24.1947923 L41.4302077,24.1947923 C39.9804602,24.1947923 38.8052077,23.0195398 38.8052077,21.5697923 L38.8052077,-15.1802077 C38.8052077,-16.6299552 39.9804602,-17.8052077 41.4302077,-17.8052077 Z" id="Rectangle-2-Copy-5" stroke="#00A19C" stroke-width="1.5" stroke-linecap="round" stroke-linejoin="round" transform="translate(41.950055, 3.194792) rotate(90.000000) translate(-41.950055, -3.194792) "></path>
                </g>
            </g>
        </g>
    </g>
</svg>