<?xml version="1.0" encoding="UTF-8"?>
<svg width="55px" height="67px" viewBox="0 0 55 67" version="1.1" xmlns="http://www.w3.org/2000/svg" xmlns:xlink="http://www.w3.org/1999/xlink">
    <!-- Generator: sketchtool 50.2 (55047) - http://www.bohemiancoding.com/sketch -->
    <title>807C08D3-DE8F-4E64-9FA6-11B2C38F4C6F</title>
    <desc>Created with sketchtool.</desc>
    <defs></defs>
    <g id="Page-1" stroke="none" stroke-width="1" fill="none" fill-rule="evenodd">
        <g id="Turbine-oil-selector-1-(L)" transform="translate(-693.000000, -456.000000)">
            <g id="2" transform="translate(595.000000, 366.000000)">
                <g id="Icons-/-Green-/-Gas-turbines" transform="translate(99.000000, 91.000000)">
                    <rect id="Background" x="0" y="0" width="53" height="65.0133333"></rect>
                    <g id="Group" stroke="#00A19C" stroke-linecap="round" stroke-linejoin="round" stroke-width="1.5">
                        <path d="M19.6359227,64.6121362 C10.3506042,64.0943882 4.14095319,59.3651981 1.00696952,50.4245657 C-3.69400597,37.0136172 9.36677526,24.4119082 13.3994947,19.3340783 C17.432214,14.2562485 22.9412083,4.60596789 23.3584849,0.819664769 C23.7757616,-2.96663835 49.3281007,19.9095689 51.3943302,32.3144941 C52.7330193,40.3515187 53.2302,48.6802659 48.206855,56.9606442 C46.1672139,60.3227467 45.3548512,61.0596091 39.7615107,64.6121362" id="Path-7"></path>
                        <path d="M19.7486529,54.5258934 C16.4310043,53.2562338 14.4193171,50.9104635 13.7135912,47.4885825 C13.0078654,44.0667014 14.2000695,40.0660605 17.2902036,35.4866596 C19.58242,38.6865973 21.5455852,40.2865661 23.1796991,40.2865661 C25.6308701,40.2865661 28.0664062,37.294105 28.4370605,36.0042279 C28.8077149,34.7143507 29.5015798,26.1283784 28.0106058,22.0455196 C26.5196319,17.9626608 40.5503356,32.1217845 40.5503356,41.1896284 C40.5503356,47.2348577 38.5656879,51.551067 34.5963924,54.1382564" id="Path-8"></path>
                    </g>
                </g>
            </g>
        </g>
    </g>
</svg>