<?xml version="1.0" encoding="UTF-8"?>
<svg width="77px" height="82px" viewBox="0 0 77 82" version="1.1" xmlns="http://www.w3.org/2000/svg" xmlns:xlink="http://www.w3.org/1999/xlink">
    <!-- Generator: sketchtool 50.2 (55047) - http://www.bohemiancoding.com/sketch -->
    <title>E9F269BC-16A5-4002-B093-C85B81DDA1BB</title>
    <desc>Created with sketchtool.</desc>
    <defs></defs>
    <g id="Page-1" stroke="none" stroke-width="1" fill="none" fill-rule="evenodd">
        <g id="Turbine-oil-selector-1-(L)" transform="translate(-959.000000, -447.000000)">
            <g id="3" transform="translate(865.000000, 366.000000)">
                <g id="Icons-/-Green-/-Hydro-electric-turbine" transform="translate(95.000000, 82.000000)">
                    <rect id="Background" x="0" y="0" width="75" height="83"></rect>
                    <g id="Group" stroke="#00A19C" stroke-linecap="round" stroke-linejoin="round" stroke-width="1.5">
                        <path d="M0,79.8972408 C0,79.8972408 8.41010627,79.8972408 12.1759921,75.8901734 C15.3405651,79.8972408 24.2625574,81.6677777 28.8698584,76.4561874 C34.0620535,81.1562983 40.549859,79.8972408 45.745793,76.4561874 C50.8518309,79.8972408 56.4242559,81.441175 62.6752102,76.4561874 C64.5281877,78.5386083 68.5544418,79.4604574 74.7539726,79.2217346" id="Path-9"></path>
                        <path d="M0,72.9608246 C0,72.9608246 8.41010627,72.9608246 12.1759921,68.9537572 C15.3405651,72.9608246 24.2625574,74.7313615 28.8698584,69.5197712 C34.0620535,74.2198822 40.549859,72.9608246 45.745793,69.5197712 C50.8518309,72.9608246 56.4242559,74.5047588 62.6752102,69.5197712 C64.5281877,71.6021922 68.5544418,72.5240412 74.7539726,72.2853184" id="Path-9-Copy"></path>
                        <polygon id="Path-10" points="30.4510782 49.7404224 44.7017821 30.2583281 36.7665158 30.2583281 42.8557078 18.7954398 36.7665158 18.7954398 29.2398049 34.8948689 36.7665158 34.8948689"></polygon>
                        <path d="M16.6947818,25.1908858 C16.139436,27.650899 15.7274297,30.090321 15.4587629,32.5091519 L6.8313766,32.5091519 C7.83365869,39.4740065 11.3681592,43.1393169 17.434878,43.5050832 C18.8426854,45.75784 20.266064,47.8914203 21.7050138,49.905824 L16.1854763,56.3411076 C21.9271353,59.7866389 26.5067598,59.4760066 29.9243498,55.4092106 C32.151793,56.0304753 34.5398302,56.3411076 37.0884615,56.3411076 L37.0884615,65.7841293 C43.7426786,64.2007111 47.0697871,60.34218 47.0697871,54.2085359 C49.2394905,52.6617616 51.2703995,51.1057423 53.1625142,49.540478 L58.7623487,55.7324498 C62.2011492,50.6508878 61.9799536,45.5466336 58.0987619,40.419687 C58.5411531,37.998839 58.9232794,35.5105865 59.2451409,32.9549295 L67.2460589,32.9549295 C66.593414,26.5407413 63.2445899,23.0061218 57.1995866,22.3510708 C56.1789557,20.3109491 54.8332649,18.253346 53.1625142,16.1782614 L58.7623487,10.0531059 C53.6697995,5.85738401 48.7838006,6.00446372 44.1043519,10.494345 C41.9959235,9.68044792 39.8002961,9.27349937 37.5174699,9.27349937 L37.5174699,0.169097252 C31.5652206,1.01072937 28.2080638,4.86472204 27.4459994,11.7310753 C25.1340508,13.0208382 23.2203889,14.5032336 21.7050138,16.1782614 L15.8617631,10.0531059 C11.8719936,15.194004 12.1496665,20.2399306 16.6947818,25.1908858 Z" id="Path-11"></path>
                    </g>
                </g>
            </g>
        </g>
    </g>
</svg>