<?xml version="1.0" encoding="UTF-8"?>
<svg width="42px" height="74px" viewBox="0 0 42 74" version="1.1" xmlns="http://www.w3.org/2000/svg" xmlns:xlink="http://www.w3.org/1999/xlink">
    <!-- Generator: sketchtool 50.2 (55047) - http://www.bohemiancoding.com/sketch -->
    <title>661FDB99-957D-488E-B20C-4751433B7493</title>
    <desc>Created with sketchtool.</desc>
    <defs></defs>
    <g id="Page-1" stroke="none" stroke-width="1" fill="none" fill-rule="evenodd">
        <g id="Oil-type-(L)" transform="translate(-354.000000, -588.000000)">
            <g id="1-copy-3" transform="translate(202.000000, 550.000000)">
                <g id="Icons-/-Piston" transform="translate(153.000000, 39.000000)">
                    <rect id="Background" x="0" y="0" width="40" height="72"></rect>
                    <g>
                        <path d="M18.6730566,27.648 L12.5206038,27.648 L10.5477736,31.56525 C10.3538113,31.9485 9.95833962,32.19225 9.52513208,32.19225 L1.52135849,32.19225 C0.890415094,32.19225 0.377207547,31.68525 0.377207547,31.05525 L0.377207547,8.3295 C0.377207547,7.7025 0.890415094,7.19325 1.52135849,7.19325 L38.1130566,7.19325 C38.744,7.19325 39.2564528,7.7025 39.2564528,8.3295 L39.2564528,31.05525 C39.2564528,31.68525 38.744,32.19225 38.1130566,32.19225 L30.109283,32.19225 C29.6760755,32.19225 29.2806038,31.9485 29.0858868,31.56525 L27.1138113,27.648 L20.9613585,27.648 L18.6730566,27.648 Z" id="Stroke-1" stroke="#00A19C" stroke-width="1.5"></path>
                        <path d="M1.51064151,0.375225 L38.1234717,0.375225" id="Stroke-3" stroke="#00A19C" stroke-width="1.5"></path>
                        <path d="M10.7603019,62.85225 C10.7603019,57.882 14.8153962,53.85225 19.8169057,53.85225 C24.8184151,53.85225 28.8735094,57.882 28.8735094,62.85225 C28.8735094,67.8225 24.8184151,71.85225 19.8169057,71.85225 C14.8153962,71.85225 10.7603019,67.8225 10.7603019,62.85225 Z" id="Stroke-5" stroke="#00A19C" stroke-width="1.5"></path>
                        <path d="M19.8169057,53.851875 L19.8169057,27.648375" id="Stroke-7" stroke="#00A19C" stroke-width="1.5"></path>
                        <path d="M19.817283,19.509375 C18.5486038,19.509375 17.5199245,18.487875 17.5199245,17.227125 C17.5199245,15.966375 18.5486038,14.944875 19.817283,14.944875 C21.0859623,14.944875 22.1138868,15.966375 22.1138868,17.227125 C22.1138868,18.487875 21.0859623,19.509375 19.817283,19.509375 Z" id="Fill-9" fill="#00A19C"></path>
                    </g>
                </g>
            </g>
        </g>
    </g>
</svg>