<?xml version="1.0" encoding="UTF-8"?>
<svg width="62px" height="60px" viewBox="0 0 62 60" version="1.1" xmlns="http://www.w3.org/2000/svg" xmlns:xlink="http://www.w3.org/1999/xlink">
    <!-- Generator: sketchtool 50.2 (55047) - http://www.bohemiancoding.com/sketch -->
    <title>DCB90B62-CEBC-4707-B5BB-9479AEE91009</title>
    <desc>Created with sketchtool.</desc>
    <defs></defs>
    <g id="Page-1" stroke="none" stroke-width="1" fill="none" fill-rule="evenodd">
        <g id="Turbine-oil-selector-1-(L)" transform="translate(-419.000000, -459.000000)">
            <g id="1" transform="translate(325.000000, 366.000000)">
                <g id="Icons-/-Green-/-Steam-turbines" transform="translate(95.000000, 94.000000)">
                    <rect id="Background" x="0" y="0" width="60" height="58.4"></rect>
                    <g id="Group" stroke="#00A19C" stroke-linecap="round" stroke-linejoin="round" stroke-width="1.5">
                        <path d="M7.52752952,38.0234256 C2.50917651,36.0445379 1.02746865e-13,33.3676965 0,29.9929016 C-1.02769939e-13,26.6181066 0.720400277,24.1231568 2.16120083,22.5080523 L5.64485676,19.211241 C5.01951223,13.388181 6.35018723,9.51281534 9.63688176,7.58514391 C14.5669236,4.69363677 19.7963593,5.63196973 20.4087417,6.20609797 C21.0211241,6.78022622 24.235443,9.1519679e-16 29.9119148,0 C35.5883865,0 36.4441817,6.20609797 38.8488179,6.20609797 C41.2534542,6.20609797 44.3226376,4.07271834 50.0775145,8.08055083 C53.9140991,10.7524392 55.1882887,14.4626692 53.9000832,19.211241 C58.1883406,20.6530953 60.1483647,23.3681908 59.7801555,27.3565274 C59.4119462,31.344864 56.9505083,34.9004967 52.3958419,38.0234256" id="Path-3"></path>
                        <path d="M19.5924812,57.2211745 C18.9133912,40.395041 17.0153325,29.1179264 13.8983051,23.3898305" id="Path-4"></path>
                        <path d="M29.8305085,57.5729064 L29.8305085,14.7457627" id="Path-5"></path>
                        <path d="M38.9830508,57.4880051 C39.9068209,38.2234475 41.8048796,26.8573893 44.677227,23.3898305" id="Path-6"></path>
                    </g>
                </g>
            </g>
        </g>
    </g>
</svg>