<?xml version="1.0" encoding="UTF-8"?>
<svg width="121px" height="82px" viewBox="0 0 121 82" version="1.1" xmlns="http://www.w3.org/2000/svg" xmlns:xlink="http://www.w3.org/1999/xlink">
    <!-- Generator: sketchtool 50.2 (55047) - http://www.bohemiancoding.com/sketch -->
    <title>ED275FB7-C6AD-400F-82E3-CF3035E0FE67</title>
    <desc>Created with sketchtool.</desc>
    <defs></defs>
    <g id="Page-1" stroke="none" stroke-width="1" fill="none" fill-rule="evenodd">
        <g id="Gear-oil-selector-1-(L)" transform="translate(-1099.000000, -457.000000)">
            <g id="4" transform="translate(1029.000000, 366.000000)">
                <g id="Icons-/-Green-/-Worm" transform="translate(70.000000, 92.000000)">
                    <rect id="Background" x="0" y="0" width="122" height="82"></rect>
                    <g id="Group" transform="translate(1.190244, 0.000000)">
                        <path d="M55.5158728,32.6245103 C44.8580297,32.5913619 36.0587576,41.383771 36.008917,52.1133399 C35.9598803,62.8889931 44.7044886,71.744465 55.4250343,71.7759964 C66.0820735,71.8067193 74.9022465,62.9973318 74.9376173,52.2879753 C74.972988,41.5018117 66.2372224,32.6576587 55.5158728,32.6245103 Z M52.1232656,28.6488153 L57.7388363,28.6488153 C58.010807,27.3182605 58.2786119,26.0194284 58.5416558,24.7193992 C58.7029339,23.9263335 58.8017241,23.8545087 59.5706217,24.0053408 C60.5853046,24.2040561 61.5982022,24.4123481 62.6140753,24.6008883 C63.1675388,24.7038372 63.36869,24.9809612 63.2395485,25.5561583 C62.9800753,26.7011656 62.7759485,27.8581437 62.5212363,29.0037496 C62.427207,29.4233262 62.4742217,29.6399977 62.9402022,29.7992094 C63.998329,30.1607277 65.0272948,30.6072386 66.12589,31.0423773 C66.8245631,29.9566255 67.54109,28.8385525 68.2629729,27.7234722 C68.7116948,27.0297642 68.8122705,27.0070196 69.4841631,27.4385671 C70.3560168,27.9982021 71.2147778,28.5781875 72.0979388,29.1186693 C72.6002217,29.4263189 72.6436656,29.7519247 72.3270607,30.2295598 C71.5813729,31.3572094 70.8654412,32.5040123 70.1310607,33.6526109 C71.1582412,34.6396036 72.1610217,35.6032532 73.2155778,36.6159831 C74.2582314,35.8773846 75.3330217,35.1124503 76.4113827,34.3535014 C77.0969631,33.8704795 77.2302705,33.8944211 77.711129,34.5755598 C78.2705436,35.3680269 78.8293631,36.1622897 79.3816363,36.9607423 C79.8773729,37.6765963 79.8613046,37.7687715 79.1727485,38.2595744 C78.1098607,39.0167277 77.0439973,39.7690926 75.9525436,40.5424065 C76.4970802,41.7424795 77.03269,42.9233992 77.6034119,44.1803335 C78.8222217,43.8846547 80.0594802,43.5859831 81.2955485,43.2825233 C82.2804753,43.0413116 82.3429631,43.077224 82.581607,44.0624211 C82.8095388,45.0063189 83.0219973,45.9544065 83.2761144,46.8905233 C83.42549,47.4441729 83.289207,47.729078 82.7059875,47.8595598 C81.5228851,48.1241145 80.3516851,48.4413408 79.1763192,48.7400123 C79.028729,48.7777204 78.8858997,48.8339831 78.8341241,48.8507423 C78.8341241,50.6499539 78.8228168,52.3845233 78.8525729,54.1184941 C78.8555485,54.2723189 79.1043095,54.519516 79.2757046,54.5584211 C80.4361924,54.8211802 81.6073924,55.0390488 82.7744266,55.273078 C83.4992851,55.4185233 83.6010509,55.571151 83.4594119,56.2846109 C83.2564753,57.3033262 83.0333046,58.3190488 82.859529,59.343151 C82.7547875,59.9626401 82.4369924,60.117662 81.8632948,59.9919685 C80.5700948,59.7094576 79.2709436,59.4520853 77.93549,59.1767569 C77.4433241,60.4007715 76.9582997,61.6050342 76.4399485,62.8960853 C77.4314217,63.5407131 78.4615778,64.2134722 79.4953046,64.8820415 C80.5058217,65.5356474 80.5082022,65.5332532 79.8654705,66.5417934 C79.3685436,67.3228883 78.853168,68.0920123 78.3776656,68.8862751 C78.0610607,69.4159831 77.7319583,69.4668591 77.2255095,69.1220999 C76.1120363,68.3649466 74.9694022,67.6520853 73.8523583,66.9302459 C72.8590997,67.9776912 71.9009534,68.9880269 70.90829,70.0348737 C71.6664753,71.1182313 72.4252558,72.2363043 73.2221241,73.3256474 C73.582768,73.8188445 73.5464656,74.1486401 73.03109,74.4933992 C72.1693534,75.0685963 71.3213046,75.6665379 70.4994412,76.2962021 C69.9727583,76.6996182 69.6466314,76.5882897 69.2966997,76.0657642 C68.5557729,74.9608591 67.7731875,73.8840853 66.9971485,72.7821729 C65.7979778,73.3364211 64.6238022,73.8786985 63.3823778,74.4526985 C63.681129,75.6797058 63.9834509,76.9246693 64.2881534,78.1696328 C64.5273924,79.1434576 64.4881144,79.2051072 63.4936656,79.4481145 C62.5337339,79.6827423 61.5690412,79.9012094 60.6174412,80.1675598 C60.09909,80.3124065 59.865207,80.1358372 59.7461827,79.6390488 C59.4277924,78.3019102 59.0885729,76.9701583 58.7666119,75.6725233 L53.159968,75.6725233 C52.8897827,76.9863189 52.6201924,78.2833554 52.3577436,79.5821875 C52.1905144,80.4111656 52.0780363,80.4907715 51.2823583,80.3267715 C50.2706509,80.1172824 49.2601339,79.9012094 48.2436656,79.7150634 C47.6985339,79.6151072 47.5384461,79.3331948 47.6509241,78.8040853 C47.9365827,77.4615598 48.1996266,76.1148445 48.4698119,74.7765087 C47.2230314,74.2707423 46.0417144,73.7907131 44.7776753,73.2765671 C44.131968,74.2803189 43.4612656,75.3151948 42.7982997,76.3554576 C42.1525924,77.3699831 42.1531875,77.3729758 41.14029,76.7157788 C40.3850802,76.2249758 39.6435583,75.7102313 38.8687095,75.2529466 C38.3158412,74.9267423 38.2301436,74.5939539 38.5949534,74.0516766 C39.3382607,72.9491656 40.037529,71.8155306 40.7665534,70.6765087 C39.7488948,69.6978956 38.7473046,68.7348445 37.6796558,67.7083481 C36.6697339,68.4265963 35.6306509,69.1645963 34.5921631,69.9037934 C33.7560168,70.4993408 33.7066217,70.4909612 33.1144753,69.6482167 C32.595529,68.9096182 32.0765827,68.1698226 31.5570412,67.4318226 C31.0107192,66.6543189 31.0232168,66.5765087 31.7766412,66.0390196 C32.8371485,65.2818664 33.8964656,64.5241145 34.9438802,63.7759393 C34.3892266,62.5579102 33.8577827,61.3907569 33.2906314,60.1445963 C32.0872948,60.4396766 30.8524168,60.7383481 29.6193241,61.0471948 C28.6028558,61.3021729 28.5594119,61.2776328 28.3076753,60.2301875 C28.0856948,59.3078372 27.8762119,58.3824941 27.6256656,57.4685233 C27.4661729,56.8879393 27.6101924,56.5952532 28.2267388,56.4581875 C29.5377924,56.1666985 30.8357534,55.8123627 32.0682509,55.5017204 L32.0682509,49.8592824 C30.7054217,49.5779685 29.3729436,49.2840853 28.0321339,49.0344941 C27.4530802,48.9273554 27.2864461,48.6622021 27.417968,48.0905963 C27.6548266,47.0563189 27.8482412,46.0118664 28.0446314,44.9692094 C28.1463973,44.4287277 28.3737339,44.1917058 28.9754022,44.3299685 C30.2864558,44.6316328 31.6123875,44.8710488 32.9627192,45.1421875 C33.4584558,43.9109904 33.9446705,42.703735 34.4582607,41.4288445 C33.4001339,40.7441145 32.3086802,40.0378372 31.2178217,39.3303627 C30.4417827,38.8263919 30.4227388,38.7396036 30.9279973,37.9459393 C31.4612266,37.1073846 32.0158802,36.2825963 32.52709,35.4308737 C32.8294119,34.9280999 33.1555388,34.8664503 33.6316363,35.1824795 C34.7546314,35.9282605 35.8919095,36.6536912 37.04109,37.3988737 C38.0176851,36.3687861 38.9746412,35.3608445 39.9881339,34.2930488 C39.2626802,33.2569758 38.515207,32.1921729 37.7707095,31.1261729 C37.2410509,30.3684211 37.2594997,30.2714576 38.0212558,29.7309758 C38.8294314,29.1569758 39.6483192,28.5979393 40.4422119,28.0047861 C40.9087875,27.6564357 41.2319388,27.7216766 41.5562802,28.1987131 C42.3168461,29.3173846 43.1053827,30.4169029 43.8933241,31.5409612 C45.1020168,30.9867131 46.2773827,30.4468299 47.5140461,29.8794138 C47.2152948,28.6476182 46.913568,27.4020561 46.6100558,26.1570926 C46.3743875,25.1910488 46.4083095,25.1252094 47.3402705,24.8881875 C48.2543778,24.6559539 49.1690802,24.4273116 50.085568,24.2034576 C50.866368,24.0125233 51.0115778,24.1029029 51.2109436,24.9073408 C51.5239778,26.1756474 51.8304656,27.445151 52.1232656,28.6488153 Z" id="Stroke-1" stroke="#00A19C" stroke-width="0.5"></path>
                        <path d="M99.5740195,4.19666271 C100.107249,4.18409336 100.354224,4.37981599 100.353034,4.94603497 C100.341727,9.94803497 100.344702,14.950035 100.348868,19.952035 C100.349463,20.4105167 100.197112,20.6924291 99.6948293,20.6918306 C97.6702244,20.6906335 94.8323567,20.6906338 91.1812262,20.6918315" id="Stroke-17" stroke="#00A19C" stroke-width="0.5"></path>
                        <path d="M16.8784273,18.9582085 C15.0871102,18.9582085 13.3315005,19.0228508 11.5836273,18.9360625 C10.3547005,18.8750114 9.24301265,17.7120479 9.02043704,16.4820479 C8.96449558,16.1720041 8.93473948,15.8529822 8.93354924,15.5375515 C8.92640778,13.3193618 8.92343217,11.1017705 8.932359,8.88358073 C8.94188095,6.6929238 10.2511492,5.39169752 12.4328663,5.38810628 C13.8944858,5.38571212 15.3555102,5.38750774 16.8784273,5.38750774 L16.8784273,18.9582085 Z" id="Stroke-19" stroke="#00A19C" stroke-width="0.5"></path>
                        <path d="M91.4845989,20.6855484 L22.7881122,20.6855484 C20.5938976,20.6711834 19.2119252,20.6711834 18.6421951,20.6855484 C18.1036098,20.6993148 17.8536585,20.4832418 17.8536585,19.9325849 C17.8590146,14.9323805 17.8584195,9.93277466 17.8548488,4.93316882 C17.8542537,4.47588415 18.0137463,4.18918342 18.5106732,4.18978196 C20.5051252,4.19137806 23.9536175,4.19137806 28.85615,4.18978196 L99.9784537,4.18978102" id="Stroke-21" stroke="#00A19C" stroke-width="0.5"></path>
                        <path d="M63.0830485,21.7962619 C63.1181607,21.6484224 63.1610095,21.3317947 63.2669412,21.037313 C65.5777998,14.6065976 67.8916339,8.17707938 70.2167754,1.75115237 C70.6702583,0.498407844 71.7480241,-0.140833032 73.0168241,0.0261596692 C74.1380339,0.173999085 75.0473802,1.11310857 75.153312,2.31557573 C75.187829,2.7058239 75.1187949,3.13437865 74.9860827,3.50547354 C72.6895071,9.94217427 70.3804339,16.3740867 68.0600534,22.8024078 C67.5928827,24.0976487 66.4216827,24.7416779 65.1189607,24.4866998 C63.9334778,24.2544662 63.0711461,23.1872692 63.0830485,21.7962619 Z" id="Stroke-3" stroke="#00A19C" stroke-width="0.5" fill="#FFFFFF"></path>
                        <path d="M82.7660927,8.38247278e-05 C84.5776439,0.0138502481 85.7274195,1.74482835 85.0870683,3.54404003 C83.636161,7.62368966 82.1644244,11.6961568 80.7004244,15.7710181 C79.8535658,18.1268721 79.0198,20.4875145 78.1527073,22.8355875 C77.682561,24.1092809 76.4810097,24.7449305 75.1818585,24.4707992 C74.0124439,24.2242006 73.154278,23.1318648 73.2018878,21.9066532 C73.2137902,21.5972079 73.2917512,21.2799816 73.3970878,20.986697 C75.696639,14.576332 78.0015463,8.16776266 80.3153805,1.76218601 C80.7313707,0.611791854 81.6270293,-0.00829573732 82.7660927,8.38247278e-05 Z" id="Stroke-5" stroke="#00A19C" stroke-width="0.5" fill="#FFFFFF"></path>
                        <path d="M92.8684472,7.24122397e-05 C94.6526228,0.0120432152 95.8172764,1.71010161 95.2179886,3.4722038 C94.687735,5.0302038 94.112252,6.5732403 93.5540276,8.12226219 C91.8049642,12.9812111 90.0600667,17.8425542 88.3014813,22.6985104 C87.7325447,24.2702768 86.182252,24.9639848 84.7843106,24.3049921 C83.5416959,23.7190213 83.0060862,22.380087 83.4988472,20.9932695 C84.5403106,18.0598242 85.5996276,15.1335615 86.6541837,12.2049045 C87.9069154,8.72439358 89.1560764,5.24268555 90.4195203,1.76636438 C90.8390813,0.611780441 91.7270032,-0.00770860966 92.8684472,7.24122397e-05 Z" id="Stroke-7" stroke="#00A19C" stroke-width="0.5" fill="#FFFFFF"></path>
                        <path d="M41.645761,0.000109415376 C43.4525512,0.0156714592 44.6088732,1.7532335 43.9732829,3.54586124 C42.9252732,6.5002554 41.851078,9.44567146 40.7887854,12.3952773 C39.5348634,15.8745912 38.2892732,19.3568977 37.0234488,22.8320218 C36.6270976,23.9189707 35.6689512,24.5665912 34.5929707,24.5480364 C33.5229415,24.5288831 32.5237317,23.8740802 32.2529512,22.8326204 C32.1077415,22.275978 32.0821512,21.590051 32.2702097,21.0579488 C34.5519073,14.5925182 36.878239,8.1432481 39.2069512,1.69517511 C39.5991366,0.610021824 40.5388341,-0.00946722696 41.645761,0.000109415376 Z" id="Stroke-9" stroke="#00A19C" stroke-width="0.5" fill="#FFFFFF"></path>
                        <path d="M61.8897627,2.43525293e-06 C63.7590407,-0.00239172533 64.8927481,1.76090754 64.2166895,3.6433163 C62.4491773,8.56810463 60.6733334,13.4899002 58.9004651,18.4128929 C58.3880651,19.8344258 57.8792359,21.2571557 57.3608846,22.6762944 C56.8103968,24.1822214 55.4320944,24.8890973 54.04427,24.3887178 C52.658231,23.8883382 52.0232359,22.4512433 52.5612261,20.9513017 C54.8441139,14.5828346 57.1341432,8.21676156 59.4301237,1.85248419 C59.8705139,0.631462289 60.7352261,0.00119951554 61.8897627,2.43525293e-06 Z" id="Stroke-11" stroke="#00A19C" stroke-width="0.5" fill="#FFFFFF"></path>
                        <path d="M51.8036167,1.47328782e-05 C53.6175484,0.00600013434 54.7810118,1.72440889 54.1436362,3.53080305 C52.8367484,7.23157678 51.4953435,10.9191826 50.1676264,14.6115768 C49.1838898,17.3492994 48.2114606,20.0912118 47.2086801,22.821752 C46.7313923,24.1217812 45.495324,24.7646133 44.1801045,24.4605549 C42.9975972,24.1864235 42.1602606,23.037825 42.2620264,21.7850804 C42.2876167,21.4762337 42.3864069,21.1667885 42.4923386,20.8723067 C44.758563,14.5457374 47.0301435,8.22096364 49.3035093,1.897387 C49.7528264,0.649430791 50.6228947,-0.003576508 51.8036167,1.47328782e-05 Z" id="Stroke-13" stroke="#00A19C" stroke-width="0.5" fill="#FFFFFF"></path>
                        <path d="M34.6975394,2.76979837 C34.661237,2.9194334 34.6118419,3.25701005 34.4993638,3.57124362 C32.2063589,9.96006114 29.9091882,16.347083 27.604876,22.7317108 C27.1805541,23.9066451 26.2295492,24.5889808 25.1184565,24.5662363 C24.047237,24.5440903 23.120037,23.8713312 22.7552272,22.8520173 C22.5046809,22.153521 22.6189443,21.4807619 22.8635394,20.8032144 C24.9458711,15.0332874 27.0216565,9.26096625 29.1004175,3.48984216 C29.337276,2.83264508 29.5497346,2.16407574 29.8264663,1.52363778 C30.3168467,0.392396908 31.5463687,-0.207938858 32.7205443,0.0655939886 C33.8661541,0.332542894 34.6975394,1.39136041 34.6975394,2.76979837 Z" id="Stroke-15" stroke="#00A19C" stroke-width="0.5" fill="#FFFFFF"></path>
                        <path d="M101.170732,5.40730235 C102.835288,5.40730235 104.432595,5.35223666 106.024546,5.42286439 C107.65518,5.49468921 108.933502,6.85217826 108.957307,8.4957695 C108.993015,10.9605578 108.993015,13.4265432 108.960283,15.8919301 C108.937073,17.6390688 107.583171,18.9672294 105.853746,18.9917695 C104.307024,19.0133169 102.759112,18.9959593 101.170732,18.9959593 L101.170732,5.40730235 Z" id="Stroke-23" stroke="#00A19C" stroke-width="0.5"></path>
                        <path d="M0.546224641,8.98380178 C0.0522734212,8.9855974 0.00525878702,9.34532003 0.00763927483,9.74334923 C0.0153758602,11.2570573 0.0320392748,12.7713638 0.000497811412,14.2844733 C-0.0125948715,14.9374806 0.231405128,15.1583419 0.870566104,15.1505609 C2.96003927,15.1236266 5.04951245,15.1403857 7.13898562,15.1403857 L7.87931732,15.1403857 L7.87931732,8.979612 C5.38873196,8.979612 2.96718074,8.97422514 0.546224641,8.98380178 Z" id="Stroke-47" stroke="#00A19C" stroke-width="0.5"></path>
                        <path d="M118.65958,10.2097922 C117.945434,10.1511353 117.223551,10.1876462 116.504644,10.1876462 C115.785141,10.1876462 115.062663,10.1481426 114.349112,10.2097922 C114.110468,10.2307411 113.894439,10.5090623 113.668293,10.6700696 C113.873015,10.8580112 114.07238,11.2021718 114.283054,11.2093543 C115.742293,11.2572375 117.204507,11.2572375 118.663151,11.2099528 C118.863112,11.2033689 119.052956,10.892128 119.246371,10.6987995 L119.246371,10.6413397 C119.052361,10.4791353 118.866088,10.2265514 118.65958,10.2097922" id="Fill-49" fill="#FEFEFE"></path>
                        <path d="M119.210068,9.87398292 C119.208878,9.05577854 119.144605,8.98275665 118.328693,8.98155957 C115.764907,8.9761727 113.201122,8.97796832 110.637932,8.98096103 C110.465941,8.98096103 110.293356,9.01627489 110.097561,9.03842088 L110.097561,15.078888 C110.200517,15.1070194 110.2636,15.1381435 110.326088,15.1381435 C113.0696,15.1423333 115.813112,15.1405377 118.556029,15.1465231 C119.057122,15.1477201 119.217805,14.8867566 119.214234,14.4198953 C119.203522,12.9043917 119.211854,11.3894866 119.210068,9.87398292 Z" id="Stroke-51" stroke="#00A19C" stroke-width="0.5"></path>
                    </g>
                </g>
            </g>
        </g>
    </g>
</svg>