<?xml version="1.0" encoding="UTF-8"?>
<svg width="18px" height="18px" viewBox="0 0 18 18" version="1.1" xmlns="http://www.w3.org/2000/svg" xmlns:xlink="http://www.w3.org/1999/xlink">
    <!-- Generator: Sketch 51.2 (57519) - http://www.bohemiancoding.com/sketch -->
    <title>Icons / search</title>
    <desc>Created with Sketch.</desc>
    <defs></defs>
    <g id="Page-1" stroke="none" stroke-width="1" fill="none" fill-rule="evenodd" stroke-linecap="round" stroke-linejoin="round">
        <g id="Turbine-oil-selector---Jenteram-SYN-(L)" transform="translate(-613.000000, -857.000000)" stroke="#00A19C">
            <g id="Group" transform="translate(613.000000, 857.000000)">
                <g id="Icons-/-bell">
                    <g id="Group-3" transform="translate(0.600000, 0.600000)">
                        <path d="M3.03628138,11.9843669 L2.71476414,12.2583807 C2.18469517,12.7884497 2.18469517,13.6475669 2.71476414,14.1776359 C3.2448331,14.7082841 4.10452966,14.7082841 4.63459862,14.1776359 L4.93815724,13.8856634" id="Stroke-10555"></path>
                        <path d="M11.4860441,5.08669241 C11.4837269,5.08437517 11.481989,5.08147862 11.4790924,5.07916138 L11.4941545,5.09306483 C11.4918372,5.09074759 11.4889407,5.08900966 11.4860441,5.08669241 C11.7635338,5.32363034 11.9772993,5.59764414 12.1580441,5.88556138 L16.4947614,1.76203034 C16.9020166,1.38026483 16.9020166,0.760982069 16.4947614,0.379216552 C16.0695476,-0.0210868966 15.3726372,0.000926896551 14.9758097,0.42672 L11.0069545,4.68001655 C11.1755338,4.80167172 11.33832,4.93375448 11.4860441,5.08669241 Z" id="Stroke-10557"></path>
                        <path d="M11.6127972,5.29970483 C10.3197766,3.87286345 8.11434207,3.7639531 6.68634207,5.05639448 L4.61878345,6.92814621 C3.73185931,7.73107034 2.12659034,7.84345655 0.681211034,7.92861517 C0.0578731034,7.96569103 -0.227726897,8.72169103 0.213707586,9.16312552 L7.73315586,16.6790979 C8.17459034,17.1205324 8.93116966,16.8355117 8.96824552,16.2115945 C9.05340414,14.7673738 9.16579034,13.1626841 9.96929379,12.27576 L11.8422041,10.20936 C13.1352248,8.78251862 13.0257352,6.57766345 11.5988938,5.28522207" id="Stroke-10559"></path>
                    </g>
                </g>
            </g>
        </g>
    </g>
</svg>