<?xml version="1.0" encoding="UTF-8"?>
<svg width="41px" height="48px" viewBox="0 0 41 48" version="1.1" xmlns="http://www.w3.org/2000/svg" xmlns:xlink="http://www.w3.org/1999/xlink">
    <!-- Generator: sketchtool 50.2 (55047) - http://www.bohemiancoding.com/sketch -->
    <title>2797D9AE-5A26-4DBD-AC3A-84160929E7A7</title>
    <desc>Created with sketchtool.</desc>
    <defs></defs>
    <g id="Page-1" stroke="none" stroke-width="1" fill="none" fill-rule="evenodd">
        <g id="Air-Comp-1-(L)" transform="translate(-1135.000000, -476.000000)">
            <g id="4" transform="translate(1029.000000, 366.000000)">
                <g id="Icons-/-Centrifugal" transform="translate(107.000000, 111.000000)">
                    <rect id="Background" x="0" y="0" width="40" height="47"></rect>
                    <g id="Centrifugal">
                        <path d="M18.7209302,25.438299 L18.7209302,36.8322384" id="Stroke-1" stroke="#00A19C" stroke-width="1.5"></path>
                        <path d="M18.7209302,2.33423838 L18.7209302,13.7281778" id="Stroke-2" stroke="#00A19C" stroke-width="1.5"></path>
                        <path d="M24.4576744,19.5832384 L35.6204651,19.5832384" id="Stroke-4" stroke="#00A19C" stroke-width="1.5"></path>
                        <path d="M1.82162791,19.5832384 L12.9844186,19.5832384" id="Stroke-6" stroke="#00A19C" stroke-width="1.5"></path>
                        <path d="M22.7791163,23.7256949 L30.6702791,31.7802606" id="Stroke-9" stroke="#00A19C" stroke-width="1.5"></path>
                        <path d="M6.77144186,7.38631111 L14.6653953,15.4437253" id="Stroke-10" stroke="#00A19C" stroke-width="1.5"></path>
                        <path d="M22.7773023,15.4431081 L30.6703256,7.38616869" id="Stroke-11" stroke="#00A19C" stroke-width="1.5"></path>
                        <path d="M6.77144186,31.780403 L14.6644651,23.7234636" id="Stroke-12" stroke="#00A19C" stroke-width="1.5"></path>
                        <g id="Group-17" transform="translate(0.000000, 0.381934)"></g>
                        <path d="M39.7674419,3.32892929 L28.1195349,3.32892929 C25.3655814,1.66636364 22.152093,0.712121212 18.7209302,0.712121212 C8.51023256,0.712121212 0.23255814,9.16120202 0.23255814,19.5833333 C0.23255814,27.4000505 4.88883721,34.1068081 11.524186,36.9714343 L6.29627907,42.307596 L6.29627907,46.9069495" id="Stroke-13" stroke="#00A19C" stroke-width="1.5"></path>
                        <path d="M39.7674419,13.7622646 L36.3130233,13.7622646 C36.8948837,15.5957394 37.2093023,17.5521737 37.2093023,19.5831434 C37.2093023,27.0794061 32.9274419,33.5544869 26.7237209,36.5999919 L31.9530233,41.9413758 L31.9530233,46.5407293" id="Stroke-15" stroke="#00A19C" stroke-width="1.5"></path>
                    </g>
                </g>
            </g>
        </g>
    </g>
</svg>