<?xml version="1.0" encoding="UTF-8"?>
<svg width="85px" height="83px" viewBox="0 0 85 83" version="1.1" xmlns="http://www.w3.org/2000/svg" xmlns:xlink="http://www.w3.org/1999/xlink">
    <!-- Generator: sketchtool 50.2 (55047) - http://www.bohemiancoding.com/sketch -->
    <title>8DA2F182-AFB3-430C-AA62-0101F4E71903</title>
    <desc>Created with sketchtool.</desc>
    <defs></defs>
    <g id="Page-1" stroke="none" stroke-width="1" fill="none" fill-rule="evenodd">
        <g id="Oil-type-(L)" transform="translate(-333.000000, -371.000000)">
            <g id="1" transform="translate(202.000000, 335.000000)">
                <g id="Icon/Image" transform="translate(132.000000, 37.000000)">
                    <rect id="Background" x="0" y="0" width="83" height="82"></rect>
                    <g id="Group-2">
                        <path d="M12.0873786,66.1612346 C5.33349644,65.6928588 8.4168704e-16,60.0656673 0,53.1927711 L0,33.746988 C-8.79259876e-16,26.5672862 5.82029825,20.746988 13,20.746988 L70,20.746988 C77.1797017,20.746988 83,26.5672862 83,33.746988 L83,53.1927711 C83,60.0656673 77.6665036,65.6928588 70.9126214,66.1612346 L70.9126214,62.6774579 C70.9126214,58.8945755 67.8459892,55.8279434 64.0631068,55.8279434 C60.2802244,55.8279434 57.2135922,58.8945755 57.2135922,62.6774579 L57.2135922,66.1927711 L25.7864078,66.1927711 L25.7864078,62.6774579 C25.7864078,58.8945755 22.7197756,55.8279434 18.9368932,55.8279434 C15.1540108,55.8279434 12.0873786,58.8945755 12.0873786,62.6774579 L12.0873786,66.1612346 Z" id="Combined-Shape" stroke="#00A19C" stroke-width="1.5" stroke-linecap="round" stroke-linejoin="round"></path>
                        <rect id="Rectangle-Copy" stroke="#00A19C" stroke-width="1.5" stroke-linecap="round" stroke-linejoin="round" x="33" y="0" width="17" height="20.746988"></rect>
                        <rect id="Rectangle-Copy-2" stroke="#00A19C" stroke-width="1.5" stroke-linecap="round" stroke-linejoin="round" x="12" y="20.746988" width="14" height="53.3493976"></rect>
                        <rect id="Rectangle-Copy-5" stroke="#00A19C" stroke-width="1.5" stroke-linecap="round" stroke-linejoin="round" x="57" y="20.746988" width="14" height="53.3493976"></rect>
                        <path d="M50.4,8.39759036 L54.5,8.39759036" id="Line-3" stroke="#00A19C" stroke-width="1.5" stroke-linecap="round" stroke-linejoin="round"></path>
                        <path d="M62,7.90361446 L65.5,4.44578313" id="Line-3-Copy" stroke="#00A19C" stroke-width="1.5" stroke-linecap="round" stroke-linejoin="round"></path>
                        <ellipse id="Oval-4" stroke="#00A19C" stroke-width="1.5" stroke-linecap="round" stroke-linejoin="round" cx="63" cy="7.90361446" rx="8" ry="7.90361446"></ellipse>
                        <ellipse id="Oval-3" fill="#00A19C" cx="19" cy="62.7349398" rx="1.5" ry="1.48192771"></ellipse>
                        <ellipse id="Oval-3-Copy" fill="#00A19C" cx="64" cy="62.7349398" rx="1.5" ry="1.48192771"></ellipse>
                        <path d="M33.4130435,27.1686747 L51.6057215,27.1686747" id="Line-2" stroke="#00A19C" stroke-width="1.5" stroke-linecap="round" stroke-linejoin="round"></path>
                        <path d="M33.4130435,34.0843373 L51.6057215,34.0843373" id="Line-2-Copy" stroke="#00A19C" stroke-width="1.5" stroke-linecap="round" stroke-linejoin="round"></path>
                        <rect id="Rectangle-Copy-4" stroke="#00A19C" stroke-width="1.5" stroke-linecap="round" stroke-linejoin="round" x="8" y="74.0963855" width="21" height="6.91566265"></rect>
                        <rect id="Rectangle-Copy-6" stroke="#00A19C" stroke-width="1.5" stroke-linecap="round" stroke-linejoin="round" x="53" y="74.0963855" width="21" height="6.91566265"></rect>
                    </g>
                </g>
            </g>
        </g>
    </g>
</svg>