<?xml version="1.0" encoding="UTF-8"?>
<svg width="94px" height="81px" viewBox="0 0 94 81" version="1.1" xmlns="http://www.w3.org/2000/svg" xmlns:xlink="http://www.w3.org/1999/xlink">
    <!-- Generator: sketchtool 50.2 (55047) - http://www.bohemiancoding.com/sketch -->
    <title>D706D8D1-9BF7-4B2E-96F5-1D588A719FAA</title>
    <desc>Created with sketchtool.</desc>
    <defs></defs>
    <g id="Page-1" stroke="none" stroke-width="1" fill="none" fill-rule="evenodd">
        <g id="Oil-type-(L)" transform="translate(-1070.000000, -371.000000)">
            <g id="1-copy-2" transform="translate(944.000000, 335.000000)">
                <g id="Icons-/-gears" transform="translate(126.000000, 37.000000)">
                    <rect id="Background" x="0" y="0" width="96" height="83"></rect>
                    <g transform="translate(1.000000, 0.000000)" stroke="#00A19C" stroke-width="1.5">
                        <path d="M55.4393433,54.0723323 C54.9671794,53.6931727 53.6466317,52.8344776 53.6466317,52.8344776 C53.6466317,52.8344776 53.1744679,52.455318 52.514194,52.2620269 C51.8539013,52.0724471 51.0017589,51.8828673 50.7214825,51.8828673 L50.7214825,50.3587682 L50.7214825,48.8346691 C51.0055174,48.7380235 51.8539202,48.5484437 52.514194,48.4555095 C53.1744868,48.2659296 53.6466317,47.8830587 53.6466317,47.8830587 C53.6466317,47.8830587 54.8750131,47.1210282 55.3471769,46.7418876 C55.9152466,46.362728 55.8193407,45.9798571 55.8193407,45.9798571 L55.6312117,44.7420024 C55.6312117,44.7420024 55.5353058,44.3628428 54.970919,44.1695517 C54.4028493,43.9799719 52.8941537,43.6937465 52.8941537,43.6937465 C52.8941537,43.6937465 52.326084,43.5041667 51.6657723,43.597101 C51.0054796,43.6937465 50.1533372,43.7866808 49.8730608,43.7866808 C49.5890259,42.8350705 49.3049911,41.8834601 48.8327895,41.0285334 C49.1168244,40.8389536 49.7771171,40.4560827 50.3452246,40.0769231 C50.9132943,39.6977635 51.1936463,39.2219583 51.1936463,39.2219583 C51.1936463,39.2219583 52.042068,38.0807872 52.4220277,37.5082984 C52.7982856,36.9358477 52.6101566,36.6533336 52.6101566,36.6533336 L52.0420869,35.6050397 C52.0420869,35.6050397 51.853958,35.3188143 51.2858882,35.3188143 C50.7178185,35.4154599 49.209123,35.5083941 49.209123,35.5083941 C49.209123,35.5083941 48.5488302,35.5083941 47.9807416,35.7946195 C47.4126719,36.0808448 46.6601939,36.4600045 46.3761401,36.6495843 C45.8080704,35.8875537 45.1477588,35.1254852 44.4874849,34.3672421 C44.6756138,34.1776622 45.1477776,33.4156317 45.5277562,32.9398266 C45.9040141,32.4640214 45.99992,31.7986554 45.99992,31.7986554 C45.99992,31.7986554 46.3761779,30.37124 46.5679897,29.7987512 C46.7561187,29.1333662 46.4720838,28.9437864 46.4720838,28.9437864 L45.5277562,28.1817559 C45.5277562,28.1817559 45.2437213,27.8955305 44.6793345,28.1817559 C44.1112648,28.4679812 42.7906793,29.1333662 42.7906793,29.1333662 C42.7906793,29.1333662 42.2226096,29.4195916 41.750408,29.7987512 C41.2782442,30.2745563 40.7101367,30.9399223 40.5220266,31.1294831 C39.6736049,30.5570324 38.8214815,30.0811891 37.9730975,29.605384 C38.0690034,29.3191586 38.3493554,28.55709 38.5411672,27.8917241 C38.7292962,27.3192734 38.6370732,26.6538694 38.6370732,26.6538694 C38.6370732,26.6538694 38.5411672,25.2264539 38.4489442,24.5610879 C38.3530383,23.8957029 38.0726863,23.7990574 38.0726863,23.7990574 L37.0250493,23.5239849 C37.0250493,23.5239849 36.6487914,23.4273394 36.2688506,23.8102103 L34.7564155,25.3343094 C34.7601078,25.3305886 34.287944,25.713469 34.0038997,26.378892 C33.7198649,26.9513427 33.43583,27.7096239 33.343607,27.9958683 C32.3992793,27.8062885 31.4549517,27.6167087 30.4146804,27.5200631 C30.4146804,27.2338378 30.4146804,26.378892 30.3187745,25.7135261 C30.3187745,25.0481411 30.0347397,24.4756714 30.0347397,24.4756714 C30.0347397,24.4756714 29.46667,23.1449395 29.186318,22.5724507 C28.9022831,22 28.5260252,22 28.5260252,22 L27.2976439,22 C27.2976439,22 26.921386,22 26.6373511,22.5724507 C26.3533163,23.1449014 25.7889294,24.4756714 25.7889294,24.4756714 C25.7889294,24.4756714 25.5048946,25.0481221 25.5048946,25.7135261 C25.5048946,26.3789301 25.4089886,27.2376252 25.4089886,27.5200631 C24.464661,27.6167087 23.4243897,27.8062885 22.4800621,27.9958683 C22.3841562,27.709643 22.0078983,26.9475744 21.8197694,26.378892 C21.5357345,25.8064413 21.0635707,25.3305981 21.0635707,25.3305981 C21.0635707,25.3305981 20.0232994,24.2823042 19.6470793,23.806499 C19.1749155,23.3306938 18.8908806,23.5202736 18.8908806,23.5202736 L17.758443,23.8994333 C17.758443,23.8994333 17.3821851,23.9960788 17.3821851,24.5648182 C17.2862791,25.1372689 17.1940561,26.6575997 17.1940561,26.6575997 C17.1940561,26.6575997 17.0981502,27.3229846 17.289962,27.8954544 C17.478091,28.4679051 17.6662199,29.3228699 17.8580317,29.6091143 C17.00961,30.0849194 16.1574866,30.5607246 15.3091027,31.1332134 C15.1209737,30.9436336 14.552904,30.2782486 14.0807213,29.8024815 C13.6085386,29.3267144 13.04045,29.1370965 13.04045,29.1370965 C13.04045,29.1370965 11.7199023,28.4717115 11.1517948,28.1854862 C10.5837251,27.8992608 10.3033731,28.1854862 10.3033731,28.1854862 L9.35904547,28.9475167 C9.35904547,28.9475167 9.07501061,29.2337421 9.26313955,29.7095472 C9.4512685,30.2819979 9.83120927,31.8023287 9.83120927,31.8023287 C9.83120927,31.8023287 10.0193382,32.3747794 10.3033731,32.9434998 C10.679631,33.4193049 11.1517948,34.0846709 11.3436444,34.3709153 C10.6833516,35.1329458 10.0230966,35.8950144 9.45498915,36.6532575 C9.17095429,36.4636777 8.41471785,36.0808068 7.85038767,35.891227 C7.27862752,35.705368 6.61832533,35.6087129 6.61832533,35.6087129 C6.61832533,35.6087129 5.20183391,35.4191331 4.54156005,35.4191331 C3.97349033,35.3224875 3.78536138,35.7053584 3.78536138,35.7053584 L3.21729166,36.7536524 C3.21729166,36.7536524 3.02916272,37.0398777 3.40542061,37.5156829 C3.7816785,37.9914881 4.63380197,39.2293428 4.63380197,39.2293428 C4.63380197,39.2293428 5.01005986,39.8017935 5.48222367,40.0843076 C5.95438747,40.4634672 6.71060502,40.8463381 6.99465877,41.0359179 C6.61840087,41.9875282 6.2384601,42.8424549 5.95438747,43.7940653 C5.67035261,43.7940653 4.8219498,43.6044855 4.25384231,43.6044855 C3.59354956,43.5078399 3.02546095,43.701131 3.02546095,43.701131 C3.02546095,43.701131 1.60896954,44.0802906 1.04086204,44.1769362 C0.380569292,44.366516 0.380569292,44.7493869 0.380569292,44.7493869 L0.00800371938,46.0764075 C0.00800371938,46.0764075 -0.0879021928,46.4555671 0.384261613,46.7417925 C0.856425418,47.1209521 2.17697315,47.9796472 2.17697315,47.9796472 C2.17697315,47.9796472 2.64913696,48.3588068 3.30941082,48.5520979 C3.87748054,48.7416777 4.72590224,48.8383233 5.00995598,48.9312575 L5.00995598,50.4553566 L5.00995598,51.9794557 C4.72592113,52.0761013 3.87751831,52.2656811 3.30941082,52.3586154 C2.64911807,52.5481952 2.17697315,52.9310661 2.17697315,52.9310661 C2.18066169,52.9273453 0.952274671,53.6893853 0.480110865,54.0722372 C-0.0879588525,54.4513968 0.00794705972,54.7376221 0.00794705972,54.7376221 L0.196076006,55.9754769 C0.196076006,55.9754769 0.291981919,56.3546365 0.856368759,56.5479276 C1.42443848,56.7375074 2.93313404,57.0237327 2.93313404,57.0237327 C2.93313404,57.0237327 3.50120376,57.2133126 4.1615154,57.1203783 C4.82180815,57.0237327 5.57800682,56.9307985 5.86206056,56.9307985 C6.14609542,57.8824088 6.52235331,58.8340191 6.90233186,59.6889459 C6.618297,59.8785257 5.95800425,60.2613966 5.38989676,60.6405562 C4.91773295,61.015995 4.54147506,61.5884457 4.54147506,61.5884457 C4.54147506,61.5884457 3.69305336,62.7296168 3.3130937,63.3021056 C2.93683581,63.8745563 3.12496475,64.1570704 3.12496475,64.1570704 L3.7852575,65.2053643 C3.7852575,65.2053643 3.97338645,65.4915897 4.54145617,65.4915897 C5.10584301,65.3949441 6.61822145,65.2982986 6.61822145,65.2982986 C6.61822145,65.2982986 7.2785142,65.2982986 7.84660092,65.0120732 C8.41467064,64.7258479 9.16714865,64.3466883 9.4512024,64.2500427 C10.0192721,65.0120732 10.6795838,65.7741418 11.3398576,66.5323849 C11.1517287,66.8186103 10.6795649,67.3873497 10.2995863,67.9598004 C9.92332843,68.4356056 9.82742252,69.1009715 9.82742252,69.1009715 C9.82742252,69.1009715 9.45116462,70.528387 9.2593528,71.1008758 C9.07122385,71.7662608 9.35525871,71.9558406 9.35525871,71.9558406 L10.2995863,72.7178711 C10.2995863,72.7178711 10.5836212,73.0040965 11.148008,72.7178711 C11.7160777,72.4316458 13.0366632,71.7662608 13.0366632,71.7662608 C13.0366632,71.7662608 13.604733,71.4800354 14.0769345,71.1008758 C14.5490983,70.6250707 15.0212622,70.0525819 15.3053159,69.7701439 C16.1537376,70.3425946 17.0058611,70.8184379 17.854245,71.294243 C17.7583391,71.5804684 17.4779871,72.342537 17.3820812,73.0079029 C17.1939522,73.5803536 17.2861753,74.2457576 17.2861753,74.2457576 C17.2861753,74.2457576 17.3820812,75.6731731 17.4743042,76.3385391 C17.5702101,77.0039241 17.8505621,77.1005696 17.8505621,77.1005696 L18.9829998,77.4797292 C18.9829998,77.4797292 19.3592577,77.5763748 19.7391984,77.1935039 L21.2516335,75.6694048 C21.2516335,75.6694048 21.7237974,75.1935996 22.0078322,74.6211108 C22.2918671,74.0486601 22.5759019,73.2903789 22.668125,73.0041345 C23.6124526,73.1937144 24.5567802,73.3832942 25.5970515,73.4799397 C25.5970515,73.7661651 25.5970515,74.6211108 25.6929574,75.2864768 C25.6929574,75.9518617 25.9769923,76.5243315 25.9769923,76.5243315 C25.9769923,76.5243315 26.545062,77.8550605 26.825414,78.4275493 C27.1094488,79 27.4857067,79 27.4857067,79 L28.7140881,79 C28.7140881,79 29.090346,79 29.3743808,78.4275493 C29.6584157,77.8550986 30.2228025,76.5243315 30.2228025,76.5243315 C30.2228025,76.5243315 30.5068374,75.9518808 30.5068374,75.2864768 C30.5068374,74.6210728 30.6027433,73.7623777 30.6027433,73.4799397 C31.5470709,73.3832942 32.5873422,73.1937144 33.5316698,73.0041345 C33.6275757,73.2903599 34.0038336,74.0524285 34.1919626,74.6211108 C34.4759974,75.1935615 34.9481612,75.6694048 34.9481612,75.6694048 C34.9481612,75.6694048 35.9884325,76.7176987 36.3646526,77.1935039 C36.8368164,77.669309 37.1208513,77.4797292 37.1208513,77.4797292 L38.253289,77.1005696 C38.253289,77.1005696 38.6295469,77.0039241 38.6295469,76.4351846 C38.7254528,75.8627339 38.8176758,74.3424032 38.8176758,74.3424032 C38.8176758,74.3424032 38.9135817,73.6770182 38.7217699,73.1045485 C38.533641,72.4391635 38.2496061,71.677133 38.1537002,71.3908886 C39.0021219,70.9150834 39.8542453,70.4392783 40.7026293,69.8667895 C40.8907582,70.0563693 41.4588279,70.7217543 41.9310106,71.1975214 C42.4031933,71.6732885 42.9712819,71.8629063 42.9712819,71.8629063 C42.9712819,71.8629063 44.2918297,72.5282913 44.8599371,72.8145167 C45.4280069,73.100742 45.7083588,72.8145167 45.7083588,72.8145167 L46.6526865,72.0524862 C46.6526865,72.0524862 46.9367213,71.7662608 46.7485924,71.2904556 C46.5604634,70.7180049 46.1805227,69.1976742 46.1805227,69.1976742 C46.1805227,69.1976742 45.9923937,68.6252235 45.7083588,68.0565031 C45.332101,67.4840524 44.7640312,66.8186484 44.6680876,66.6290876 C45.3283803,65.8670571 45.9886353,65.2016721 46.5567428,64.3467454 C46.8407776,64.4433909 47.5970141,64.9191961 48.1613443,65.2017102 C48.729414,65.4879355 49.3897256,65.4879355 49.3897256,65.4879355 C49.3897256,65.4879355 50.806217,65.6775153 51.4664909,65.6775153 C52.1267836,65.7741609 52.3149126,65.39129 52.3149126,65.39129 L52.8829823,64.342996 C52.8829823,64.342996 53.0711113,64.0567707 52.6948534,63.5809655 C52.3185955,63.1051603 51.466472,61.8673056 51.466472,61.8673056 C51.466472,61.8673056 51.0902141,61.2948549 50.6180503,61.0123408 C50.0499806,60.6331812 49.3896689,60.157376 49.1056152,60.0607305 C49.4818731,59.2057657 49.8618139,58.2541935 50.1458865,57.3025831 C50.4299214,57.3025831 51.2783242,57.4921629 51.938598,57.4921629 C52.5988908,57.5888085 53.1669794,57.3955174 53.1669794,57.3955174 C53.1669794,57.3955174 54.5834708,57.0163578 55.1515783,56.9197122 C55.8118711,56.7301324 55.8118711,56.3472615 55.8118711,56.3472615 L56,55.1094068 C55.8192463,54.7376888 55.9114693,54.3548083 55.4393055,54.0723419 L55.4393433,54.0723323 Z M27.8659213,67.394877 C18.5185889,67.394877 11.0559455,59.7819943 11.0559455,50.4552615 C11.0559455,41.1285286 18.6105664,33.515646 27.8659213,33.515646 C37.2132538,33.515646 44.6758971,41.1285286 44.6758971,50.4552615 C44.6758971,59.7819943 37.2135371,67.394877 27.8659213,67.394877 Z" id="Fill-1"></path>
                        <path d="M90.1864903,21.1364134 C90.1864903,21.1364134 91.1375076,20.5688483 91.6130162,20.2887453 C92.0885249,20.0049628 91.9919396,19.7211802 91.9919396,19.7211802 L91.8953543,18.7776914 C91.8953543,18.7776914 91.8953543,18.4939088 91.4198456,18.305947 C90.944337,18.2101263 89.803877,17.8342026 89.803877,17.8342026 C89.803877,17.8342026 89.3283684,17.6462408 88.8528597,17.7383819 L88.3773511,17.7383819 C88.1878894,16.8907138 87.9018424,15.9472628 87.5229191,15.0958585 C87.7123807,15.0000377 87.8089661,14.9078966 87.9984277,14.8120759 C88.4739364,14.5282933 88.7599834,14.1523697 88.7599834,14.1523697 C88.7599834,14.1523697 89.4249537,13.2088809 89.807624,12.8329949 C90.093671,12.4570713 89.9970857,12.1732887 89.9970857,12.1732887 L89.1389447,11.321941 C89.1389447,11.321941 89.0423594,11.0381585 88.5668508,11.0381585 C88.0913421,11.0381585 86.8542588,11.1339792 86.8542588,11.1339792 C86.8542588,11.1339792 86.3787502,11.1339792 85.9032415,11.321941 C85.7137798,11.4177617 85.6171945,11.4177617 85.4277329,11.5099029 C84.9522242,10.7543759 84.3800922,9.9988112 83.7151409,9.33912384 C83.8117262,9.24330312 83.9046026,9.05534128 84.0011879,8.96320016 C84.2872349,8.58727649 84.4766965,8.11553209 84.4766965,8.11553209 C84.4766965,8.11553209 84.8556199,6.98410033 84.9522052,6.51235593 C85.1416669,6.04061153 84.8556199,5.85264969 84.8556199,5.85264969 L84.0940642,5.19294346 C84.0940642,5.19294346 83.9046026,5.00498162 83.4290939,5.19294346 C82.9535853,5.3809053 81.9059446,5.85264969 81.9059446,5.85264969 C81.9059446,5.85264969 81.430436,6.04061153 81.0515126,6.42021481 C80.9549273,6.51603554 80.862051,6.60817665 80.6725893,6.79613849 C79.9110337,6.22857337 79.14944,5.75679123 78.295046,5.3809053 C78.3916314,5.19294346 78.3916314,5.09712274 78.4845077,4.9091609 C78.6739694,4.4374165 78.581093,3.9656721 78.581093,3.9656721 C78.581093,3.9656721 78.581093,2.83424034 78.4845077,2.26663748 C78.4845077,1.79489308 78.1984607,1.69907236 78.1984607,1.69907236 L77.2474434,1.32314869 C77.2474434,1.32314869 76.9613964,1.22732796 76.5824731,1.51111052 C76.2035498,1.79489308 75.3453898,2.64254229 75.3453898,2.64254229 C75.3453898,2.64254229 74.9664665,3.01846596 74.7732958,3.39806924 C74.8735996,3.6818518 74.8735996,3.86981364 74.7770048,3.96563436 C73.9225728,3.6818518 72.9715936,3.49388997 72.0205763,3.39806924 L72.0205763,2.92632485 C72.0205763,2.45458045 71.8311146,1.98283605 71.8311146,1.98283605 C71.8311146,1.98283605 71.3556059,0.943488795 71.1661443,0.471744398 C70.9766826,0 70.6906356,0 70.6906356,0 L69.7396183,0 C69.7396183,0 69.4535713,0 69.2641097,0.375923676 C69.074648,0.751847351 68.502554,1.88701533 68.502554,1.88701533 C68.502554,1.88701533 68.2165071,2.35875973 68.2165071,2.83050412 L68.2165071,3.30224852 C67.2654897,3.39806924 66.4110958,3.49021036 65.4600785,3.6781722 C65.3634932,3.49021036 65.3634932,3.39438964 65.2706168,3.2064278 C65.0811552,2.7346834 64.6985229,2.35875973 64.6985229,2.35875973 C64.6985229,2.35875973 63.9369672,1.51109165 63.5580629,1.1314695 C63.1791396,0.755545827 62.8930926,0.847686943 62.8930926,0.847686943 L61.9420753,1.1314695 C61.9420753,1.1314695 61.6560283,1.22729022 61.563152,1.69903462 C61.4665667,2.17077902 61.3736903,3.39806924 61.3736903,3.39806924 C61.3736903,3.39806924 61.277105,3.86981364 61.4702756,4.34155804 C61.4702756,4.52951988 61.5668609,4.6253406 61.5668609,4.81330244 C60.712429,5.18922611 59.854269,5.66097051 59.0926943,6.13267717 C58.996109,6.03685645 58.9032327,5.84889461 58.8066473,5.75675349 C58.427724,5.38082982 58.0450917,5.18918837 58.0450917,5.18918837 C58.0450917,5.18918837 56.997451,4.62162325 56.5219424,4.43366142 C56.0464337,4.24569958 55.8569721,4.43366142 55.8569721,4.43366142 L55.0954164,5.00122654 C55.0954164,5.00122654 54.9059548,5.18918837 54.9988311,5.66093277 C55.0954164,6.13267717 55.3777545,7.26410893 55.3777545,7.26410893 C55.3777545,7.26410893 55.4743398,7.73585333 55.7566778,8.20759773 C55.8532631,8.30341845 55.9461395,8.49138029 56.0427248,8.5835214 C55.3777545,9.24322764 54.7128222,9.90289613 54.2373135,10.658442 C54.0478519,10.5626212 53.9512666,10.4704801 53.8583902,10.4704801 C53.3828816,10.2825183 52.9073729,10.1866976 52.9073729,10.1866976 C52.9073729,10.1866976 51.766913,9.99873573 51.2914043,9.99873573 C50.8158957,9.902915 50.626434,10.1866976 50.626434,10.1866976 L50.1509253,11.0343656 C50.1509253,11.0343656 49.9614637,11.3181482 50.2475107,11.6940719 C50.5335576,12.0699955 51.198528,13.1093051 51.198528,13.1093051 C51.198528,13.1093051 51.4845749,13.5810495 51.8634983,13.864832 C51.9600836,13.9606527 52.1495453,14.0527939 52.2424216,14.1486146 C51.8634983,14.9962827 51.480866,15.8476492 51.1947809,16.6952795 C51.0053193,16.6952795 50.908734,16.6952795 50.7192723,16.5994588 C50.2437636,16.5036381 49.768255,16.6952795 49.768255,16.6952795 C49.768255,16.6952795 48.627795,16.9790621 48.1522864,17.0712032 C47.6767777,17.1670239 47.5801924,17.4471269 47.5801924,17.4471269 L47.3907308,18.3906157 C47.3907308,18.3906157 47.2941454,18.6743982 47.6767777,18.9581808 C48.0557011,19.2419634 49.0066803,19.9016696 49.0066803,19.9016696 C49.0066803,19.9016696 49.3856037,20.1854522 49.8611123,20.373414 C50.050574,20.373414 50.1471593,20.4692347 50.336621,20.4692347 C50.336621,20.9409791 50.2400357,21.4127235 50.2400357,21.8844679 L50.2400357,23.2997011 C50.050574,23.2997011 49.9539887,23.3955218 49.764527,23.3955218 C49.2890184,23.4913425 48.8135097,23.7714455 48.8135097,23.7714455 C48.8135097,23.7714455 47.8624924,24.3390106 47.3869838,24.6191136 C46.9114751,24.9028961 47.0080604,25.1866787 47.0080604,25.1866787 L47.1046457,26.1301675 C47.1046457,26.1301675 47.1046457,26.41395 47.5801544,26.6019119 C48.055663,26.6977326 49.196123,27.0736563 49.196123,27.0736563 C49.196123,27.0736563 49.6716316,27.2616181 50.1471403,27.169477 L50.6226489,27.169477 C50.8121106,28.1129658 51.0981576,28.9605961 51.4770809,29.8120004 C51.3804956,29.9078211 51.1910339,29.9999623 51.0981576,30.095783 C50.6226489,30.3795655 50.336602,30.7554892 50.336602,30.7554892 C50.336602,30.7554892 49.6716316,31.698978 49.2889613,32.0748639 C49.0029143,32.4507876 49.0994996,32.7345702 49.0994996,32.7345702 L49.5750083,33.5822383 C49.5750083,33.5822383 49.6715936,33.8660208 50.1471022,33.8660208 C50.6226109,33.8660208 51.8596942,33.7702001 51.8596942,33.7702001 C51.8596942,33.7702001 52.3352029,33.7702001 52.8107115,33.5822383 C52.9072968,33.4864175 53.0967585,33.4864175 53.2862202,33.3942764 C53.7617288,34.1498034 54.4266801,34.9053681 54.9988121,35.5650554 C54.9022268,35.6608762 54.8093504,35.848838 54.7127651,35.9409791 C54.4267181,36.3169028 54.2372565,36.7886472 54.2372565,36.7886472 C54.2372565,36.7886472 53.8583331,37.920079 53.7617478,38.3918233 C53.5722862,38.8635677 53.8583331,39.0515296 53.8583331,39.0515296 L54.6198888,39.7112358 C54.6198888,39.7112358 54.8093504,39.8991977 55.2848591,39.7112358 C55.7603677,39.523274 56.8080084,39.0515296 56.8080084,39.0515296 C56.8080084,39.0515296 57.2835171,38.8635677 57.6624404,38.4839645 C57.7590257,38.3881437 57.8519021,38.2960026 58.0413637,38.1080408 C58.8029194,38.6756059 59.564513,39.147388 60.418907,39.523274 C60.3223217,39.7112358 60.3223217,39.8070565 60.2294453,39.9950184 C60.0399836,40.4667628 60.13286,40.9385072 60.13286,40.9385072 C60.13286,40.9385072 60.13286,42.0699389 60.2294453,42.6375418 C60.2294453,43.1092862 60.5154923,43.2051069 60.5154923,43.2051069 L61.4665096,43.5810306 C61.4665096,43.5810306 61.7525566,43.6768513 62.1314799,43.3930688 C62.5104032,43.1092862 63.3685632,42.261637 63.3685632,42.261637 C63.3685632,42.261637 63.7474865,41.8857133 63.9406572,41.50611 C64.0372425,41.4102893 64.0372425,41.2223275 64.1301188,41.0343656 C64.9845508,41.3181482 65.9355301,41.50611 66.8865474,41.6019308 L66.8865474,42.0736752 C66.8865474,42.5454196 67.0760091,43.0171639 67.0760091,43.0171639 C67.0760091,43.0171639 67.5515177,44.0565112 67.7409794,44.5282556 C67.930441,45 68.216488,45 68.216488,45 L69.1675053,45 C69.1675053,45 69.4535523,45 69.643014,44.6240763 C69.8324756,44.2481526 70.4045696,43.1129847 70.4045696,43.1129847 C70.4045696,43.1129847 70.6906166,42.6412403 70.6906166,42.1694959 L70.6906166,41.6977515 C71.6416339,41.6019308 72.4960278,41.5097896 73.4470451,41.3218278 C73.5436305,41.5097896 73.5436305,41.6056104 73.6365068,41.7935722 C73.8259685,42.2653166 74.2086008,42.6412403 74.2086008,42.6412403 C74.2086008,42.6412403 74.9701564,43.4889083 75.3490607,43.8685305 C75.7279841,44.2444542 76.014031,44.1523131 76.014031,44.1523131 L76.9650483,43.8685305 C76.9650483,43.8685305 77.2510953,43.7727098 77.3439717,43.3009654 C77.440557,42.829221 77.5334333,41.6019308 77.5334333,41.6019308 C77.5334333,41.6019308 77.6300187,41.1301864 77.436848,40.658442 C77.436848,40.4704801 77.3402627,40.3746594 77.3402627,40.1866976 C78.1946947,39.8107739 78.9562313,39.3390295 79.8144293,38.8673228 C79.9110146,38.9631436 80.003891,39.1511054 80.1933527,39.2432465 C80.572276,39.6191702 80.9549083,39.8108116 80.9549083,39.8108116 C80.9549083,39.8108116 82.002549,40.3783767 82.4780576,40.5663386 C82.9535663,40.7543004 83.1430279,40.5663386 83.1430279,40.5663386 L83.9045836,39.9987735 C83.9045836,39.9987735 84.0940452,39.8108116 84.0011689,39.3390672 C83.9045836,38.8673228 83.6222455,37.7358911 83.6222455,37.7358911 C83.6222455,37.7358911 83.5256602,37.2641467 83.2433222,36.7924023 C83.1467369,36.6965816 83.0538605,36.5086197 82.9572752,36.4164786 C83.6222455,35.7567724 84.1943585,35.0971039 84.7626865,34.341558 C84.9521481,34.4373788 85.0487334,34.5295199 85.2381951,34.6253406 C85.7137038,34.8133024 86.1892124,34.9091232 86.1892124,34.9091232 C86.1892124,34.9091232 87.3296724,35.097085 87.805181,35.097085 C88.2806897,35.1929057 88.4701513,34.9091232 88.4701513,34.9091232 L88.94566,34.0614551 C88.94566,34.0614551 89.1351216,33.7776725 88.8490747,33.4017489 C88.5630277,33.0258252 87.8980574,31.9865157 87.8980574,31.9865157 C87.8980574,31.9865157 87.6120104,31.5147713 87.233087,31.2309887 C87.1365017,31.135168 86.9470401,31.0430269 86.8541637,30.9472061 C87.233087,30.0995381 87.6157193,29.2481715 87.9018044,28.4005412 C88.091266,28.4005412 88.2807277,28.4963619 88.377313,28.4963619 C88.8528217,28.5921826 89.3283303,28.4005412 89.3283303,28.4005412 C89.3283303,28.4005412 90.4687903,28.1167586 90.9442989,28.0246175 C91.4198076,27.9287968 91.5163929,27.6486938 91.5163929,27.6486938 L91.7058546,26.705205 C91.7058546,26.705205 91.8024399,26.4214225 91.4198076,26.1376399 C91.0408842,25.8538574 90.089905,25.1941511 90.089905,25.1941511 C90.089905,25.1941511 89.6143963,24.626586 89.1388877,24.5307653 C88.949426,24.5307653 88.8528407,24.4349446 88.663379,24.4349446 C88.663379,23.9632002 88.7599643,23.4914558 88.7599643,23.1155698 L88.7599643,21.7003366 C88.949426,21.7003366 89.1388877,21.6045159 89.235473,21.6045159 C89.7109816,21.4202431 90.1864903,21.1364606 90.1864903,21.1364606 L90.1864903,21.1364134 Z M80.4832608,22.7395895 C80.2937991,28.7764083 75.1560423,33.5897107 69.0710532,33.4019564 C62.9860641,33.2139946 58.1343542,28.1169096 58.3236066,22.0800909 C58.5130683,16.0432722 63.6508251,11.2299697 69.7358143,11.417724 C75.9211357,11.6056858 80.6763173,16.7027708 80.4832608,22.7395895 Z" id="Fill-2"></path>
                    </g>
                </g>
            </g>
        </g>
    </g>
</svg>