<?xml version="1.0" encoding="UTF-8"?>
<svg width="59px" height="99px" viewBox="0 0 59 99" version="1.1" xmlns="http://www.w3.org/2000/svg" xmlns:xlink="http://www.w3.org/1999/xlink">
    <!-- Generator: sketchtool 50.2 (55047) - http://www.bohemiancoding.com/sketch -->
    <title>364BC7BE-4974-4B76-B5F8-E5353B09754A</title>
    <desc>Created with sketchtool.</desc>
    <defs></defs>
    <g id="Page-1" stroke="none" stroke-width="1" fill="none" fill-rule="evenodd">
        <g id="Gear-oil-selector-1-(L)" transform="translate(-585.000000, -444.000000)">
            <g id="2" transform="translate(489.000000, 366.000000)">
                <g id="Icons-/-Green-/-HeLical---Spiral-Bevel" transform="translate(97.000000, 79.000000)">
                    <rect id="Background" x="0" y="0" width="57" height="97"></rect>
                    <g id="Group" stroke="#00A19C" stroke-linecap="round" stroke-linejoin="round" stroke-width="0.5">
                        <path d="M16.9567723,55.2058082 C17.1083681,55.2308841 17.2883122,55.2119646 17.4074665,55.2873423 C19.4256606,56.564559 21.6081846,56.743994 23.9326021,56.4234135 C28.068134,55.8532757 31.3715569,53.7084646 34.3773973,51.0621364 C39.2786394,46.7475884 42.7791367,41.463641 45.0839984,35.3877772 C45.9083761,33.2145868 46.6069293,31.0130172 46.8913229,28.7027354 C47.0726314,27.2300172 47.3611181,25.7458872 47.3183681,24.2748206 C47.2278654,21.1642138 46.674541,18.1400961 44.6969745,15.5662927 C43.9273229,14.5641596 42.9851553,13.7624831 41.8184745,13.237542" id="Stroke-1"></path>
                        <path d="M3.17285156,28.9816817 C1.94992869,31.717352 1.81993723,33.8817246 1.0765117,36.7462277 C0.62202766,38.4967324 0.516971809,40.338381 0.287607447,42.1430915 C0.151626064,43.2148964 -0.00542712766,44.2949599 0.000181914894,45.3705187 C0.00639734043,46.6223593 0.122519681,47.8812571 0.297157979,49.1222865 C0.478314894,50.4085125 0.697370745,51.7023964 1.05695585,52.9485311 C1.91256223,55.9115358 3.58284415,58.407559 5.72504362,60.6242943 C6.19665798,61.1121472 6.44497181,61.8052618 6.88581223,62.3296023 C7.96138404,63.6087711 9.08955957,64.8442447 10.3432564,66.2635079 C10.5797457,65.7053825 10.7126952,65.3235389 10.8967324,64.9678221 C12.224408,62.403028 13.8658867,60.0574599 15.893025,57.9812695 C16.4399824,57.4213423 16.9567723,56.8324351 17.4873574,56.2568918" id="Stroke-3"></path>
                        <path d="M31.5857617,91.7685017 C31.8384718,91.5683454 32.0626819,91.3046735 32.3485915,91.1786937 C33.6838468,90.5900868 34.333283,89.5068701 34.6134319,88.1638856 C35.1196101,85.7373841 34.5371793,83.4502262 33.5434691,81.2633717 C32.2552085,78.4281488 30.4005862,76.0220683 27.6371473,74.4379351 C26.332666,73.6901642 24.8959931,73.280542 23.4068681,73.8439228 C22.5580835,74.1649537 21.7682697,74.6516054 20.9767883,75.1058237 C18.4683335,76.5450574 15.9730676,78.0071147 13.4693122,79.4544568 C12.3273415,80.1148376 11.7474878,81.1355899 11.4982644,82.3836766 C11.0227085,84.7649816 11.6198441,86.9926782 12.5729266,89.1353872 C13.7687138,91.8234584 15.4912963,94.1260822 18.022642,95.7402463 C19.0960915,96.4246519 20.2626207,96.9773717 21.578017,96.8500404 C22.2483734,96.7851735 22.9534452,96.5784104 23.5408787,96.2546766 C25.8654479,94.9734057 28.1560596,93.6313221 30.4442457,92.2863856 C31.0248574,91.9452339 31.5971314,91.73772 32.3546553,91.9368252 C32.1879,92.7572711 32.0205383,93.5799692 31.8531766,94.4029676 C31.7957218,94.4414073 31.738267,94.4798469 31.6809638,94.5181364 C31.1185436,93.9019011 30.556275,93.2856658 29.9940064,92.6694305" id="Stroke-5"></path>
                        <path d="M40.7573043,0.849771053 C41.1616101,2.10101099 41.7108415,3.32762554 41.9342936,4.60979737 C42.2309665,6.31180201 42.3363255,8.05479892 42.4010569,9.78488251 C42.4394106,10.8098392 42.2411234,11.8435048 42.1469824,12.8996937 L41.2380144,12.8996937 C41.7135702,12.2867618 41.7676899,11.7268345 41.7491952,11.1352246 C41.7234239,10.310124 41.7754213,9.48217043 41.7364612,8.6581209 C41.622158,6.23507291 41.1892005,3.87253731 40.3081261,1.59844288 C40.1818468,1.27260697 40.1303043,0.918692105 40.0049346,0.421529567 C39.1514505,0.303958359 38.1389426,0.118967647 37.1177936,0.0378840557 C36.2643096,-0.0298357585 35.4006686,0.0107060372 34.5418787,0.0266224458 C32.5358122,0.0635605263 30.6401074,0.606820588 28.7816952,1.30158684 C25.576658,2.49997229 22.726658,4.29432214 20.0635755,6.40429737 C17.3553176,8.5501596 14.7817005,10.646892 12.512767,13.2373626 C11.8029957,14.0478982 10.9440773,14.974275 10.2924718,15.7960296 C7.25901728,19.6215882 3.30224043,28.2256937 3.17186809,28.8557432" id="Stroke-7"></path>
                        <path d="M26.5831021,37.7878515 C26.6560197,38.7492927 27.634267,39.4442091 28.5546048,39.2174754 C31.0206128,38.6097989 32.2439904,36.785268 33.0877723,34.6293454 C33.4405356,33.7279661 33.619267,32.7834924 33.4200702,31.7786565 C33.1644798,30.4904785 32.4442484,29.9406116 31.1302165,30.1247014 C29.8859186,30.2987308 29.0069665,31.0214259 28.2536872,31.934367 C27.066541,33.3726998 26.2259426,34.9526286 26.3634399,36.8863221 C26.3834505,37.1654599 26.5073043,37.4375404 26.5831021,37.7127741" id="Stroke-9"></path>
                        <path d="M21.2772511,91.0928051 C21.793283,89.8645389 21.4358202,88.6871751 20.9561713,87.5718252 C20.4172484,86.3189336 19.642291,85.1957757 18.4700011,84.4149707 C17.7658388,83.9458872 16.9582883,83.5108887 16.1307271,83.6943779 C14.9766287,83.9502416 14.460142,85.0271519 14.6362963,86.4344026 C14.9258441,88.7448345 16.022791,90.6609599 18.0197617,91.9911813 C18.5887005,92.3703221 19.2231287,92.5141704 19.9133441,92.4482525 C20.5539878,92.3871395 21.1439984,91.8515373 21.2772511,91.1678825" id="Stroke-11"></path>
                        <path d="M24.309166,95.5974491 C24.5618761,94.8717509 24.8533947,94.1564135 25.0583521,93.417802 C25.3982298,92.1935899 25.2517883,90.9614197 24.9898309,89.7417122 C24.4034585,87.0111472 23.1244452,84.6296921 21.2783122,82.5330807 C19.8722617,80.9364847 18.2509452,79.6600187 16.1207218,79.1648082 C15.6306128,79.0509909 15.1123069,79.0553454 14.6070383,79.0053438" id="Stroke-13"></path>
                        <path d="M18.927517,57.1578206 C18.9776952,57.2830497 19.028025,57.4082788 19.1070064,57.6051317 C16.9067457,60.417381 14.5091074,63.164463 13.3738069,66.6961039 C14.2626128,67.2462711 14.7377138,68.3350435 15.9653362,68.5413562 C16.6710144,64.7493469 18.777892,61.6633655 20.9601128,58.6363949 C20.7113441,58.2255714 20.5016872,57.8794646 20.2918787,57.5332076" id="Stroke-15"></path>
                        <path d="M36.740017,13.4627741 C36.6884745,9.5563469 35.2339133,6.16359923 32.8559824,3.06065031 C31.709767,3.14879118 30.5486952,3.23798313 29.3876234,3.32732523" id="Stroke-17"></path>
                        <path d="M46.5937404,1.52546765 C46.6695383,2.72670604 46.8046101,3.92794443 46.8046101,5.12918282 C46.8046101,6.33042121 46.7145622,7.53646455 46.581916,8.73154659 C46.4312298,10.0884955 46.218541,11.4409398 45.9720463,12.7842246 C45.8823016,13.2735791 45.6176154,13.7315512 45.3931021,14.3046921 C45.1217457,14.2779646 44.7967245,14.2458314 44.4714,14.2135481" id="Stroke-19"></path>
                        <path d="M35.6788468,0.699616254 C35.8809239,0.799769505 36.0755729,0.920193653 36.2864426,0.996772601 C37.8439372,1.56195526 38.1186287,3.03061935 38.6246553,4.30723545 C39.5496926,6.64094133 39.8381793,9.09882523 39.9218601,11.5858392 C39.9336846,11.93585 39.9235277,12.2866116 39.9235277,12.6369228" id="Stroke-21"></path>
                        <path d="M50.0046447,3.85286703 C50.4847484,3.97794598 50.9818309,4.06038096 51.4401048,4.24011625 C51.9165702,4.42690882 52.3740862,4.67661625 52.1392644,5.3584692 C52.0611926,5.58490263 52.1269851,5.85983607 52.1269851,6.12020449 C52.5957191,6.30594598 53.0051793,6.46946455 53.4157005,6.6304305 C53.882009,6.8134692 54.2106686,7.36138406 54.0943947,7.83106827 C53.6224771,9.73518127 53.2215064,11.6618175 52.6321021,13.5298933 C52.122892,15.1445079 51.4308574,16.7070187 50.7415516,18.2584181 C50.5191606,18.7590342 50.0490622,19.1518392 49.7020596,19.5815822 L48.0907484,19.5815822 C48.5167324,20.6952803 49.7072138,20.4551828 50.3061686,21.046042 C50.3572564,21.2211224 50.4083441,21.3960528 50.4594319,21.5711333" id="Stroke-23"></path>
                        <path d="M49.3224638,2.72670604 C49.2719824,4.22825402 49.3098814,5.73911161 49.1502511,7.22909768 C48.9054239,9.51580511 48.4645835,11.7771364 47.7955915,13.9851627 C47.697509,14.3088964 47.4337324,14.580076 47.2853202,14.8935992 C47.227259,15.0168763 47.2759213,15.1895543 47.2759213,15.3397091" id="Stroke-25"></path>
                        <path d="M51.8237936,4.52856362 C51.6975144,5.35441502 51.5300011,6.17651254 51.4526872,7.00686858 C51.2292351,9.40574164 50.6214878,11.7145218 49.8498654,13.9872649 C49.6435436,14.5949413 49.3743096,15.1823469 49.1864824,15.7948283 C49.1346367,15.9642029 49.2719824,16.1906364 49.3224638,16.3907927" id="Stroke-27"></path>
                        <path d="M53.7945383,7.1562726 C53.6176261,7.85704505 53.4063016,8.55121068 53.2698654,9.25964102 C52.677884,12.3315079 51.6408176,15.2499166 50.2240037,18.0385915 C50.107275,18.2686286 49.8783654,18.4429584 49.7014532,18.6431147" id="Stroke-29"></path>
                        <path d="M44.2440064,1.07500325 C44.3451207,1.7006983 44.4119745,2.33405124 44.5538681,2.95043669 C44.9248229,4.56385 44.8312883,6.19963638 44.8538761,7.8319692 C44.8787378,9.61145372 44.7159239,11.3663128 44.2405197,13.0863361 C44.2176287,13.1690714 44.142892,13.237542 44.0924106,13.3126193" id="Stroke-31"></path>
                        <path d="M43.4102298,0.924848452 C43.6123069,1.95085619 43.8754771,2.9696565 44.0013016,4.00482368 C44.1648734,5.34885929 44.2969133,6.7058082 44.2976713,8.05720139 C44.2982777,9.38351873 44.1516846,10.7137401 43.9966021,12.0339011 C43.9479399,12.4492293 43.6629399,12.8370791 43.4860277,13.237542" id="Stroke-33"></path>
                        <path d="M16.0471979,36.736768 C15.2892191,36.8369212 14.5335144,36.9604986 13.7728069,37.0328732 C11.1668761,37.2801782 8.82411543,38.2668454 6.57397979,39.5173345 C6.09038936,39.7859615 5.62559681,40.0877726 5.03755691,40.4436395 L4.98070851,41.3164893" id="Stroke-35"></path>
                        <path d="M40.2267191,0.549461455 C40.8584186,0.574537307 41.4969399,0.549761765 42.1203016,0.634599226 C43.5396926,0.827848452 44.9575676,1.04437167 46.3622537,1.3206565 C46.7391207,1.39468282 47.0662644,1.71706517 47.4161473,1.92563019 C47.3609665,1.97172771 47.305634,2.01752492 47.2504532,2.06362245 C47.3095755,2.61003576 47.4065968,3.15524783 47.42115,3.70286238 C47.4940676,6.45865341 47.3354984,9.19702647 46.6648388,11.8849475 C46.4942936,12.5684522 46.288275,13.2459506 46.0451154,13.9066317 C45.9917537,14.0515311 45.7094824,14.1133949 45.5325702,14.2135481" id="Stroke-37"></path>
                        <path d="M16.8809745,83.9604522 C15.4993309,84.2316317 15.0912351,85.204785 15.2463176,86.5093299 C15.4679505,88.3744026 16.3402324,89.9929212 17.8807484,91.148963 C18.343267,91.4962711 18.9635968,91.6687989 19.5375383,91.8306658 C20.2285117,92.0254166 20.7114957,91.5525791 21.2014532,91.1678825" id="Stroke-39"></path>
                        <path d="M55.4620915,10.1593686 C55.4620915,10.3846008 55.5051447,10.619593 55.4557245,10.8335636 C54.6427165,14.3446333 53.2592537,17.6312215 51.4437431,20.7446813 C50.9910782,21.5208314 50.4309319,22.122802 49.3970489,21.9538779 C49.2289293,21.9263995 49.0444372,21.9962215 48.8443309,22.0246008 C48.7982457,22.1917231 48.7497351,22.3674042 48.7077431,22.5190605 C49.4120569,23.191754 50.6525649,23.1843964 50.9142191,24.3489971" id="Stroke-41"></path>
                        <path d="M47.427517,2.12608684 C47.8823043,2.22624009 48.3423973,2.30732368 48.7908176,2.43015031 C49.8259133,2.71379272 49.9957005,2.93001563 49.9253601,3.92764412 C49.8121181,5.53024628 49.7905915,7.15041656 49.5207511,8.72809303 C49.1876952,10.6754506 48.6604452,12.5918763 48.1686686,14.5096534 C48.069525,14.8961519 47.7539027,15.2282943 47.5357564,15.5892664 C47.0738441,15.62185 46.643009,15.6521813 46.0272271,15.6954259 C46.7858122,16.3972494 47.7072112,16.3604615 48.4298681,16.8245899 C48.6155729,16.6134723 48.7794479,16.42698 48.9434745,16.2406379" id="Stroke-43"></path>
                        <path d="M18.8517191,30.2801116 C18.0684239,30.1299568 17.290283,29.8969166 16.5007723,29.848867 C15.2925543,29.7755915 14.0763016,29.8159831 12.8636872,29.8332509 C11.4879559,29.8527711 10.2171287,30.3332664 8.91461809,30.7045992 C8.2444133,30.8957463 7.95956489,31.2454568 7.86102766,31.856737" id="Stroke-45"></path>
                        <path d="M32.1921447,1.82577724 C34.3564771,2.77175248 35.1781261,4.77842121 36.042525,6.71256517 C36.797017,8.40030511 37.1340144,10.2180791 37.4153761,12.0373546 C37.4412989,12.2047772 37.3717165,12.3866147 37.3464,12.5618454" id="Stroke-47"></path>
                        <path d="M55.1589,10.234446 C54.4285117,13.3282354 53.3535463,16.2952943 51.8218229,19.092528 C51.5574399,19.5752757 51.2553096,20.0382029 51.0029027,20.5265063 C50.9619718,20.6053376 51.0911314,20.7703577 51.1416128,20.8954367" id="Stroke-49"></path>
                        <path d="M36.5126234,1.75069985 C37.8783495,3.99896765 38.7139452,6.42591966 39.0134984,9.03320759 C39.1170383,9.93383607 39.2421048,10.8332633 39.3045622,11.7368949 C39.3301819,12.1071766 39.2160303,12.486768 39.1655489,12.862155" id="Stroke-51"></path>
                        <path d="M8.16421915,30.9558082 C7.79568989,30.1005265 7.42731223,29.2452447 7.01861011,28.2971673 C7.11684415,28.0860497 7.25434149,27.7903949 7.39911543,27.4789738 C8.59414468,27.5465435 9.73020319,27.4987943 10.911892,27.1079413 C12.010658,26.7445667 13.2696606,26.8678438 14.4549878,26.7474197 C15.9844372,26.5920094 17.4280835,26.9507293 18.8486872,27.4355791 C19.2607245,27.5759738 19.6381979,27.8165218 20.1663574,28.0780915 C20.3137085,27.8813887 20.5373122,27.5827308 20.7233202,27.3345249 C20.4299824,25.3638933 18.7459053,25.0120807 17.3277271,24.4438949 C15.3490995,23.6510776 13.250408,23.4220915 11.1204878,23.5265992 C10.5886899,23.5528763 10.059166,23.6232989 9.52858085,23.6733005" id="Stroke-53"></path>
                        <path d="M16.8051766,33.5084398 C15.2079638,33.3856132 13.6178761,33.3590358 12.0285463,33.6513872 C10.2197059,33.9842803 8.54851436,34.655172 6.95008883,35.5332772 C6.78287872,35.6253221 6.59778032,35.6856844 6.42086809,35.7607618" id="Stroke-55"></path>
                        <path d="M15.1376234,40.0401735 C13.6974638,40.4406364 12.2432059,40.7977045 10.8203282,41.2514723 C8.66509149,41.9390311 6.79682553,43.1642943 4.98025372,44.4691395 C4.73072713,44.6484243 4.47543989,44.8200512 4.22272979,44.9952819" id="Stroke-57"></path>
                        <path d="M52.202783,6.25534381 C51.9753894,7.43150635 51.7533016,8.60887012 51.5193894,9.78383142 C51.0518681,12.133754 50.3299691,14.4085992 49.3896207,16.6125714 C49.1372138,17.2040311 48.6813654,17.5716101 47.957041,17.4481828 C47.7866473,17.4192029 47.6026101,17.4692045 47.4247883,17.4827184 C47.3940144,17.5378252 47.363392,17.592932 47.3326181,17.6478887 C47.5410622,17.8045002 47.7313149,17.9980497 47.961892,18.1097649 C48.4291101,18.3360481 48.9254346,18.5031704 49.3937138,18.7276519 C49.5249957,18.7905667 49.6003388,18.9685002 49.7014532,19.0935791" id="Stroke-59"></path>
                        <path d="M26.8104957,37.8629289 C27.4475011,38.604994 28.4800197,38.8583051 29.3069745,38.3802122 C31.3469984,37.2008964 33.0817085,34.7251441 32.7985277,31.9318144 C32.7231846,31.1897494 32.180775,30.5960373 31.3583681,30.355189" id="Stroke-61"></path>
                        <path d="M14.0006553,43.5688113 C12.1013122,43.9269305 10.3720596,44.7350636 8.78636809,45.7699305 C7.14867926,46.8388825 5.63757287,48.0985311 4.07113404,49.2746937" id="Stroke-63"></path>
                        <path d="M12.1057085,19.4689661 C15.7203574,19.4099553 18.9739053,20.3930187 21.7250649,22.7801797 C22.0887431,23.095655 22.3587351,23.5169893 22.7431819,23.9736101 C22.4647005,23.9736101 22.3282644,24.0164042 22.2677777,23.9673036 C20.9109957,22.8624646 19.3119638,22.21785 17.6318282,21.9092819 C16.3282564,21.6699351 14.9605596,21.7319491 13.6218176,21.7390063 C13.0136154,21.7423098 12.6500888,22.1951766 12.4846979,22.7723717" id="Stroke-65"></path>
                        <path d="M15.9714,53.7793376 C14.758634,54.9305745 13.521916,56.058237 12.3387112,57.2384537 C10.5532165,59.0195899 9.09031755,61.0460791 7.86102766,63.2390899" id="Stroke-67"></path>
                        <path d="M15.1376234,52.5780992 C15.5663362,53.1357741 15.9950489,53.6932989 16.35615,54.1629831 C14.5609532,56.0134909 12.7492324,57.7105404 11.1514133,59.5864243 C10.0300596,60.9029816 9.20007287,62.4632401 8.24001702,63.9147865" id="Stroke-69"></path>
                        <path d="M20.2918787,58.4341364 C20.0140037,58.8846008 19.7687218,59.3589398 19.4527963,59.7816255 C17.5590622,62.314737 16.107533,65.0609181 15.2892191,68.1191209" id="Stroke-71"></path>
                        <path d="M56.2200702,13.6880063 C55.0921979,16.8526689 53.7554266,19.9146255 51.8391048,22.7075048 C51.5436447,23.1379986 51.2166527,23.4549754 50.7626234,23.6733005" id="Stroke-73"></path>
                        <path d="M13.621666,44.4697401 C12.4593814,44.9202045 11.2479798,45.276672 10.1458787,45.842155 C8.27170053,46.8038964 6.50985479,47.9805094 5.00268989,49.4469212 C4.16239468,50.2646642 3.40759947,50.5392974 2.38781489,49.7864212 C2.35704096,49.8266627 2.32641862,49.8666039 2.29594787,49.9068454 C2.38220585,50.1966441 2.4269266,50.5076147 2.56336277,50.7721875 C2.91809681,51.4601967 3.3386234,52.115172 3.68304894,52.8076859 C3.90801702,53.259802 4.04581755,53.7542618 4.22272979,54.229802" id="Stroke-75"></path>
                        <path d="M20.5192723,26.976706 C19.8370915,26.7514738 19.1556686,26.5238392 18.4725782,26.3014599 C16.5600463,25.678768 14.6102218,25.6077447 12.6365968,25.9277246 C12.1037378,26.0140636 11.5755782,26.2050605 11.0443867,26.2077633 C10.2043947,26.2119676 10.1443628,26.7678407 10.059166,27.352093" id="Stroke-77"></path>
                        <path d="M14.3796447,50.2506998 C14.7475676,50.8421596 15.1153388,51.4337695 15.5266181,52.0953515 C14.8708149,52.5974692 14.2501819,53.0809676 13.620908,53.5532045 C10.8752059,55.6146797 8.55291064,58.0683593 6.64447181,60.9091379 C6.54745053,61.0535868 6.3955516,61.1619986 6.26927234,61.2870776" id="Stroke-79"></path>
                        <path d="M15.5924106,34.4093686 C15.5316207,34.5895543 15.4708309,34.7695899 15.4147404,34.9362618 C15.6965569,35.8061085 16.6919346,36.5493748 15.8166207,37.7503128 L14.312033,37.7503128 C14.5867245,38.2857649 14.802142,38.6679088 14.9831473,39.0655187 C15.651533,40.5331317 15.3483415,40.9311921 13.8448149,41.2194893 C12.1141979,41.5516317 10.4675649,42.1037509 8.93478032,42.9162385 C7.58618457,43.6311255 6.32581755,44.5170389 5.06257021,45.379528 C4.06507021,46.0606302 3.71579362,46.1379599 2.37644521,45.6613686 C2.38599574,45.8223345 2.3946367,45.9718887 2.40358085,46.1214429" id="Stroke-81"></path>
                        <path d="M13.9248574,41.3164893 C14.0764532,41.6418748 14.248666,41.9594522 14.374642,42.2942974 C14.5529186,42.7677354 14.6969346,43.2537865 14.8788495,43.8053051 C14.3844957,44.0512587 14.0406766,44.222285 13.6639612,44.4096782 C13.9742777,44.9703562 14.2838362,45.5299831 14.6563069,46.2028268 C10.5306287,47.8273515 7.11926968,50.3492014 4.14693191,53.479028" id="Stroke-83"></path>
                        <path d="M14.6070383,48.9743841 C13.9735197,49.7641983 12.979658,50.0091008 12.173775,50.5394475 C9.43868457,52.3399537 7.04241064,54.4889692 5.05347447,57.0804909 C5.00147713,57.148511 4.90491064,57.1828964 4.82911277,57.232898" id="Stroke-85"></path>
                        <path d="M13.8490596,46.7220621 L13.8490596,47.336946 C10.0405197,48.97048 6.93129096,51.5041921 4.17785745,54.4326611 C3.71746117,54.2047262 3.3636367,54.0294955 3.00996383,53.854415" id="Stroke-87"></path>
                        <path d="M13.8490596,47.4728361 C14.1017697,47.8732989 14.3787351,48.2611488 14.597791,48.6787293 C14.7281633,48.9272354 14.767275,49.2224398 14.865509,49.5586364 C13.1677883,50.7613763 11.3674372,51.8609599 9.78159415,53.2081488 C8.06446915,54.6669026 6.54729894,56.3567447 4.97267394,57.9165528 C4.66781489,56.7989506 3.83979894,55.7812014 3.16959415,54.6754615 C3.03816064,54.4583376 3.02936809,54.171542 2.92673777,53.9326457 C2.86594787,53.7905992 2.73208883,53.6791844 2.63097447,53.5541054" id="Stroke-89"></path>
                        <path d="M16.7293787,31.856737 C16.855658,32.1319707 16.9334266,32.4457943 17.1179186,32.6750807 C17.5978707,33.271946 17.433541,33.800641 17.0324186,34.41072 C16.5497378,34.3850435 16.0662989,34.3936023 15.5933202,34.3281348 C14.0268814,34.1111611 12.5441234,34.4934553 11.0413548,34.846319 C9.40487872,35.2307153 7.87800638,35.8226255 6.40510213,36.6336116 C5.68759947,37.0285187 4.80379628,36.8516364 3.92605691,36.7143949 C3.86936011,36.904641 3.79280426,37.1621565 3.71488404,37.4237262 C4.13146915,38.3591906 4.55608883,39.3122231 4.98070851,40.2654057" id="Stroke-91"></path>
                        <path d="M14.3796447,37.9380063 C12.2850463,37.9599289 10.3326447,38.553641 8.47211011,39.4490141 C7.38516862,39.9723036 6.29686277,40.5202184 5.30027234,41.1902091 C4.59232021,41.6660497 3.9193867,41.3154382 3.23675106,41.3852602 C3.11699043,41.3974228 2.98843723,41.3265497 2.70995585,41.2538748 C2.82441064,41.7366224 2.86443191,42.1495481 3.02133351,42.5129228 C3.30982021,43.180511 3.71154894,43.8017014 3.97896383,44.4761967 C4.1437484,44.8921255 4.14693191,45.3706689 4.22272979,45.8211333" id="Stroke-93"></path>
                        <path d="M18.1695383,58.1338268 C16.0056606,60.1289336 14.511533,62.5851658 13.2501048,65.1945559 C12.9228096,65.8719042 12.686775,66.5924971 12.4089,67.2932695" id="Stroke-95"></path>
                        <path d="M24.2333681,20.5951271 C24.0564559,20.5200497 23.8417963,20.4856642 23.7085436,20.3637385 C21.9880835,18.7905667 19.8851473,18.0623159 17.6366793,17.6800218 C17.1218601,17.5924816 16.5789957,17.6671085 15.8722564,17.6671085 C15.758408,17.8523995 15.5617883,18.1726797 15.365017,18.4929599" id="Stroke-97"></path>
                        <path d="M55.9926766,20.4449723 C56.3207298,20.6955807 56.6489346,20.9463392 56.9689532,21.1907912 C57.0937165,22.6930899 56.1327511,23.7985296 55.4237378,24.9258918 C54.4667138,26.4478608 53.2521287,27.8130683 52.1230436,29.2258748 C51.0874931,30.5217107 49.7052431,30.878028 48.1096979,30.5804212" id="Stroke-99"></path>
                        <path d="M14.4554426,52.2027122 C11.1097245,54.3443701 8.44224574,57.1578206 6.19347447,60.3861488" id="Stroke-101"></path>
                        <path d="M24.0817723,20.2948175 C21.9724691,17.8929413 19.4091367,16.2568546 16.1984904,15.716898 C15.821775,15.6535327 15.4408149,15.6149429 15.0618255,15.5649413" id="Stroke-103"></path>
                        <path d="M16.5019851,56.6322788 C13.8037324,58.9649336 11.7808388,61.7976039 10.2092457,64.9651193 C10.1195011,65.1459057 10.0086846,65.3161813 9.90757021,65.4914119" id="Stroke-105"></path>
                        <path d="M56.8264532,17.5920311 C56.2958681,18.6431147 55.7771074,19.7003546 55.2319691,20.7439305 C54.2804027,22.5659088 53.1461633,24.2701658 51.8245516,25.8511457 C51.6259612,26.0886906 51.247275,26.2663237 51.5206021,26.6763964" id="Stroke-107"></path>
                        <path d="M25.9767191,6.6307308 C26.0179532,6.94380356 26.0594904,7.25687632 26.6300968,6.98854969 C26.0614612,6.56721533 25.5580117,6.19438096 24.8972059,5.70472616 C26.3711713,5.2209274 27.7732803,5.21957601 29.2370888,5.19570139 C32.001892,7.58751718 33.6456447,10.692268 34.2386872,14.3637029" id="Stroke-109"></path>
                        <path d="M14.3796447,18.7181921 C15.3903335,18.6681906 16.4286128,18.4467122 17.4062537,18.6015218 C19.9483628,19.0034862 22.1833388,20.1266441 24.0817723,21.8714429" id="Stroke-111"></path>
                        <path d="M27.1136872,17.7421859 C25.2487564,14.7047045 22.7474266,12.4474274 19.2307085,11.4356844" id="Stroke-113"></path>
                        <path d="M26.3557085,72.9991519 C26.4061899,72.6237649 26.3758707,72.212641 26.5251926,71.8809491 C26.7830569,71.308559 27.1524957,70.78572 27.4720596,70.2472649 C30.7742697,70.8962339 34.0011367,71.259158 37.2702989,71.1169615 C37.4995117,71.1069011 37.7246314,71.0186101 37.9529346,70.9728128 C38.6073734,70.8412772 38.9219346,71.109754 38.9393681,71.7979135 C38.9593787,72.5737633 38.9886367,73.349463 39.0139532,74.1253128" id="Stroke-115"></path>
                        <path d="M21.9594319,59.9356844 C20.5216979,62.0677324 19.3666899,64.3286132 18.7789532,66.8435559 C18.6572218,67.3642927 18.5738441,67.8938887 18.4727298,68.4194305" id="Stroke-117"></path>
                        <path d="M24.7639532,19.9194305 C22.7792617,17.6454862 20.51715,15.8026364 17.4120144,15.2616286 C17.1051846,15.2083237 16.8051766,15.1144769 16.5019851,15.0393995" id="Stroke-119"></path>
                        <path d="M24.309166,60.0858392 C23.0574399,62.0747896 22.2985516,64.24798 21.8939426,66.5442974 C21.7990436,67.0829026 21.8331527,67.6435807 21.8078362,68.1941983" id="Stroke-121"></path>
                        <path d="M55.1589,12.486768 C55.4116101,12.6369228 55.6546181,12.8070481 55.9188495,12.9333283 C56.5319027,13.22598 56.6357457,13.711881 56.4441287,14.2875745 C55.3580968,17.5490868 53.8612404,20.6074398 51.9121739,23.4566271 C51.1604106,24.5553098 50.1620011,24.8117741 48.9055755,24.6186751 L48.9055755,25.3493283 C49.5281793,25.7446859 50.1891367,26.1642184 50.8303867,26.5712881 C50.9818309,26.5073221 51.1375197,26.4418546 51.2932085,26.3760868" id="Stroke-123"></path>
                        <path d="M30.827783,5.27933762 C30.7015037,5.05410542 30.6050888,4.80454814 30.4428814,4.60844598 C30.0463069,4.12945217 29.6191101,3.67508375 29.196916,3.2028469 C29.0012059,3.34219056 28.8534,3.44744907 28.661783,3.58363947 C32.1777431,5.96254195 33.9474718,9.42826486 34.8688707,13.4277881 C34.7213681,13.51698 34.5179266,13.640107 34.3144851,13.7630837" id="Stroke-125"></path>
                        <path d="M16.5019851,30.8807308 C17.1580915,31.0107649 17.8143495,31.1407989 18.4648468,31.2697819 C19.1991766,29.9921147 18.8471713,29.0267695 17.4888734,28.4748005 C16.1739319,27.9400992 14.8198787,27.6058546 13.3942723,27.5767246 C12.3331021,27.5549522 11.2719319,27.5273237 10.2107617,27.5022478" id="Stroke-127"></path>
                        <path d="M13.015283,21.8714429 C12.6784372,21.1131611 12.3418947,20.3548794 11.9785197,19.5368361 C12.0908521,19.1712091 12.2762537,18.887867 12.8623229,18.8482262 C15.4226234,18.6750977 17.7843335,19.2989909 19.9785303,20.5379181 C20.8495995,21.0298252 21.605759,21.7212881 22.4142191,22.3219073" id="Stroke-129"></path>
                        <path d="M15.8956021,17.4418763 C15.6682085,17.0164878 15.4415729,16.5906488 15.2132697,16.1657107 C14.9178096,15.6156937 14.958134,15.3733438 15.3434904,14.9267834 C16.1822697,14.8306844 16.946767,14.8569615 17.6297059,14.6362339 C18.4798548,14.3614506 19.240259,14.6282757 19.9826234,14.8356395 C22.5867351,15.5632896 24.7005862,17.0493717 26.3494931,19.1733113 C26.4969957,19.3632571 26.5577856,19.6191209 26.6589,19.8443531" id="Stroke-131"></path>
                        <path d="M56.8264532,21.7963655 C56.3463495,22.5722153 55.8695809,23.3500172 55.3856872,24.1233144 C54.2696394,25.9067029 53.0676367,27.6270265 51.5139319,29.0718159 C51.248791,29.3185203 50.896634,29.4731797 50.6089053,29.6550172 C49.9305144,29.176624 49.3253441,28.7497339 48.7124426,28.3175884 C48.7262378,28.0746379 48.740791,27.8211766 48.7562537,27.5496967 C48.9154293,27.531528 49.0491367,27.48498 49.1699585,27.5070528 C50.7423096,27.7944491 51.6520356,26.9229506 52.5212856,25.7868794 C54.3178468,23.4386085 55.7358734,20.8885296 56.8866367,18.1861937 C57.0262564,17.8582556 56.953642,17.4418763 56.9832032,17.009881 C56.6175543,16.787802 56.2294691,16.5516085 55.8410809,16.3157153" id="Stroke-133"></path>
                        <path d="M31.5099638,15.0393995 C30.3319133,11.9990652 28.4724399,9.50694598 25.5977298,7.8319692" id="Stroke-135"></path>
                        <path d="M22.6416128,24.0486875 C22.9399532,24.5493036 22.3103761,24.7215311 22.2633814,25.0933144 C21.2696713,25.165689 20.3579745,25.0930141 19.440517,24.5272308 C17.9342617,23.5983732 16.2617059,23.0216286 14.4558973,22.9141178 C14.2248654,22.9004537 14.0006553,22.7723717 13.8498176,22.7225203 C12.7393787,22.8184692 11.7009479,22.8944475 10.6661553,23.0028593 C10.0678069,23.0654738 9.3844133,23.0459537 9.35515532,23.9830698 C9.68821117,24.6958546 10.0631074,25.4982819 10.4381553,26.3010094" id="Stroke-137"></path>
                        <path d="M21.6562404,8.43258839 C21.7825197,8.30750944 21.9089505,8.18228034 22.0179479,8.0744692 C25.3770064,9.50214102 27.6708016,11.9854011 29.231025,15.1919568 C29.2705915,15.2731906 29.2360277,15.3897107 29.2360277,15.4898639" id="Stroke-139"></path>
                        <path d="M21.8078362,24.7243841 C20.3816234,23.7425218 18.791384,23.1090187 17.1033654,22.7995497 C16.1460383,22.6240187 15.1376234,22.7223701 14.1522511,22.6972943" id="Stroke-141"></path>
                        <path d="M29.0844319,17.5920311 C28.8214133,16.3433438 27.9591367,15.4554785 27.1881207,14.5149088 C25.8342191,12.8630559 24.1064824,11.734042 22.1110277,10.98522" id="Stroke-143"></path>
                        <path d="M42.5764532,77.729028 C42.866759,77.8354878 42.7908096,78.0556147 42.6455809,78.1712339 C42.055267,78.6415187 41.4745037,79.139432 40.8258255,79.5188732 C39.4096181,80.3471271 37.8604612,80.7552478 36.2110995,80.5680048 C35.3680755,80.4723562 34.5418787,80.231658 33.7081021,80.0564274" id="Stroke-145"></path>
                        <path d="M26.6589,59.9356844 C25.967017,61.3445868 25.5320888,62.8446333 25.2470888,64.3705063 C25.1080755,65.1161751 25.2705862,65.9168005 25.2936287,66.6926503 C25.299541,66.8926565 25.2945383,67.0931132 25.2945383,67.2932695" id="Stroke-147"></path>
                        <path d="M39.3929426,83.8102974 C37.943384,84.3175203 36.4750277,84.280432 34.9433043,83.8690079 C35.060033,84.5624228 35.1603894,85.1594382 35.2719638,85.8237231 C35.6251819,85.8506008 36.0308521,85.8815327 36.4368255,85.9124646" id="Stroke-149"></path>
                        <path d="M28.3264532,74.2754676 C28.6581447,74.5470977 28.989533,74.8185776 29.4015702,75.1559754 C29.8502936,74.2012912 30.3643548,73.2763376 31.4261314,73.0524568 C33.1919186,73.4709382 34.8728122,73.9988825 36.5943335,74.233124 C37.8274133,74.4008469 39.1150676,74.1777169 40.3781633,74.1230605 C40.6063149,74.1133005 40.8331021,74.0753113 41.0604957,74.0502354" id="Stroke-151"></path>
                        <path d="M22.490017,59.9356844 C22.3376633,59.8880853 22.1853096,59.8403361 22.0325011,59.7925868 C22.3184106,59.0269475 22.3184106,59.0269475 23.0086261,59.0367076 C21.679283,61.604655 19.974892,63.9590822 19.4970622,66.8699831 C20.5661154,67.3016782 21.2576952,68.5288933 22.6259984,68.2975048 C22.5509585,66.3755234 22.8947777,64.6271209 23.5574027,62.9411828 C23.9268415,62.0018144 24.3596473,61.0869212 24.7639532,60.1609166" id="Stroke-153"></path>
                        <path d="M18.321134,11.8861488 C19.9241074,12.2214444 21.3469851,12.9818283 22.6267564,13.9327587 C24.558541,15.3679382 26.0942059,17.190367 27.3765543,19.2066457 C26.7440968,20.2138841 25.8216367,20.0377525 24.8455117,19.9102711 C24.6776952,20.053819 24.4744053,20.2276983 24.1913761,20.4695977 C24.4775888,20.8636039 24.7356048,21.2185698 25.0187856,21.608672 C24.8373255,21.8161859 24.6490436,22.0313577 24.4607617,22.2468299" id="Stroke-155"></path>
                        <path d="M54.7041128,29.4542602 L55.6400649,30.3813159 C54.6519638,32.8336441 52.7376128,34.5041163 50.6880383,36.0625729 C49.8348574,36.7112416 48.8857165,37.1202633 47.8098415,36.9418794 C47.1279638,36.8288128 46.7473069,37.3180172 46.2147511,37.487542" id="Stroke-157"></path>
                        <path d="M56.0684745,26.4511642 C54.6939559,28.5554336 53.2143814,30.5720125 51.2166527,32.1561457 C51.0195782,32.3124568 50.8131048,32.4573562 50.6110277,32.607511" id="Stroke-159"></path>
                        <path d="M29.2360277,59.1849104 C28.9581527,60.3861488 28.5870463,61.5761255 28.4371181,62.7928299 C28.3476766,63.5206302 28.5996287,64.2909243 28.7086261,65.0404971 C28.7381872,65.2438067 28.8065569,65.4414104 28.8570383,65.6415667" id="Stroke-161"></path>
                        <path d="M41.9700702,48.5239197 C41.8125622,48.7195714 41.6549027,48.9150729 41.5512112,49.0437556 C40.580392,49.1667324 39.6456527,48.106189 38.7137936,49.029641 C39.3216926,50.0334259 39.8891154,50.9670884 40.4538096,51.9025528 C41.2164878,53.1665559 41.9879585,53.4697184 43.487392,53.1090466 C43.6542989,53.0689553 43.8397005,53.103641 44.0166128,53.103641" id="Stroke-163"></path>
                        <path d="M36.6642191,71.0471395 C36.5126234,70.5466735 36.3716394,70.0426039 36.2060968,69.5467927 C36.0751181,69.1547385 35.7634372,69.0563872 35.3755037,69.0934754 C33.8124,69.2431797 32.2553601,69.4416844 30.6743681,69.260898 C30.0538867,69.1901751 29.4126367,69.2913794 28.7812404,69.3211101 C27.2399665,69.393785 25.6988441,69.4705141 24.1575702,69.5455915" id="Stroke-165"></path>
                        <path d="M55.2346979,31.0308856 C54.5778335,31.7565837 53.9793335,32.5472989 53.2500064,33.1926642 C52.1926261,34.1287293 51.0633894,34.9912184 49.916416,35.8190218 C49.5128681,36.110172 48.9883468,36.1158779 48.5608468,35.6892881 C48.1454745,35.2753113 47.6994798,34.8913655 47.2942644,34.5191317 C47.3424718,34.2622169 47.3850702,34.0354831 47.427517,33.8087494 C48.1350144,33.8087494 48.8663122,33.9218159 49.5439452,33.7809707 C50.4594319,33.5908748 51.1326686,32.9250884 51.8336473,32.318463 C53.626267,30.7675141 54.9936606,28.8920807 56.2088521,26.8948717 C56.3924346,26.5932107 56.4253309,26.201607 56.5611606,25.7382293 C56.2960197,25.4982819 55.9926766,25.2239491 55.6894851,24.9496163" id="Stroke-167"></path>
                        <path d="M10.8171447,31.3311952 C12.7487777,31.3375017 14.6908707,31.2151255 16.6323574,31.8343639 C16.8123016,31.5142339 16.98315,31.2101704 17.1808309,30.8583577 C14.9197803,30.5131519 12.7439266,30.4985868 10.5473043,31.0999568 C10.6231021,31.1945543 10.6794957,31.2649769 10.7928894,31.4062726 L10.3623574,31.4062726" id="Stroke-169"></path>
                        <path d="M25.9009213,73.2994615 L26.3685941,73.2994615 C26.3669266,73.2494599 26.365259,73.1993082 26.3635915,73.1493067 L24.893416,73.1493067 C25.0460729,71.7609754 24.669509,70.5839119 23.8522564,69.4368794 C23.1371793,70.7070389 23.3051473,71.9234429 23.624408,73.1937525 C23.2651261,73.3421054 22.8887138,73.4975156 22.4474186,73.6798036 C22.225634,72.6079986 21.7714532,71.7181813 21.0498574,70.9720621" id="Stroke-171"></path>
                        <path d="M53.7187404,35.6856844 C53.2639532,36.0861472 52.8029505,36.4798531 52.3555915,36.8882741 C51.2774426,37.8723887 50.1248601,38.7354785 48.7175968,39.2183763 C48.1845862,39.4012649 47.7449585,39.3644769 47.3458069,38.919268 C46.9431686,38.470155 46.4926261,38.0630853 46.0623973,37.6373964 C46.1125755,37.4621658 46.1636633,37.2872354 46.2147511,37.112155" id="Stroke-173"></path>
                        <path d="M29.2360277,56.3319692 C29.5392191,56.357045 29.8757617,56.307494 30.1386287,56.4226627 C30.66315,56.6526998 31.1473468,56.9731302 31.8196739,57.3528717 C31.7966314,57.7206008 31.8099718,58.1973423 31.7294745,58.6580172 C31.4556926,60.2286364 31.4159745,61.7578128 32.3393441,63.1668655 C32.373908,63.21972 32.3437404,63.3141673 32.3437404,63.3892447" id="Stroke-175"></path>
                        <path d="M22.490017,10.234446 C22.31265,10.4592277 22.1354346,10.6841596 22.0155223,10.8362664 C20.7243814,11.1985899 19.3783628,10.9972324 18.0685755,11.6260807 C18.4904665,12.368446 18.7880489,12.9773237 19.1756793,13.5234367 C19.2948335,13.6913098 19.6623016,13.6820002 19.9125862,13.7641348 C21.3824585,14.2459816 22.8524824,14.7240745 24.0873814,15.708189 C24.2747537,15.857593 24.5365596,15.9152525 24.7639532,16.0154057" id="Stroke-177"></path>
                        <path d="M49.4740596,44.8451271 C49.0950702,45.0203577 48.7104718,45.1846271 48.3383043,45.3729212 C47.5504612,45.7715822 46.7554931,46.0697896 45.8357617,46.0666364 C45.1199266,46.0642339 44.5946473,45.8534166 44.1630543,45.2994955 C43.7363122,44.7521813 43.2677298,44.23685 42.7999053,43.686833 C42.9381606,43.4823221 43.0902112,43.2573902 43.2130037,43.0757029 C43.9865968,43.1979289 44.720775,43.3139986 45.5057378,43.4380265 C45.6644585,43.1345636 45.825908,42.8262958 45.9873574,42.5177277" id="Stroke-179"></path>
                        <path d="M32.2679426,78.104415 C33.2193574,77.1030327 34.3572351,76.9932695 35.6024426,77.4305203 C36.2881101,77.6710683 36.9504319,78.0027602 37.653533,78.1623748 C38.7189479,78.4039738 39.8105888,78.533107 40.9089,78.3296472" id="Stroke-181"></path>
                        <path d="M41.4394851,79.3807308 C41.4819319,79.6323902 41.5243787,79.8840497 41.5563654,80.0736952 C42.2694718,80.2818098 42.9374027,80.4767107 43.7179691,80.7043454 C42.9442245,81.6534738 42.2174745,82.3760187 41.2092112,82.7515559 C41.0016766,82.8290358 40.7579106,82.8162726 40.529759,82.8329398 C39.7974,82.886545 39.0648894,82.9416519 38.3316207,82.9811426 C38.0058415,82.9987107 37.6473176,83.0251379 37.6495915,82.5339816" id="Stroke-183"></path>
                        <path d="M40.6057085,87.0386255 C40.5045941,87.2889336 40.4403176,87.5623655 40.2964532,87.7856457 C39.4593415,89.0844847 38.6032803,90.3714615 37.7005277,91.7431255 C36.3857378,91.9468856 35.3509452,91.1797447 34.2753734,90.3444336 C33.9981048,90.7102107 33.7394824,91.0518128 33.4807085,91.3931147" id="Stroke-185"></path>
                        <path d="M41.8942723,82.609059 C42.3249559,82.9581689 42.7554878,83.3071286 43.281525,83.7337184 C42.5659931,84.6358485 41.8859346,85.5671085 41.1258335,86.4288469 C40.4577511,87.1860776 39.511642,87.5137153 38.4486527,87.5829367 C38.5032271,87.6862432 38.55765,87.7896998 38.6120729,87.8930063 C38.7965649,87.7833933 38.9810569,87.6737803 39.1655489,87.5641673" id="Stroke-187"></path>
                        <path d="M25.9009213,5.57964721 C27.5736287,6.7652695 28.9736154,8.20915805 30.0617697,9.93909149 C30.1963867,10.1530621 30.2214,10.4346023 30.2971979,10.6849104" id="Stroke-189"></path>
                        <path d="M29.2360277,56.7073562 C29.4381048,57.0327416 29.6542803,57.3504692 29.8393787,57.6850141 C30.177134,58.295093 30.0378176,58.7123732 29.3497245,59.1329568 L29.3497245,58.406658 C28.4265064,58.0357757 27.7754027,57.1301921 26.593259,57.1546673 C26.9617883,57.8324661 27.2827165,58.4231751 27.5484638,58.9123794 C27.0779106,60.3745868 26.5561181,61.7120156 26.2285197,63.094641 C25.9145649,64.4197571 25.9559505,65.7917215 26.2341287,67.1675899 C25.9888468,67.2705961 25.7600888,67.366545 25.4838814,67.4824646 C24.619634,66.9732896 23.7443202,66.457658 22.8690064,65.9418763" id="Stroke-191"></path>
                        <path d="M51.2932085,38.6887803 C51.6038282,39.0635667 51.9145995,39.4385033 52.2690303,39.8664444 C50.820533,40.8741333 49.6435436,42.0680141 47.9573441,42.4394971 C47.6336872,42.5109707 47.3027537,42.5611224 46.9724266,42.5889011 C46.3743814,42.6389026 46.2018654,42.9968717 46.4952032,43.5275187 C48.3282989,43.3602463 49.8227298,42.505415 51.1343362,41.3086813 C51.4608734,41.010624 51.6975144,40.6157169 51.9753894,40.2654057" id="Stroke-193"></path>
                        <path d="M40.4541128,76.4527122 C39.036541,77.1096395 37.5243734,77.3048407 35.9820383,77.353641" id="Stroke-195"></path>
                        <path d="M41.5910809,46.1214429 C42.1809399,46.5217556 43.3411021,46.7732649 44.0686101,46.6373748 C45.0918814,47.2076627 46.1362245,47.0094584 47.2037617,46.5809166 C48.3329984,46.1274491 49.4328255,45.6750327 49.8334931,44.3379042 C49.5345463,43.9372912 49.2011872,43.4902803 48.8676766,43.0432695" id="Stroke-197"></path>
                        <path d="M45.9873574,47.0974491 C46.3671048,47.6474661 46.7470037,48.1974831 47.1258415,48.7462989 C46.3372404,50.161658 44.6742351,50.8316488 43.0303309,50.4040079 C42.9358867,50.3793825 42.8291633,50.4008546 42.7280489,50.4008546" id="Stroke-199"></path>
                        <path d="M44.1682085,45.5208237 C43.9855356,45.7921534 43.8030144,46.0634831 43.63065,46.3191967 C42.8829798,46.2005745 42.1243947,46.0801503 41.2977431,45.948915 C41.1625197,46.1364584 41.0156234,46.3399181 40.8779745,46.5307649 C40.9301234,46.6241611 40.9521048,46.6770156 40.9856074,46.7214615 C41.3632324,47.2229785 41.7651128,47.7079785 42.1175729,48.226463 C43.3229106,49.9987401 44.6263309,49.8301163 46.2156606,49.2772463 C46.4113707,49.2089259 46.6190569,49.1745404 46.821134,49.1245389" id="Stroke-201"></path>
                        <path d="M21.883634,8.88305279 C22.100416,9.27570759 22.3170463,9.66821223 22.5862803,10.1560652 C26.0875356,11.226819 28.3620782,13.7363562 29.8637856,17.0797029 C29.4659984,17.6478887 28.9006979,17.7535977 28.2506553,17.7552494 C27.7635782,17.7566008 27.2055543,17.5430807 26.8104957,18.0424955" id="Stroke-203"></path>
                        <path d="M38.1801766,57.1578206 L34.9487617,56.2683036 C34.5483973,56.2501348 34.4830596,56.5699646 34.4492537,57.0063144 C34.3478362,58.3123608 34.7612378,59.4343175 35.5272511,60.4612262" id="Stroke-205"></path>
                        <path d="M27.9474638,70.4465203 C27.9979452,70.8219073 28.0820809,71.1963933 28.0922378,71.5728314 C28.1143707,72.3982324 28.0990596,73.2245342 28.0990596,74.1095466 C28.5492989,74.1745636 29.1579559,74.2625543 29.7666128,74.350545" id="Stroke-207"></path>
                        <path d="M37.6495915,54.1547246 C37.7507059,54.4299584 37.8492431,54.7062432 37.9532378,54.9804259 C38.4137856,56.1951782 39.3806633,56.7363361 40.6057085,56.9325884" id="Stroke-209"></path>
                        <path d="M41.4394851,80.2065822 C40.3458734,81.1935497 39.1296207,81.955285 37.6495915,82.233672" id="Stroke-211"></path>
                        <path d="M21.4288468,8.50766579 C22.7501553,9.14732523 24.0246207,9.85710697 25.0656287,10.9116441 C25.2531527,11.1014398 25.4208176,11.3106054 25.5977298,11.5107618" id="Stroke-213"></path>
                        <polyline id="Stroke-215" points="39.9993255 0.774693653 37.1948043 0.774693653 36.2852298 0.774693653"></polyline>
                        <path d="M26.5831021,6.9310404 C27.7705516,8.15735464 29.0356181,9.32045372 30.1230144,10.628302 C31.1294585,11.8390002 31.8236154,13.2626178 32.1939638,14.8137169 C32.2361074,14.9905992 32.3022032,15.1616255 32.371634,15.3814522 C31.5696926,16.2759243 30.4947271,15.8346193 29.5392191,15.9403283" id="Stroke-217"></path>
                        <path d="M14.8344319,26.8265512 C15.9714,27.1768624 17.1088229,27.525672 18.244275,27.8807881 C18.3278043,27.9067649 18.3969319,27.9777881 18.4727298,28.0277896" id="Stroke-219"></path>
                        <path d="M26.052517,7.23135 C25.5123814,7.79067663 24.8380835,7.92206207 24.0817723,7.92191192 C23.5258707,7.92176176 22.9701207,8.05720139 22.4142191,8.13227879" id="Stroke-221"></path>
                        <path d="M26.6589,58.8846008 C25.9191128,58.5228779 25.3874665,57.7621937 24.4339293,57.6971766 C24.5777936,58.5107153 25.5595277,59.1201937 24.8397511,60.0107618" id="Stroke-223"></path>
                        <path d="M15.2892191,34.9577896 C14.1017697,34.9250721 12.9141686,34.8925505 11.7267191,34.859833" id="Stroke-225"></path>
                        <path d="M43.9408149,53.2537958 C43.4032564,54.2137354 42.3555782,54.2605837 40.8309798,53.8622231 C40.2627989,53.71372 39.6708176,53.6542587 39.0897511,53.5541054" id="Stroke-227"></path>
                        <path d="M35.2240596,56.4070466 C35.0147059,57.7922246 35.4176473,58.9583268 36.5203548,59.8511472 C36.6663415,59.9694692 36.9169293,59.9607602 37.1190064,60.0107618" id="Stroke-229"></path>
                        <path d="M31.8889532,73.2243841 C31.9260941,74.3802757 31.9762723,75.5396209 30.9399638,76.4926534 C31.3483628,77.0000265 31.7323548,77.4770683 32.1163468,77.9542602" id="Stroke-231"></path>
                        <path d="M37.5737936,53.0285636 C38.0317644,53.1408794 38.4897351,53.2531952 38.8872191,53.3506457 C39.5386261,54.508189 40.1550144,55.6038686 40.8180941,56.7824336 C40.5449186,57.08935 40.2606766,57.4085791 40.0144851,57.6850141 C39.4479718,57.5623376 38.9686261,57.4585807 38.4457723,57.3452138 C37.6341287,56.5852803 37.1193096,55.6259413 37.0419957,54.4377664 C37.5747032,53.9541178 38.1794186,53.6183717 38.9381553,53.6291828" id="Stroke-233"></path>
                        <path d="M2.70677234,45.8962107 L2.29518989,46.303881 C2.82062074,47.3168252 3.35257021,48.3422324 3.8554133,49.3117819 C3.87891064,49.6284584 3.89922447,49.9020404 3.9195383,50.1756224" id="Stroke-235"></path>
                        <path d="M53.2639532,34.109059 C53.54865,34.4290389 53.8333468,34.7488686 54.182775,35.1416735 C52.9498468,37.3737246 51.1363069,38.9993005 48.7782351,39.931011 C47.5675915,40.4094042 46.2147511,40.2215605 44.8670649,40.0202029 C44.8061234,40.1568438 44.7147112,40.3613546 44.551291,40.727432 C45.1749559,41.3427664 45.8463734,42.0052494 46.5179426,42.6678825" id="Stroke-237"></path>
                        <path d="M29.8424106,59.0347556 C29.6908149,59.735528 29.5428574,60.4370512 29.3868654,61.1367726 C29.0548707,62.6260079 29.2392112,64.0508268 29.9154798,65.4382571 C29.6983947,65.5552277 29.4699399,65.6783546 29.1458282,65.8528345 C28.1977484,65.3977153 27.2010064,64.9190218 26.2041128,64.4403283" id="Stroke-239"></path>
                        <path d="M40.1509213,82.984446 C39.5830436,83.1940621 39.0168335,83.3963206 38.6349638,82.6841364 C37.310017,82.4608562 36.1939691,81.2669754 34.6912005,81.8527293 C34.5819,81.8953732 34.4407644,81.858285 34.3061473,81.858285 C34.0481314,81.3390497 33.7885995,80.8166611 33.4600915,80.1556797 C34.5103468,79.5714274 35.2163282,78.6952741 35.4514532,77.5037958" id="Stroke-241"></path>
                        <path d="M40.8331021,82.984446 C40.8331021,83.0095218 40.8435622,83.0488624 40.8315862,83.0574212 C39.8225649,83.7853717 38.827642,84.5343438 37.7926979,85.2244553 C37.4152245,85.4761147 36.9420941,85.5870791 36.5126234,85.7623098" id="Stroke-243"></path>
                        <path d="M35.7546447,57.0827432 C36.2664319,58.1186611 36.7780676,59.1545791 37.2845489,60.1796859 C36.8371899,60.7073299 36.5315729,60.9767076 35.8143734,60.6457664 C34.7654824,60.1618175 33.6069878,59.9106085 32.4953362,59.5602974" id="Stroke-245"></path>
                        <path d="M37.7253894,91.6183469 C37.1378043,90.5318268 36.2408122,89.7708423 35.1482617,89.2158701" id="Stroke-247"></path>
                        <path d="M32.7985277,61.737542 C32.9248069,61.98785 33.0180383,62.2633841 33.1878255,62.4803577 C33.3265356,62.6576906 33.5565064,62.7649011 33.8151287,62.9536457 C33.3765622,63.2677695 33.0858016,63.4761844 32.8238441,63.6638779 C31.6709585,63.1686673 30.5291394,62.6784119 29.3876234,62.1880063" id="Stroke-249"></path>
                        <path d="M10.5139532,31.105963 C8.99905691,31.5700915 7.55374309,32.3268717 5.88997979,32.1597494 C5.29633085,32.0999878 5.03755691,32.5448964 5.28799309,33.2066286 C5.44262074,33.6151998 5.61832021,34.0186658 5.81872979,34.4071163 C6.17543457,35.0987293 6.42223245,35.8002525 6.19347447,36.5866132" id="Stroke-251"></path>
                        <path d="M33.5565064,69.1817665 C33.455392,69.0512575 33.3427564,68.7961095 33.255134,68.8098061 C32.4183255,68.9405107 31.5857617,69.1166098 30.7519851,69.2795993" id="Stroke-253"></path>
                        <path d="M32.4195383,92.1438887 C33.2943973,92.8374537 34.169408,93.5308686 35.1418947,94.3017633 C35.2874266,93.936737 35.7684399,93.8260729 35.2240596,93.5703593" id="Stroke-255"></path>
                        <path d="M39.9235277,50.475932 C40.4350117,50.360463 40.9466473,50.2452943 41.6174585,50.0939382 C41.7579878,50.1124073 42.0848282,50.1555017 42.5599293,50.2179661 C42.9953122,51.0803051 43.5058867,52.0920481 44.0166128,53.103641" id="Stroke-257"></path>
                        <path d="M23.3237936,70.2963655 C22.4801633,70.4800048 21.6363814,70.663494 20.7969957,70.8460822 C20.6088654,72.3156472 21.0061979,73.5383577 21.5804426,74.725932" id="Stroke-259"></path>
                        <path d="M37.4979957,53.3288732 C37.2683282,53.5014011 37.0386606,53.6740791 36.7665463,53.8785899 C36.0963415,53.6374413 35.3902085,53.3830791 34.6090356,53.1019893 C34.4644133,53.1856255 34.2585463,53.3046983 34.0666261,53.4156627 C34.0776926,53.5299305 34.067384,53.5875899 34.0893654,53.6279816 C34.3892218,54.1804011 34.7224293,54.7173546 34.9827191,55.287042 C35.0914133,55.5250373 35.0471473,55.8315033 35.0724638,56.106737" id="Stroke-261"></path>
                        <path d="M40.6815064,73.9000807 C40.9367936,73.6419646 41.1171926,73.7224475 41.1267431,74.0505358 C41.1397803,74.4997989 41.1470569,74.9660296 41.0410915,75.3969738 C40.9560463,75.7430807 40.6986367,76.0478949 40.5032298,76.397155 C40.6686207,76.733802 40.8373468,77.0769057 41.0185037,77.4452354 C41.6668787,77.1772091 42.3490596,77.0773562 43.0994585,77.3537912 C42.9645383,77.5595033 42.884041,77.6818794 42.8038468,77.8041054" id="Stroke-263"></path>
                        <path d="M3.69214468,56.857511 C4.12055426,57.9420791 4.78105691,58.8830992 5.50007553,59.7942385 C5.6295383,59.9582076 5.61240798,60.235994 5.66288936,60.4612262" id="Stroke-265"></path>
                        <path d="M40.4541128,53.6291828 C40.2772005,53.4039506 40.009634,53.2033438 39.9392936,52.9492819 C39.6354957,51.8536023 38.9007112,51.374158 37.8022484,51.2885698 C37.5459,51.2684491 37.3030436,51.0824073 37.0503335,50.9712927 C36.8042936,51.134511 36.5772032,51.2851163 36.3191872,51.4562927 C36.4688122,51.6418841 36.6043388,51.809607 36.740017,51.97748" id="Stroke-267"></path>
                        <path d="M31.2067723,76.6779444 C31.9647511,76.8531751 32.7227298,77.0282556 33.4807085,77.2034862" id="Stroke-269"></path>
                        <path d="M24.5365596,21.3459011 C24.3855702,21.6438082 24.2345809,21.9420156 24.0835915,22.2399228 C23.5687723,22.6792757 22.5326154,21.8917138 22.1110277,22.9976039" id="Stroke-271"></path>
                        <path d="M39.2413468,48.7491519 C39.4826872,49.4731983 40.0499585,49.7631472 40.7565463,49.879367 C40.8876766,49.9009893 41.0100144,49.9754661 41.1362936,50.0254676" id="Stroke-273"></path>
                        <path d="M31.8131553,55.355963 C31.8842537,55.0328299 32.0585888,54.7814707 32.4159,54.9152587 C32.9855968,55.1289289 33.5516553,55.3712788 34.0772378,55.6732401 C34.2891686,55.7953159 34.390283,56.106737 34.5418787,56.3319692" id="Stroke-275"></path>
                        <path d="M38.559166,87.5641673 C37.8769851,87.0637014 37.1948043,86.5630853 36.5126234,86.0626193" id="Stroke-277"></path>
                        <path d="M47.0485277,15.1144769 C46.3663468,14.9392463 45.684166,14.7641658 45.0019851,14.5889351" id="Stroke-279"></path>
                        <path d="M36.8916128,1.52546765 C35.9500516,2.0461339 34.9783229,1.77102802 34.0109904,1.7358082 C33.507541,1.71741563 33.0006048,1.85164226 32.4953362,1.91679892" id="Stroke-281"></path>
                        <path d="M32.0405489,57.9085946 C32.4877564,57.7157958 32.4325755,58.0410311 32.4157484,58.2836813 C32.3773947,58.8351998 32.2182191,59.3993314 32.294775,59.9319305 C32.3798202,60.5239909 32.663759,61.0899243 32.8778122,61.6611132 C32.9839293,61.9440048 33.1270356,62.2130822 33.2533149,62.4883159" id="Stroke-283"></path>
                        <path d="M16.5019851,67.1431147 C17.2267644,67.7120512 17.9516952,68.2809878 18.6281154,68.8119351 C19.2105463,68.4484104 19.2261606,68.4078686 19.385791,67.4440249 C19.411259,67.2898159 19.4834186,67.1431147 19.5339,66.9929599" id="Stroke-285"></path>
                        <path d="M24.9913468,59.1849104 C24.6413122,59.3715528 24.4163441,59.1625373 24.1522644,58.9667354 C23.6140995,58.5679243 23.0459186,58.2089042 22.490017,57.8335172" id="Stroke-287"></path>
                        <path d="M48.1854957,30.8056534 C48.1618468,30.9810342 48.1381979,31.156415 48.1103043,31.3631782 C48.7057723,31.8197989 49.3173096,32.2887324 49.9288468,32.7576658" id="Stroke-289"></path>
                        <path d="M33.6323043,91.4681921 C34.217767,92.0576998 34.8905489,92.5808392 35.1482617,93.4202045" id="Stroke-291"></path>
                        <path d="M22.2626234,59.0347556 C21.637291,58.3806813 21.1183787,57.5940203 20.1422537,57.3746441 C20.1017777,57.3656348 20.0898016,57.232898 20.0644851,57.1578206" id="Stroke-293"></path>
                        <path d="M34.7692723,13.6129289 C34.7439559,13.8381611 34.7988335,14.1854692 34.6772537,14.26385 C34.4001367,14.4422339 34.0391872,14.5604057 33.7074957,14.5719676 C33.2298176,14.5884847 32.7480463,14.4887819 32.2679426,14.4387803" id="Stroke-295"></path>
                        <path d="M36.0578362,91.6934243 C35.855759,92.2940435 35.6535303,92.8946627 35.4514532,93.4952819" id="Stroke-297"></path>
                        <path d="M31.8131553,55.0556534 C31.712041,55.0807293 31.6110782,55.1058051 31.5336128,55.1248748 C31.852267,55.6989166 32.2177644,56.260045 32.4739612,56.8663701 C32.5781074,57.1129243 32.4448548,57.4581302 32.4195383,57.7584398" id="Stroke-299"></path>
                        <path d="M10.7413468,65.7166441 C11.4015463,66.3638113 12.0618973,67.0106782 12.7950144,67.7291689 C13.0095223,67.396576 13.1639984,67.1573794 13.3184745,66.9178825" id="Stroke-301"></path>
                        <path d="M19.7612936,28.0277896 C19.3833654,28.0644274 19.0054372,28.100915 18.5670223,28.143559 C18.480916,28.2934135 18.3631261,28.4985249 18.2453362,28.7034862" id="Stroke-303"></path>
                        <path d="M8.77060213,27.6524026 L7.17884681,28.1524026" id="Stroke-305"></path>
                        <path d="M34.996666,13.3876967 C35.7517644,13.424785 36.5070144,13.4618732 37.2827298,13.5001627 C37.376416,13.2223763 37.4373574,13.0421906 37.4979957,12.862155" id="Stroke-307"></path>
                        <path d="M20.8224638,73.2243841 C20.3076447,73.5077262 19.7926739,73.7910683 19.1553654,74.1418299 C19.3109027,74.7277339 19.4603761,75.2899135 19.6096979,75.852093" id="Stroke-309"></path>
                        <path d="M43.0312404,46.8722169 C42.5006553,47.0027259 41.9700702,47.1330392 41.4394851,47.2635481" id="Stroke-311"></path>
                        <path d="M53.946134,9.10828498 C54.4415489,9.38471997 55.1328255,9.35363793 55.3862936,10.0092138" id="Stroke-313"></path>
                        <path d="M16.3503894,54.5301116 C16.5524665,54.7804197 16.7660649,55.0224692 16.9541952,55.2826875 C17.3055941,55.7682881 17.6412271,56.2092927 18.2274479,56.5156085 C18.9103867,56.8726766 19.4517351,57.4911642 20.0691846,57.9778159 C20.2142617,58.0923841 20.418158,58.1338268 20.5950702,58.2089042" id="Stroke-315"></path>
                        <path d="M41.3636872,12.9304212 C40.9577138,12.8482416 40.551892,12.7660621 40.0784585,12.6703816 C39.2825809,13.3910181 38.3899851,13.0037958 37.4972378,12.7386689 C37.2997085,12.6799692 37.0936899,12.6695989 36.8916128,12.6369228" id="Stroke-317"></path>
                        <path d="M37.6495915,82.9093686 C37.1443229,83.2596797 36.6389027,83.610141 36.133634,83.9604522" id="Stroke-319"></path>
                        <path d="M31.0551766,92.0688113 C31.3583681,92.5192757 31.6615596,92.9697401 31.9647511,93.4202045" id="Stroke-321"></path>
                        <path d="M38.4833681,87.8644769 C37.3682298,88.1892618 36.2814399,88.276802 35.2998574,87.4890899" id="Stroke-323"></path>
                        <path d="M27.4168787,58.8846008 C27.2148016,58.9346023 27.0125729,58.984754 26.7725968,59.0440652 L26.7725968,59.7586519 C26.9381394,59.769463 27.0638122,59.7774212 27.1894851,59.7855296" id="Stroke-325"></path>
                        <path d="M40.8331021,77.5037958 C40.4036314,77.7541039 39.974009,78.0042618 39.5445383,78.2545698" id="Stroke-327"></path>
                        <path d="M44.0924106,13.6129289 C44.5218814,13.7759184 44.9515037,13.9391036 45.3809745,14.102093" id="Stroke-329"></path>
                        <path d="M44.0166128,13.4627741 C43.4102298,13.2875435 42.8038468,13.112463 42.1974638,12.9372324" id="Stroke-331"></path>
                        <path d="M19.3823043,74.2003902 C19.7866101,74.5257757 20.1907644,74.851011 20.5950702,75.1763964" id="Stroke-333"></path>
                        <path d="M22.1110277,57.6833624 C22.3384213,58.1087509 22.5658149,58.5342896 22.7932085,58.9596782" id="Stroke-335"></path>
                        <path d="M35.2998574,87.7893995 C35.1935888,88.181754 35.0873202,88.5742587 34.9809,88.9666132 C35.036384,89.0021998 35.0918681,89.0379367 35.1472005,89.0736735 C35.5013282,88.7457354 35.8553043,88.4177974 36.2094319,88.0897091" id="Stroke-337"></path>
                        <path d="M32.1163468,14.8892447 C31.9344319,14.9821906 31.752517,15.0751364 31.5575649,15.174689 C31.5945543,15.3925636 31.6279053,15.5913686 31.6615596,15.7901735" id="Stroke-339"></path>
                        <path d="M44.5471979,43.5688113 C44.0670941,43.6993203 43.587142,43.8296336 43.1070383,43.9601426" id="Stroke-341"></path>
                        <path d="M14.4554426,46.3466751 C14.4903096,46.5199537 14.5254798,46.6933825 14.5645915,46.8870822 C14.3388654,47.0142633 14.1317856,47.1309336 13.9248574,47.2476039" id="Stroke-343"></path>
                        <path d="M49.7772511,33.5835172 C49.8348574,32.6974537 49.8348574,32.6974537 50.5249213,32.7567649 C50.5030915,32.9319955 50.4814133,33.1075265 50.4594319,33.2832076" id="Stroke-345"></path>
                        <path d="M36.8916128,52.0525574 C37.1694878,52.6031751 37.4475144,53.1536426 37.7253894,53.7042602" id="Stroke-347"></path>
                        <path d="M18.7317735,57.1578206 C18.5620474,57.5217958 17.8978177,57.8088918 18.4421385,58.2839816" id="Stroke-349"></path>
                        <path d="M45.6083681,40.4155605 C45.3051766,40.5460695 45.0019851,40.6763828 44.6987936,40.8068918" id="Stroke-351"></path>
                        <path d="M6.19347447,32.3072014 C5.91559947,32.4738681 5.63757287,32.6405347 5.35969787,32.8072014" id="Stroke-353"></path>
                        <path d="M48.9119319,36.0610714 C48.8467135,36.3363051 48.7812993,36.611689 48.7160809,36.8869228" id="Stroke-355"></path>
                        <path d="M19.2307085,13.6880063 C19.0033149,13.9383144 18.7759213,14.1884723 18.5485277,14.4387803" id="Stroke-357"></path>
                        <path d="M42.2732617,49.8753128 L41.6668787,49.2746937" id="Stroke-359"></path>
                        <path d="M50.5573574,29.6794924 C50.5246503,29.9298005 50.492139,30.1799584 50.4594319,30.4302664" id="Stroke-361"></path>
                        <path d="M47.6674106,39.3644769 C47.5368489,39.614785 47.406483,39.8649429 47.2759213,40.1152509" id="Stroke-363"></path>
                        <path d="M18.4094319,30.355189 C18.2788702,30.6054971 18.1485043,30.855655 18.0179426,31.105963" id="Stroke-365"></path>
                        <path d="M24.5059013,59.3350652 C24.4671438,59.6012896 23.971714,59.9376364 24.7016459,60.0858392" id="Stroke-367"></path>
                        <path d="M17.3357617,33.4333624 C16.6682856,33.3351611 16.7031527,33.8692618 16.577783,34.2592138" id="Stroke-369"></path>
                        <path d="M39.8477298,51.0014738 C39.6456527,51.226706 39.4434239,51.4519382 39.2413468,51.6771704" id="Stroke-371"></path>
                        <path d="M36.8916128,51.226706 C36.9243199,51.4519382 36.9568312,51.6771704 36.9895383,51.9024026" id="Stroke-373"></path>
                        <path d="M14.6828362,43.1183469 C14.2744372,43.3179026 13.8100995,43.4835234 14.0764532,44.0943531" id="Stroke-375"></path>
                        <path d="M42.5858061,77.7177487 L41.8184745,78.104415 C41.4751101,78.2733392 41.1464505,78.4580296 40.7472989,78.194658 C40.6655888,78.1406023 40.4541128,78.2796457 40.302517,78.3296472" id="Stroke-377"></path>
                        <path d="M50.8384213,26.6763964 C50.8711284,26.8765528 50.9036397,27.0768593 50.9363468,27.2770156" id="Stroke-379"></path>
                        <path d="M17.0450702,55.8815048 C16.9145085,56.0816611 16.7841426,56.2819676 16.6535809,56.482124" id="Stroke-381"></path>
                        <path d="M34.9208681,55.2808856 C34.718791,55.4475523 34.5165622,55.6142189 34.3144851,55.7808856" id="Stroke-383"></path>
                        <path d="M32.4195383,56.9325884 C32.2174612,57.0630974 32.0152324,57.1934107 31.8131553,57.3239197" id="Stroke-385"></path>
                        <path d="M15.0147165,51.6771704 C14.8463344,51.8457943 14.6777914,52.014268 14.5147165,52.1776364 C14.5859613,52.2776395 14.6395155,52.352867 14.6930697,52.4279444" id="Stroke-387"></path>
                        <path d="M14.6070383,40.3404831 L14.6070383,40.8660249" id="Stroke-389"></path>
                        <path d="M48.2297511,39.4395543 C48.1645327,39.614785 48.0991184,39.7898655 48.0339,39.9650961" id="Stroke-391"></path>
                        <path d="M22.3744421,24.1237649 C22.0540137,24.3754243 21.6869172,24.6149212 21.9839139,25.0246937" id="Stroke-393"></path>
                        <path d="M15.5608681,37.0370776 C15.4956497,37.2123082 15.4302354,37.3873887 15.365017,37.5626193" id="Stroke-395"></path>
                        <path d="M4.37432553,37.112155 C4.1974133,37.1773941 4.02065266,37.2428291 3.84374043,37.3080683" id="Stroke-397"></path>
                        <path d="M20.3264532,27.1268608 C20.1633979,27.3020915 20.0001468,27.477172 19.8370915,27.6524026" id="Stroke-399"></path>
                        <path d="M44.6354957,45.9712881 C44.504934,46.1379547 44.3745681,46.3046214 44.2440064,46.4712881" id="Stroke-401"></path>
                        <path d="M3.42352766,41.4666441 L2.93416596,41.9558082" id="Stroke-403"></path>
                        <path d="M50.883634,20.6702045 C50.7169674,20.833194 50.5503007,20.9963791 50.383634,21.1593686" id="Stroke-405"></path>
                        <path d="M29.5844319,16.6911023 L29.0844319,16.9846008" id="Stroke-407"></path>
                        <path d="M48.652783,30.8056534 L48.2612936,31.1969847" id="Stroke-409"></path>
                        <path d="M48.5644851,16.8412571 C48.6623574,17.0042466 48.7602298,17.1674317 48.8581021,17.3304212" id="Stroke-411"></path>
                        <path d="M29.8769851,4.67871842 C29.7139298,4.8092274 29.5506787,4.93954071 29.3876234,5.07004969" id="Stroke-413"></path>
                        <path d="M40.0876234,51.6771704 L39.696134,52.0685017" id="Stroke-415"></path>
                        <path d="M35.9820383,56.7073562 C35.7546447,56.8378652 35.5272511,56.9681785 35.2998574,57.0986875" id="Stroke-417"></path>
                        <path d="M26.8987936,18.9434243 C26.7682319,19.0412571 26.637866,19.1390899 26.5073043,19.2369228" id="Stroke-419"></path>
                        <path d="M49.2151234,24.7994615 C49.149905,24.8972943 49.0844907,24.9951271 49.0192723,25.0929599" id="Stroke-421"></path>
                        <path d="M20.4339,59.3808237 C20.3360277,59.3155846 20.2381553,59.2501495 20.140283,59.1849104" id="Stroke-423"></path>
                    </g>
                </g>
            </g>
        </g>
    </g>
</svg>