<?xml version="1.0" encoding="UTF-8"?>
<svg width="47px" height="47px" viewBox="0 0 47 47" version="1.1" xmlns="http://www.w3.org/2000/svg" xmlns:xlink="http://www.w3.org/1999/xlink">
    <!-- Generator: sketchtool 50.2 (55047) - http://www.bohemiancoding.com/sketch -->
    <title>9678F2CF-8260-4CD5-90F4-52A362035583</title>
    <desc>Created with sketchtool.</desc>
    <defs></defs>
    <g id="Page-1" stroke="none" stroke-width="1" fill="none" fill-rule="evenodd">
        <g id="Air-Comp-1-(L)" transform="translate(-591.000000, -477.000000)">
            <g id="2" transform="translate(489.000000, 366.000000)">
                <g id="Icons-/-Rotary-Screw" transform="translate(103.000000, 112.000000)">
                    <rect id="Background" x="0" y="0" width="45" height="45"></rect>
                    <g stroke="#00A19C" stroke-linecap="round" stroke-linejoin="round" stroke-width="1.5">
                        <path d="M18.3331837,1.42803093 L18.3331837,44.1084433" id="Stroke-1"></path>
                        <path d="M4.55767347,44.1084433 L4.55767347,1.42803093" id="Stroke-3"></path>
                        <path d="M0.425020408,10.4408814 L22.4658367,19.314232" id="Stroke-5"></path>
                        <path d="M0.425020408,0.14956701 L22.4658367,9.02291753" id="Stroke-7"></path>
                        <path d="M0.425020408,20.7320567 L22.4658367,29.6054072" id="Stroke-9"></path>
                        <path d="M0.425020408,31.0234175 L22.4658367,39.896768" id="Stroke-11"></path>
                        <path d="M26.9872806,1.42803093 L26.9872806,44.1084433" id="Stroke-13"></path>
                        <path d="M40.7627908,44.1084433 L40.7627908,1.42803093" id="Stroke-15"></path>
                        <path d="M44.8954439,4.91488144 L22.8546276,13.788232" id="Stroke-17"></path>
                        <path d="M44.8954439,15.2633505 L22.8546276,24.136701" id="Stroke-19"></path>
                        <path d="M44.8954439,25.6117732 L22.8546276,34.4851237" id="Stroke-21"></path>
                        <path d="M44.8954439,35.9604742 L22.8546276,44.8338247" id="Stroke-23"></path>
                    </g>
                </g>
            </g>
        </g>
    </g>
</svg>