<?xml version="1.0" encoding="UTF-8"?>
<svg width="42px" height="52px" viewBox="0 0 42 52" version="1.1" xmlns="http://www.w3.org/2000/svg" xmlns:xlink="http://www.w3.org/1999/xlink">
    <!-- Generator: sketchtool 50.2 (55047) - http://www.bohemiancoding.com/sketch -->
    <title>BCDA6520-F93A-4AB0-A537-F43D98A9BA33</title>
    <desc>Created with sketchtool.</desc>
    <defs></defs>
    <g id="Page-1" stroke="none" stroke-width="1" fill="none" fill-rule="evenodd">
        <g id="Air-Comp-1-(L)" transform="translate(-323.000000, -474.000000)">
            <g id="1" transform="translate(219.000000, 366.000000)">
                <g id="Icons-/-Rotary-Valve" transform="translate(105.000000, 109.000000)">
                    <rect id="Background" x="0" y="0" width="40" height="50"></rect>
                    <g stroke="#00A19C" stroke-linecap="round" stroke-linejoin="round" stroke-width="1.5">
                        <path d="M19.89104,32.5267204 L19.89104,45.4299462" id="Stroke-1"></path>
                        <path d="M19.89104,6.36193548 L19.89104,19.2651613" id="Stroke-2"></path>
                        <g id="Group-7" transform="translate(0.000000, 25.806452)">
                            <path d="M26.4691733,0.0896236559 L39.26864,0.0896236559" id="Stroke-3"></path>
                            <path d="M0.513173333,0.0896236559 L13.3131733,0.0896236559" id="Stroke-5"></path>
                        </g>
                        <path d="M24.5444267,30.5869892 L33.59296,39.7084946" id="Stroke-8"></path>
                        <path d="M6.18869333,12.0834946 L15.2404267,21.2082258" id="Stroke-9"></path>
                        <path d="M24.54208,21.2072581 L33.59328,12.0836022" id="Stroke-10"></path>
                        <path d="M6.18869333,39.7086559 L15.2398933,30.585" id="Stroke-11"></path>
                        <g id="Group-16">
                            <path d="M39.5152533,0.268924731 L32.8000533,0.268924731 L30.1333867,9.02053763 C35.7605867,12.4984946 39.5152533,18.7544086 39.5152533,25.8963441 C39.5152533,33.0377419 35.7605867,39.2936559 30.1333867,42.7716129 L32.8000533,49.7312903 L39.5152533,49.7312903" id="Stroke-12"></path>
                            <path d="M0.26656,0.268924731 L7.69322667,0.268924731 L10.3598933,8.60387097 C4.34069333,11.9823656 0.26656,18.4587097 0.26656,25.8963441 C0.26656,33.3334409 4.34069333,39.8097849 10.3598933,43.1882796 L7.69322667,49.7312903 L0.26656,49.7312903" id="Stroke-14"></path>
                        </g>
                    </g>
                </g>
            </g>
        </g>
    </g>
</svg>