<?xml version="1.0" encoding="UTF-8"?>
<svg width="15px" height="14px" viewBox="0 0 15 14" version="1.1" xmlns="http://www.w3.org/2000/svg" xmlns:xlink="http://www.w3.org/1999/xlink">
    <!-- Generator: Sketch 52.6 (67491) - http://www.bohemiancoding.com/sketch -->
    <title>Combined Shape</title>
    <desc>Created with Sketch.</desc>
    <g id="Products-*yet-to-be-built" stroke="none" stroke-width="1" fill="none" fill-rule="evenodd">
        <g id="Products--Level-4---Product-type---Products-1" transform="translate(-1298.000000, -232.000000)" fill="#FFFFFF" fill-rule="nonzero">
            <g id="Industry-Experience-Dropdown" transform="translate(1288.000000, 221.000000)">
                <g id="Icons-/-Add-Copy">
                    <g>
                        <g id="np_exchange_1649366_000000" transform="translate(10.000000, 11.000000)">
                            <path d="M8.21719383,8.43046121 C8.39667961,8.59275251 8.47397315,8.83408896 8.48493942,9.06702839 C8.49407423,9.29062968 8.37513432,9.54789966 8.21654777,9.70417898 C8.20486677,9.71569058 8.1927897,9.72689226 8.18034828,9.73777061 C8.05584806,9.86045951 7.93139007,9.98310679 7.80744491,10.1052487 C7.21082471,10.6931889 6.61610954,11.2792517 6.02139437,11.8653145 C5.64749176,12.2337773 5.27357353,12.6022555 4.90027991,12.9701182 C4.72461049,13.1432396 4.49649008,13.2237856 4.25372274,13.2346051 C4.00973743,13.2454228 3.78100804,13.1275978 3.60716557,12.9701182 C3.43758759,12.8180398 3.33877393,12.5541684 3.33877393,12.3329676 C3.33877393,12.1015493 3.44125556,11.8593132 3.60716557,11.695817 C3.74318836,11.5617732 3.87921271,11.4277278 4.01462495,11.2942857 C4.4638307,10.8516153 4.91195652,10.4100091 5.35981551,9.96866588 L5.08747325,9.96866588 L3.17103695,9.96866588 L1.5790816,9.96866588 L0.915441553,9.96866588 C0.668411306,9.96866588 0.447598745,9.86647496 0.268884384,9.70417898 C0.088937996,9.541883 0.0114721524,9.30024711 0.000492735387,9.06702839 C-0.00864207464,8.84162671 0.110297836,8.58615711 0.268884384,8.42987779 C0.434794396,8.26637386 0.680606668,8.16539089 0.915441553,8.16539089 L0.927640819,8.16539089 C1.19603247,8.16238533 1.46562648,8.16539089 1.73401813,8.16539089 L3.39795891,8.16539089 L5.3143952,8.16539089 L5.35951882,8.16539089 C5.14904967,7.95798379 4.93866485,7.7506598 4.72828003,7.54333581 C4.35437742,7.174873 3.9804592,6.80639481 3.60716557,6.43853213 L3.60718119,6.43851674 C3.43150396,6.26601859 3.35098896,6.04060153 3.33878954,5.79896563 C3.32781215,5.55852999 3.44737667,5.33312831 3.60718119,5.16181504 C3.76150483,4.99470419 4.02927187,4.89732814 4.25373836,4.89732814 C4.48857324,4.89732814 4.73438552,4.9983188 4.90029553,5.16181504 L8.21490429,8.42820051 C8.21566914,8.42895293 8.21643232,8.4297065 8.21719383,8.43046121 Z M6.69651596,4.76322544 C6.61998594,4.68115743 6.56535545,4.58323398 6.52890674,4.4785193 C6.51157275,4.4300202 6.49848162,4.38020728 6.48962607,4.32972424 C6.47959848,4.27617339 6.47354001,4.22199618 6.4710105,4.16826573 C6.46619306,4.05034485 6.49699581,3.92306002 6.55044877,3.80616209 C6.59400445,3.70549698 6.65657629,3.61190888 6.73809438,3.53157677 C6.87411717,3.39753294 7.01014152,3.26348757 7.14555376,3.13004541 C7.74217396,2.54210526 8.33688913,1.95604243 8.9316043,1.36997959 C9.30550691,1.00151679 9.67942514,0.633038591 10.0527188,0.265175911 C10.2283882,0.0920545571 10.4565086,0.0115085412 10.6992759,0.000689014433 C10.9432612,-0.0101286658 11.1719906,0.107696338 11.3458331,0.265175911 C11.5154111,0.417254338 11.6142247,0.681125719 11.6142247,0.902326507 C11.6142247,1.13374485 11.5117431,1.37598087 11.3458331,1.5394771 C11.2098103,1.67352093 11.073786,1.8075663 10.9383737,1.94100847 C10.489168,2.38367886 10.0410421,2.82528502 9.59318316,3.26662824 L9.88190562,3.26662824 L11.8228576,3.26662824 L13.4148129,3.26662824 L14.0845584,3.26662824 C14.3315887,3.26662824 14.5524013,3.36881916 14.7311156,3.53111514 C14.911062,3.69341112 14.9885278,3.93504701 14.9995073,4.16826573 C15.0086421,4.39186703 14.8897022,4.64913701 14.7311156,4.80541633 C14.5652056,4.96892026 14.3193933,5.06990322 14.0845584,5.06990322 L14.0723592,5.06990322 C13.8027652,5.07290879 13.5313286,5.06990322 13.259892,5.06990322 L11.5886121,5.06990322 L9.6476602,5.06990322 L9.59347985,5.06990322 C9.803949,5.27731033 10.0143338,5.48463432 10.2247186,5.69195831 C10.5986213,6.06042112 10.9725395,6.42889931 11.3458331,6.79676199 L11.3457238,6.79668505 C11.5207905,6.9691832 11.6037461,7.19460026 11.6141154,7.43623616 C11.6250928,7.6766718 11.5055283,7.90207348 11.3457238,8.07338675 C11.1914002,8.2404976 10.9236331,8.33787365 10.6991666,8.33787365 C10.4643317,8.33787365 10.2185195,8.23688299 10.0526095,8.07338675 C9.91658667,7.93934292 9.78056232,7.80529755 9.64515008,7.67185539 L6.73809438,4.80709361 C6.7236359,4.79287021 6.70977655,4.77823618 6.69651596,4.76322544 Z" id="Combined-Shape"></path>
                        </g>
                    </g>
                </g>
            </g>
        </g>
    </g>
</svg>