<?xml version="1.0" encoding="UTF-8"?>
<svg width="19px" height="21px" viewBox="0 0 19 21" version="1.1" xmlns="http://www.w3.org/2000/svg" xmlns:xlink="http://www.w3.org/1999/xlink">
    <!-- Generator: sketchtool 51.3 (57544) - http://www.bohemiancoding.com/sketch -->
    <title>79766DB1-1590-43FF-9C82-5C4D4A01FA55</title>
    <desc>Created with sketchtool.</desc>
    <defs></defs>
    <g id="Page-1" stroke="none" stroke-width="1" fill="none" fill-rule="evenodd" fill-opacity="0.2">
        <g id="Marketing-Support---Customer-Endorsements-Directory---Level-3-Copy-3" transform="translate(-394.000000, -513.000000)" fill="#006E69" fill-rule="nonzero" stroke="#00A19C">
            <g id="Group-2" transform="translate(359.000000, 232.000000)">
                <g id="Group-12" transform="translate(27.000000, 277.000000)">
                    <g id="Group-11-Copy" transform="translate(7.000000, 4.000000)">
                        <g id="thumb-icon--greeen" transform="translate(9.860658, 10.825149) rotate(-2.000000) translate(-9.860658, -10.825149) translate(0.360658, 0.325149)">
                            <path d="M4.54507607,11.4883892 L6.64409844,18.421033 C8.24091394,18.5163766 10.9608764,18.6312234 14.7868397,18.7651122 C15.2594064,18.7651122 15.5115027,18.4763451 15.9481936,17.5336467 C15.9750183,17.4756697 15.9750183,17.4756697 16.0021104,17.4170768 C16.0100796,17.3998608 16.0100796,17.3998608 16.0180794,17.3826028 C16.0692689,17.2722197 16.11095,16.8456715 16.1423775,16.0939912 C16.1475361,15.9686717 16.1475361,15.9686717 16.1525647,15.8435109 C16.1849274,15.0410603 16.2062796,14.7483718 16.2744519,14.5115347 C16.2937401,14.4445256 16.3360076,14.2805085 16.3433464,14.255631 C16.383615,14.1191262 16.4406636,14.0138322 16.5493745,13.9169294 C16.6110005,13.8619971 16.9420892,13.6673376 17.1039113,13.5559683 C17.7689476,13.098277 17.8951059,12.9419958 17.9093385,12.5344265 C17.9244522,12.101626 17.7290656,11.4927265 17.643474,11.388638 L17.1800189,10.8250276 L17.8729249,10.5962732 C18.2157957,10.4830787 18.4250765,10.095811 18.4250765,9.50874393 C18.4250765,8.70172901 17.862993,7.87094445 17.3242492,7.87094445 L17.3067994,7.87063987 L11.3234672,7.6616973 L11.5594734,7.01469581 C12.2579648,5.09980978 12.4137928,3.619328 12.0579451,2.58157691 C11.5886436,1.21296253 11.2027527,0.904852298 10.0509864,0.708282276 C9.95709417,0.692257851 9.96335616,0.688064042 9.92224714,0.800637128 C9.85439976,0.98643066 9.82691261,1.27762254 9.82254933,1.77230121 C9.82181293,1.87738512 9.82181293,1.87738512 9.82145134,1.98369082 C9.81973683,2.48719447 9.81262831,2.69402545 9.76621856,2.97842034 C9.1561356,5.35248328 8.1825429,7.12575839 6.68572611,8.96197866 C6.33082487,9.39735382 5.03142431,10.8816174 4.75907283,11.2178915 C4.68382733,11.3107976 4.6126928,11.4006729 4.54507607,11.4883892 Z" id="Shape"></path>
                            <path d="M6.01010219,19.3526312 L6.04450518,11.5361779 L2.27417944,11.4969958 L2.30531487,19.3055561 C2.3053149,19.305563 2.30532026,19.3055686 2.30532708,19.3055689 C4.15197605,19.4026501 5.41983668,19.4126613 6.01010219,19.3526312 Z" id="Shape" transform="translate(4.160434, 15.443536) rotate(-17.000000) translate(-4.160434, -15.443536) "></path>
                        </g>
                    </g>
                </g>
            </g>
        </g>
    </g>
</svg>