<?xml version="1.0" encoding="UTF-8"?>
<svg width="60px" height="60px" viewBox="0 0 60 60" version="1.1" xmlns="http://www.w3.org/2000/svg" xmlns:xlink="http://www.w3.org/1999/xlink">
    <!-- Generator: sketchtool 50.2 (55047) - http://www.bohemiancoding.com/sketch -->
    <title>45DC26DB-6DEB-4CFE-858A-BACD2C97F124</title>
    <desc>Created with sketchtool.</desc>
    <defs></defs>
    <g id="Page-1" stroke="none" stroke-width="1" fill="none" fill-rule="evenodd">
        <g id="Circulation-oil-selector-1-(L)" transform="translate(-689.000000, -468.000000)">
            <g id="2" transform="translate(595.000000, 366.000000)">
                <g id="Icons-/-Green-/-Anti-friction" transform="translate(95.000000, 103.000000)">
                    <rect id="Background" x="0" y="0" width="60" height="60"></rect>
                    <g id="Group-2">
                        <g id="Group-11" stroke="#00A19C" stroke-width="1.5">
                            <circle id="Oval-8" cx="28.8" cy="28.8" r="28.8"></circle>
                            <circle id="Oval-8" cx="28.8" cy="28.8" r="12"></circle>
                            <circle id="Oval-8" cx="28.8" cy="28.8" r="18"></circle>
                            <circle id="Oval-Copy" cx="19.7399998" cy="7.26000023" r="3.3"></circle>
                            <circle id="Oval-Copy-2" cx="38.1" cy="7.38000011" r="3.3"></circle>
                            <circle id="Oval-Copy-3" cx="50.5800018" cy="20.1" r="3.3"></circle>
                            <circle id="Oval-Copy-5" cx="50.4599991" cy="38.1" r="3.3"></circle>
                            <circle id="Oval-Copy-6" cx="36.9" cy="50.5798828" r="3.3"></circle>
                            <circle id="Oval-Copy-7" cx="20.1" cy="50.5798828" r="3.3"></circle>
                            <circle id="Oval-Copy-9" cx="7.38000011" cy="38.1" r="3.3"></circle>
                            <circle id="Oval-Copy-11" cx="7.01999989" cy="20.5799995" r="3.3"></circle>
                        </g>
                        <g id="Group-12" transform="translate(3.600000, 3.600000)" fill="#00A19C">
                            <rect id="Rectangle-4" transform="translate(8.544034, 42.144034) rotate(43.000000) translate(-8.544034, -42.144034) " x="6.74403371" y="40.3440337" width="3.6" height="3.6"></rect>
                            <rect id="Rectangle-4-Copy-2" transform="translate(1.861723, 25.861723) rotate(88.000000) translate(-1.861723, -25.861723) " x="0.0617225827" y="24.0617226" width="3.6" height="3.6"></rect>
                            <rect id="Rectangle-4-Copy-3" transform="translate(8.545197, 8.545197) rotate(136.000000) translate(-8.545197, -8.545197) " x="6.74519671" y="6.74519671" width="3.6" height="3.6"></rect>
                            <rect id="Rectangle-4-Copy-4" transform="translate(25.345197, 2.545197) rotate(180.000000) translate(-25.345197, -2.545197) " x="23.5451967" y="0.745196707" width="3.6" height="3.6"></rect>
                            <rect id="Rectangle-4-Copy" x="23.4" y="46.8" width="3.6" height="3.6"></rect>
                            <g id="Group" transform="translate(44.400000, 25.800000) scale(-1, 1) translate(-44.400000, -25.800000) translate(38.400000, 6.000000)">
                                <rect id="Rectangle-4" transform="translate(8.539037, 36.144034) rotate(43.000000) translate(-8.539037, -36.144034) " x="6.73903714" y="34.3440337" width="3.6" height="3.6"></rect>
                                <rect id="Rectangle-4-Copy-2" transform="translate(1.861723, 19.861723) rotate(88.000000) translate(-1.861723, -19.861723) " x="0.0617225827" y="18.0617226" width="3.6" height="3.6"></rect>
                                <rect id="Rectangle-4-Copy-3" transform="translate(8.537874, 2.545197) rotate(136.000000) translate(-8.537874, -2.545197) " x="6.73787414" y="0.745196707" width="3.6" height="3.6"></rect>
                            </g>
                        </g>
                    </g>
                </g>
            </g>
        </g>
    </g>
</svg>