<?xml version="1.0" encoding="UTF-8"?>
<svg width="61px" height="62px" viewBox="0 0 61 62" version="1.1" xmlns="http://www.w3.org/2000/svg" xmlns:xlink="http://www.w3.org/1999/xlink">
    <!-- Generator: sketchtool 50.2 (55047) - http://www.bohemiancoding.com/sketch -->
    <title>77711929-1C5B-4E53-BFB6-EF6ABD22E57C</title>
    <desc>Created with sketchtool.</desc>
    <defs></defs>
    <g id="Page-1" stroke="none" stroke-width="1" fill="none" fill-rule="evenodd">
        <g id="Circulation-oil-selector-1-(L)" transform="translate(-419.000000, -468.000000)">
            <g id="1" transform="translate(325.000000, 366.000000)">
                <g id="Icons-/-Green-/-Gear" transform="translate(95.000000, 103.000000)">
                    <rect id="Background" x="0" y="0" width="60" height="60"></rect>
                    <g id="Icons-/-gears" stroke="#00A19C" stroke-width="1.5">
                        <path d="M58.2346043,33.7603498 C57.7386339,33.3612344 56.3515039,32.4573449 56.3515039,32.4573449 C56.3515039,32.4573449 55.8555335,32.0582295 55.1619685,31.8547652 C54.4683837,31.6552075 53.5732762,31.4556498 53.2788682,31.4556498 L53.2788682,29.8513349 L53.2788682,28.2470201 C53.5772241,28.1452879 54.4684035,27.9457302 55.1619685,27.8479047 C55.8555534,27.648347 56.3515039,27.245325 56.3515039,27.245325 C56.3515039,27.245325 57.6418205,26.4431876 58.1377908,26.0440922 C58.7345027,25.6449769 58.6337612,25.2419549 58.6337612,25.2419549 L58.4361468,23.9389499 C58.4361468,23.9389499 58.3354053,23.5398345 57.742562,23.3363702 C57.1458501,23.1368125 55.5610858,22.8355227 55.5610858,22.8355227 C55.5610858,22.8355227 54.9643739,22.635965 54.2707693,22.7337905 C53.5771844,22.8355227 52.6820769,22.9333482 52.3876689,22.9333482 C52.089313,21.9316531 51.790957,20.929958 51.294947,20.0300352 C51.5933029,19.8304775 52.2868877,19.4274555 52.8836393,19.0283401 C53.4803512,18.6292247 53.7748386,18.1283771 53.7748386,18.1283771 C53.7748386,18.1283771 54.6660378,16.9271444 55.0651551,16.3245246 C55.460384,15.7219449 55.2627696,15.4245617 55.2627696,15.4245617 L54.6660577,14.3210944 C54.6660577,14.3210944 54.4684432,14.0198045 53.8717313,14.0198045 C53.2750195,14.1215367 51.6902552,14.2193622 51.6902552,14.2193622 C51.6902552,14.2193622 50.9966704,14.2193622 50.3999387,14.5206521 C49.8032268,14.8219419 49.0128087,15.2210573 48.7144329,15.420615 C48.117721,14.6184776 47.4241163,13.8163002 46.7305514,13.0181495 C46.9281658,12.8185918 47.4241362,12.0164544 47.8232733,11.5156069 C48.2185022,11.0147594 48.3192437,10.3143742 48.3192437,10.3143742 C48.3192437,10.3143742 48.7144726,8.81183153 48.9159556,8.20921176 C49.11357,7.50880653 48.8152141,7.30924883 48.8152141,7.30924883 L47.8232733,6.50711144 C47.8232733,6.50711144 47.5249174,6.20582159 46.932074,6.50711144 C46.3353622,6.80840129 44.9481925,7.50880653 44.9481925,7.50880653 C44.9481925,7.50880653 44.3514806,7.81009638 43.8554706,8.20921176 C43.3595002,8.71005931 42.7627486,9.41044451 42.565154,9.60998217 C41.6739547,9.00740248 40.7788671,8.50651487 39.8877075,8.00566732 C39.988449,7.70437748 40.2829364,6.90220002 40.4844194,6.20181481 C40.6820338,5.59923512 40.5851609,4.89880985 40.5851609,4.89880985 C40.5851609,4.89880985 40.4844194,3.39626722 40.3875464,2.69588202 C40.2868049,1.99547678 39.9923176,1.89374463 39.9923176,1.89374463 L38.8918585,1.60419464 C38.8918585,1.60419464 38.4966296,1.50246249 38.0975321,1.90548449 L36.5088398,3.50979934 C36.5127183,3.50588271 36.0167479,3.90891473 35.7183821,4.60936004 C35.4200261,5.21193973 35.1216702,6.01013044 35.0247972,6.31144032 C34.0328565,6.11188263 33.0409157,5.91232493 31.9481937,5.81059278 C31.9481937,5.50930293 31.9481937,4.60936004 31.8474522,3.90897483 C31.8474522,3.20856959 31.5490963,2.60596987 31.5490963,2.60596987 C31.5490963,2.60596987 30.9523844,1.20519946 30.657897,0.602579695 C30.3595411,0 29.9643122,0 29.9643122,0 L28.6739957,0 C28.6739957,0 28.2787668,0 27.9804108,0.602579695 C27.6820549,1.20515939 27.0892116,2.60596987 27.0892116,2.60596987 C27.0892116,2.60596987 26.7908556,3.20854956 26.7908556,3.90897483 C26.7908556,4.6094001 26.6901141,5.51328968 26.6901141,5.81059278 C25.6981733,5.91232493 24.6054514,6.11188263 23.6135106,6.31144032 C23.5127691,6.01015048 23.1175402,5.20797302 22.9199258,4.60936004 C22.6215699,4.00678034 22.1255995,3.50589273 22.1255995,3.50589273 C22.1255995,3.50589273 21.0328775,2.40242542 20.6376883,1.90157788 C20.1417179,1.40073034 19.843362,1.60028803 19.843362,1.60028803 L18.6538266,1.99940342 C18.6538266,1.99940342 18.2585977,2.10113558 18.2585977,2.69980866 C18.1578562,3.30238836 18.0609833,4.90273649 18.0609833,4.90273649 C18.0609833,4.90273649 17.9602418,5.60314173 18.1617248,6.20574146 C18.3593393,6.80832115 18.5569537,7.70828409 18.7584367,8.00959397 C17.8672374,8.51044151 16.9721498,9.01128905 16.0809902,9.61390882 C15.8833757,9.41435112 15.2866639,8.71394588 14.7906736,8.21313841 C14.2946834,7.71233093 13.6979517,7.51273317 13.6979517,7.51273317 C13.6979517,7.51273317 12.3108217,6.81232793 11.7140701,6.51103809 C11.1173583,6.20974824 10.8228709,6.51103809 10.8228709,6.51103809 L9.83093011,7.31317548 C9.83093011,7.31317548 9.53257417,7.61446533 9.73018861,8.11531287 C9.92780305,8.71789256 10.3269005,10.3182407 10.3269005,10.3182407 C10.3269005,10.3182407 10.5245149,10.9208204 10.8228709,11.5194734 C11.2180998,12.020321 11.7140701,12.7207062 11.9155928,13.0220161 C11.222008,13.8241535 10.5284629,14.6263309 9.93171129,15.4244816 C9.63335535,15.2249239 8.83898934,14.8219019 8.24620554,14.6223442 C7.64561715,14.4267031 6.9520224,14.3249609 6.9520224,14.3249609 C6.9520224,14.3249609 5.46411125,14.1254032 4.77054627,14.1254032 C4.17383438,14.0236711 3.97621994,14.4266931 3.97621994,14.4266931 L3.37950805,15.5301604 C3.37950805,15.5301604 3.18189361,15.8314502 3.57712249,16.3322978 C3.97235137,16.8331453 4.86743904,18.1361503 4.86743904,18.1361503 C4.86743904,18.1361503 5.26266792,18.73873 5.7586383,19.0361132 C6.25460869,19.4352286 7.04895486,19.8382506 7.34733064,20.0378083 C6.95210176,21.0395034 6.55300431,21.9394263 6.25460869,22.9411213 C5.95625274,22.9411213 5.06507332,22.7415637 4.46832175,22.7415637 C3.77473693,22.6398315 3.1780052,22.8432958 3.1780052,22.8432958 C3.1780052,22.8432958 1.69009405,23.2424112 1.09334248,23.3441433 C0.39975766,23.543701 0.39975766,23.946723 0.39975766,23.946723 L0.00840726825,25.3435868 C0.00840726825,25.3435868 -0.0923342362,25.7427022 0.403636148,26.0439921 C0.899606532,26.4431075 2.2867365,27.346997 2.2867365,27.346997 C2.2867365,27.346997 2.78270689,27.7461124 3.47627187,27.9495767 C4.07298376,28.1491344 4.96418302,28.2508666 5.26255881,28.3486921 L5.26255881,29.953007 L5.26255881,31.5573218 C4.96420286,31.659054 4.07302344,31.8586117 3.47627187,31.9564372 C2.78268705,32.1559949 2.2867365,32.5590169 2.2867365,32.5590169 C2.29061102,32.5551003 1.00028852,33.3572477 0.504318136,33.7602497 C-0.0923937526,34.159365 0.00834775181,34.4606549 0.00834775181,34.4606549 L0.205962192,35.7636599 C0.205962192,35.7636599 0.306703696,36.1627753 0.899547016,36.3662396 C1.4962589,36.5657973 3.08102315,36.8670871 3.08102315,36.8670871 C3.08102315,36.8670871 3.67773504,37.0666448 4.3713397,36.9688193 C5.06492453,36.8670871 5.85925086,36.7692616 6.15762664,36.7692616 C6.45598258,37.7709566 6.85121146,38.7726517 7.25034859,39.6725746 C6.95199265,39.8721323 6.25840782,40.2751543 5.66165626,40.6742697 C5.16568587,41.0694684 4.77045699,41.6720481 4.77045699,41.6720481 C4.77045699,41.6720481 3.87925773,42.8732809 3.48014044,43.4759006 C3.08491156,44.0784803 3.282526,44.3758636 3.282526,44.3758636 L3.97611082,45.4793309 C3.97611082,45.4793309 4.17372526,45.7806207 4.77043715,45.7806207 C5.36328047,45.6788886 6.95191329,45.5771564 6.95191329,45.5771564 C6.95191329,45.5771564 7.64549811,45.5771564 8.24222786,45.2758666 C8.83893975,44.9745767 9.62935783,44.5754613 9.92773361,44.4737292 C10.5244455,45.2758666 11.2180502,46.078044 11.9116151,46.8761947 C11.7140007,47.1774845 11.2180303,47.7761576 10.8188932,48.3787373 C10.4236643,48.8795848 10.3229228,49.5799701 10.3229228,49.5799701 C10.3229228,49.5799701 9.92769393,51.0825127 9.72621092,51.6851324 C9.52859648,52.3855377 9.82695243,52.5850954 9.82695243,52.5850954 L10.8188932,53.3872328 C10.8188932,53.3872328 11.1172491,53.6885226 11.7100925,53.3872328 C12.3068043,53.0859429 13.693974,52.3855377 13.693974,52.3855377 C13.693974,52.3855377 14.2906859,52.0842478 14.7866959,51.6851324 C15.2826663,51.1842849 15.7786367,50.5816651 16.0770125,50.284362 C16.9682118,50.8869417 17.8632994,51.3878293 18.754459,51.8886769 C18.6537175,52.1899667 18.3592301,52.9921442 18.2584886,53.6925294 C18.0608742,54.2951091 18.1577471,54.9955344 18.1577471,54.9955344 C18.1577471,54.9955344 18.2584886,56.498077 18.3553616,57.1984622 C18.4561031,57.8988674 18.7505905,58.0005996 18.7505905,58.0005996 L19.9401258,58.399715 C19.9401258,58.399715 20.3353547,58.5014471 20.7344521,58.0984251 L22.3231445,56.4941103 C22.3231445,56.4941103 22.8191149,55.9932627 23.1174708,55.390643 C23.4158268,54.7880633 23.7141827,53.9898726 23.8110556,53.6885627 C24.8029964,53.8881204 25.7949372,54.0876781 26.8876591,54.1894102 C26.8876591,54.4907001 26.8876591,55.390643 26.9884006,56.0910282 C26.9884006,56.7914334 27.2867566,57.3940331 27.2867566,57.3940331 C27.2867566,57.3940331 27.8834685,58.7948005 28.1779558,59.3974203 C28.4763118,60 28.8715407,60 28.8715407,60 L30.1618572,60 C30.1618572,60 30.5570861,60 30.855442,59.3974203 C31.153798,58.7948406 31.7466413,57.3940331 31.7466413,57.3940331 C31.7466413,57.3940331 32.0449972,56.7914534 32.0449972,56.0910282 C32.0449972,55.3906029 32.1457387,54.4867133 32.1457387,54.1894102 C33.1376795,54.0876781 34.2304015,53.8881204 35.2223422,53.6885627 C35.3230837,53.9898525 35.7183126,54.79203 35.9159271,55.390643 C36.214283,55.9932227 36.7102534,56.4941103 36.7102534,56.4941103 C36.7102534,56.4941103 37.8029753,57.5975776 38.1981645,58.0984251 C38.6941349,58.5992727 38.9924909,58.399715 38.9924909,58.399715 L40.1820262,58.0005996 C40.1820262,58.0005996 40.5772551,57.8988674 40.5772551,57.3001943 C40.6779966,56.6976146 40.7748696,55.0972665 40.7748696,55.0972665 C40.7748696,55.0972665 40.8756111,54.3968613 40.674128,53.7942615 C40.4765136,53.0938563 40.1781577,52.2917189 40.0774162,51.990409 C40.9686154,51.4895615 41.8637031,50.988714 42.7548627,50.3860942 C42.9524771,50.5856519 43.549189,51.2860571 44.0451792,51.7868646 C44.5411695,52.2876721 45.1379012,52.4872698 45.1379012,52.4872698 C45.1379012,52.4872698 46.5250312,53.1876751 47.1217827,53.4889649 C47.7184946,53.7902548 48.012982,53.4889649 48.012982,53.4889649 L49.0049228,52.6868275 C49.0049228,52.6868275 49.3032787,52.3855377 49.1056643,51.8846901 C48.9080498,51.2821104 48.5089524,49.6817623 48.5089524,49.6817623 C48.5089524,49.6817623 48.3113379,49.0791826 48.012982,48.4805296 C47.6177531,47.8779499 47.0210412,47.1775246 46.92026,46.9779869 C47.6138449,46.1758495 48.30739,45.4754443 48.9041416,44.5755214 C49.2024975,44.6772536 49.9968635,45.1781011 50.5896473,45.4754844 C51.1863592,45.7767742 51.8799639,45.7767742 51.8799639,45.7767742 C51.8799639,45.7767742 53.367875,45.9763319 54.06144,45.9763319 C54.7550248,46.0780641 54.9526393,45.6750421 54.9526393,45.6750421 L55.5493512,44.5715748 C55.5493512,44.5715748 55.7469656,44.2702849 55.3517367,43.7694374 C54.9565078,43.2685898 54.0614202,41.9655849 54.0614202,41.9655849 C54.0614202,41.9655849 53.6661913,41.3630052 53.1702209,41.0656219 C52.573509,40.6665065 51.8799044,40.165659 51.5815286,40.0639268 C51.9767575,39.1639639 52.3758549,38.1623089 52.6742505,37.1606138 C52.9726065,37.1606138 53.8637859,37.3601715 54.5573509,37.3601715 C55.2509357,37.4619037 55.8476674,37.2584394 55.8476674,37.2584394 C55.8476674,37.2584394 57.3355786,36.859324 57.9323301,36.7575918 C58.625915,36.5580341 58.625915,36.1550121 58.625915,36.1550121 L58.8235294,34.8520071 C58.633662,34.460725 58.730535,34.057693 58.2345646,33.7603598 L58.2346043,33.7603498 Z M29.2709258,47.784081 C19.4522993,47.784081 11.6133882,39.7705203 11.6133882,29.9529068 C11.6133882,20.1352933 19.5489143,12.1217326 29.2709258,12.1217326 C39.0895523,12.1217326 46.9284634,20.1352933 46.9284634,29.9529068 C46.9284634,39.7705203 39.0898499,47.784081 29.2709258,47.784081 Z" id="Fill-1"></path>
                    </g>
                </g>
            </g>
        </g>
    </g>
</svg>