<?xml version="1.0" encoding="UTF-8"?>
<svg width="61px" height="89px" viewBox="0 0 61 89" version="1.1" xmlns="http://www.w3.org/2000/svg" xmlns:xlink="http://www.w3.org/1999/xlink">
    <!-- Generator: Sketch 51.2 (57519) - http://www.bohemiancoding.com/sketch -->
    <title>Icons / Green / Hydraulic</title>
    <desc>Created with Sketch.</desc>
    <defs></defs>
    <g id="Page-1" stroke="none" stroke-width="1" fill="none" fill-rule="evenodd">
        <g id="Oil-type-(L)" transform="translate(-341.000000, -584.000000)" fill="#00A19C">
            <g id="Icons-/-Green-/-Hydraulic" transform="translate(338.000000, 583.000000)">
                <g id="noun_shock_1455664-copy" transform="translate(33.579541, 45.693138) rotate(1.000000) translate(-33.579541, -45.693138) translate(4.124996, 0.500155)">
                    <g id="Group" fill-rule="nonzero">
                        <g transform="translate(-0.000000, 0.000000)" id="Shape">
                            <g transform="translate(0.000000, 0.568320)">
                                <path d="M49.702509,0.412210307 C48.1052348,0.655248834 46.7402816,1.30723648 46.0716317,2.46465445 L41.1679822,10.9524694 C40.3749409,10.4950123 39.5654644,10.0281995 38.7789151,9.57323732 C38.378756,9.38986245 37.8518958,9.55898077 37.6333168,9.94078898 L35.4043917,13.7988786 C35.1709916,14.2028735 35.326452,14.7827587 35.7307131,15.0160315 L37.2749634,15.9069767 L35.6589889,18.7041117 L34.7674349,20.247205 L32.9842824,23.3336589 L32.0927195,24.8769303 L30.309567,27.9633842 L29.4180041,29.5066557 L27.6348515,32.5930204 L26.7432797,34.136381 L24.9601272,37.2227903 L24.0685286,38.7660618 L22.2854117,41.8525958 L21.393831,43.3956891 L18.106165,49.0862799 C17.5712611,48.7773583 17.0188877,48.4591699 16.4894949,48.1544362 C16.0893091,47.9710613 15.5624222,48.1401797 15.3438699,48.522077 L13.0870862,52.4282824 C12.5018783,53.4412103 12.4714336,54.6542644 12.7750597,55.7527315 C13.0764832,56.8424665 14.0395638,58.0197268 15.0631784,58.6204622 L10.1628785,66.8670953 C6.82649121,67.192412 3.22186849,69.3757485 1.42821994,72.4803795 C-1.52088085,77.5851152 0.24645189,84.1764526 5.35448358,87.1237269 C10.4625287,90.070823 17.0583712,88.3047038 20.007472,83.2000572 C21.7833032,80.1263451 21.7595878,75.772325 20.4156088,72.7405807 L25.1574788,64.5052767 C26.3268424,65.0945177 27.9139543,65.3197673 28.916782,65.0676045 C30.0115678,64.7744542 31.0323644,64.1343352 31.6175903,63.1212291 L33.8743739,59.2149346 C34.107667,58.8109396 33.9522245,58.2312327 33.5480525,57.9979599 L32.0037665,57.1069255 L33.6893874,54.1893227 L36.2944832,49.6801543 L37.186055,48.137061 L38.9691808,45.0505181 L39.8607883,43.5073357 L41.6439319,40.4208818 L42.535477,38.8777084 L44.3186384,35.7912545 L45.2102102,34.2478494 L46.9933539,31.1614846 L47.8849346,29.6181241 L49.6680961,26.5316702 L50.55965,24.9884878 L51.1726006,23.9274441 L52.7168598,24.8185676 C53.1211299,25.0517513 53.7012905,24.8960876 53.9347709,24.4925381 L56.1637138,20.6343594 C56.3970515,20.2303645 56.2415644,19.6505684 55.8373656,19.4172956 L53.5209947,18.0807441 L58.4246263,9.59319649 C59.0933029,8.43556467 58.9758671,6.92829098 58.3878858,5.42440322 C57.6969419,3.77812817 56.2963719,2.21801614 54.9233393,1.39893283 C53.18605,0.396572654 51.2997566,0.169091587 49.702509,0.412210307 Z M56.7272074,6.07271981 C57.1779827,7.22580735 57.1042432,8.31572055 56.8813747,8.70153842 L51.9777253,17.1893533 L42.7122236,11.8434146 L47.615873,3.35568879 C47.8387771,2.96987092 48.746463,2.36102716 49.9711158,2.17471187 C51.1957329,1.98830749 52.6805474,2.16223739 54.0317675,2.94215975 C55.3829787,3.7217257 56.2764143,4.91972137 56.7272074,6.07271981 Z M52.6804761,5.2811249 C50.9838866,4.30223457 48.8022872,4.865992 47.8227968,6.56163035 C46.8432797,8.25700139 47.4315375,10.4511735 49.1281359,11.4299747 C50.8247165,12.408865 53.0443762,11.8349498 54.0239022,10.1393114 C54.939061,8.28996966 54.0992558,6.15781359 52.6804761,5.2811249 Z M51.8028424,6.80016024 C52.6648257,7.29762471 52.9531671,8.37301406 52.455512,9.23446606 C51.9578302,10.095829 50.8677974,10.4080474 50.0057517,9.91067202 C49.1437506,9.41329665 48.8934339,8.32774952 49.3911157,7.46629752 C49.8887975,6.60493462 50.9407968,6.30278487 51.8028424,6.80016024 Z M38.7321334,11.6047065 L54.1746452,20.5144262 L52.837283,22.8293334 L37.3948069,13.9195246 L38.7321334,11.6047065 Z M49.7881596,23.1390434 L32.9819906,51.8509813 L32.0764984,53.4183107 L30.460515,56.2152675 L19.6507987,49.9785617 L38.9677678,16.9771312 L49.7881596,23.1390434 Z M16.4428559,50.1852817 L31.8853231,59.0951796 L30.074312,62.2297493 C29.7958602,62.7117988 29.1773183,63.165068 28.4588815,63.355393 C27.7409441,63.5475891 26.9711509,63.4616042 26.4725952,63.1738893 L15.6628432,56.9370053 C15.1320503,56.6307568 14.7008759,55.9894794 14.5022098,55.270682 C14.3030622,54.5521519 14.3533574,53.8019901 14.631827,53.3199405 L16.4428559,50.1852817 Z M16.6079102,59.5122093 L23.6136922,63.6150443 L19.2051019,71.0148161 C18.3376789,69.7769021 17.4323166,69.441423 16.0062086,68.4948096 C15.0554699,67.863734 13.8070313,67.3091222 12.2608929,66.8309741 L16.6079102,59.5122093 Z M15.1622595,70.148899 C19.4357474,72.6145692 20.8827781,78.0112078 18.4154412,82.2819354 C15.9481401,86.5525739 10.54787,87.9986335 6.27437766,85.5329633 C2.00087196,83.0673822 0.553912587,77.6704763 3.02119594,73.3999269 C5.48854173,69.1292884 10.8888073,67.6832288 15.1622595,70.148899 Z M4.58959507,74.3048614 C2.62525491,77.7048702 3.77383169,82.0647904 7.17616904,84.027739 C10.5784841,85.9908659 14.9551574,84.8187993 16.919444,81.4188796 C18.8838199,78.0186925 17.697165,73.6691084 14.2948811,71.7059815 C10.892526,69.743122 6.55393522,70.9047634 4.58959507,74.3048614 Z M15.3993337,80.5417454 C13.9168645,83.1077461 10.6215828,83.9901374 8.05382049,82.5086146 C5.48608047,81.0271809 4.62724513,77.7479072 6.10965193,75.1819956 C7.59216573,72.6159058 10.8493827,71.7436723 13.4171316,73.2251951 C15.9849073,74.7067179 16.8818475,77.9756556 15.3993337,80.5417454 Z"></path>
                            </g>
                        </g>
                    </g>
                </g>
            </g>
        </g>
    </g>
</svg>