<?xml version="1.0" encoding="UTF-8"?>
<svg width="84px" height="84px" viewBox="0 0 84 84" version="1.1" xmlns="http://www.w3.org/2000/svg" xmlns:xlink="http://www.w3.org/1999/xlink">
    <!-- Generator: sketchtool 50.2 (55047) - http://www.bohemiancoding.com/sketch -->
    <title>98D2EBD1-ACAB-473B-9210-95004E27BCB0</title>
    <desc>Created with sketchtool.</desc>
    <defs></defs>
    <g id="Page-1" stroke="none" stroke-width="1" fill="none" fill-rule="evenodd">
        <g id="Oil-type-(L)" transform="translate(-704.000000, -588.000000)">
            <g id="1-copy-4" transform="translate(573.000000, 550.000000)">
                <g id="Icons-/-turbine" transform="translate(132.000000, 39.000000)">
                    <rect id="Background" x="0" y="0" width="83" height="83"></rect>
                    <g id="Group-2" stroke="#00A19C" stroke-linecap="round" stroke-linejoin="round" stroke-width="1.5">
                        <circle id="Oval" cx="41" cy="41" r="41"></circle>
                        <circle id="Oval" cx="41" cy="41" r="34"></circle>
                        <circle id="Oval" cx="41.5" cy="41.5" r="12.5"></circle>
                        <circle id="Oval" cx="41.5" cy="41.5" r="6.5"></circle>
                        <path d="M30.5,72.5 L40.5,54.5" id="Line-5"></path>
                        <path d="M15.5,62.5 L33.6306813,52.0032897" id="Line"></path>
                        <path d="M7.5,47.5 L30.5,47.5" id="Line-2"></path>
                        <path d="M9.5,29.5 L28.5,40.5" id="Line-3"></path>
                        <path d="M19.5,15.5 L30.5,34.5" id="Line-4"></path>
                        <path d="M35.5,7.5 L35.5,30.5" id="Line-6"></path>
                        <path d="M53.5,9.5 L42.5,28.5" id="Line-7"></path>
                        <path d="M66.5,19.5 L48.5,30.5" id="Line-8"></path>
                        <path d="M74.5,35.5 L52.5,35.5" id="Line-9"></path>
                        <path d="M72.5,52.5 L54.5,42.5" id="Line-10"></path>
                        <path d="M62.5,66.5 L52.5,48.5" id="Line-11"></path>
                        <path d="M47.5,73.5 L47.5,52.5" id="Line-12"></path>
                    </g>
                </g>
            </g>
        </g>
    </g>
</svg>