<?xml version="1.0" encoding="UTF-8"?>
<svg width="62px" height="62px" viewBox="0 0 62 62" version="1.1" xmlns="http://www.w3.org/2000/svg" xmlns:xlink="http://www.w3.org/1999/xlink">
    <!-- Generator: sketchtool 50.2 (55047) - http://www.bohemiancoding.com/sketch -->
    <title>030377D6-1D85-4303-A97B-852F383D2186</title>
    <desc>Created with sketchtool.</desc>
    <defs></defs>
    <g id="Page-1" stroke="none" stroke-width="1" fill="none" fill-rule="evenodd">
        <g id="Hydraulic-oil-selector-1-(L)" transform="translate(-419.000000, -459.000000)">
            <g id="1" transform="translate(325.000000, 366.000000)">
                <g id="Icons-/-Green-/-Vane-pump-14-16-cSt" transform="translate(95.000000, 94.000000)">
                    <rect id="Background" x="0" y="0" width="60" height="60"></rect>
                    <g id="Group-10" stroke="#00A19C" stroke-linecap="round" stroke-linejoin="round" stroke-width="1.5">
                        <circle id="Oval-6" cx="30" cy="30" r="30"></circle>
                        <circle id="Oval-6" cx="29.7841727" cy="34.9640288" r="21.1510791"></circle>
                        <circle id="Oval-6" cx="29.7841727" cy="34.9640288" r="3.88489209"></circle>
                        <path d="M31.942446,44.5649894 C31.4218767,44.2165313 31.0791367,43.6231114 31.0791367,42.9496403 C31.0791367,41.876857 31.9487994,41.0071942 33.0215827,41.0071942 C34.0943661,41.0071942 34.9640288,41.876857 34.9640288,42.9496403 C34.9640288,43.6231114 34.6212888,44.2165313 34.1007194,44.5649894 L34.1007194,58.8282662 L31.942446,59.0124084 L31.942446,44.5649894 Z" id="Combined-Shape" fill="#FFFFFF"></path>
                        <path d="M19.5286674,41.3868078 C19.0105488,41.0379589 18.6697246,40.4459764 18.6697246,39.7743902 C18.6697246,38.7016069 19.5393873,37.8319441 20.6121707,37.8319441 C21.684954,37.8319441 22.5546167,38.7016069 22.5546167,39.7743902 C22.5546167,40.4485645 22.2111606,41.0425203 21.6896761,41.3908301 L21.6717919,56.7462146 L19.4795296,57.1027773 L19.5286674,41.3868078 Z" id="Combined-Shape-Copy" fill="#FFFFFF" transform="translate(20.612171, 47.467361) rotate(45.000000) translate(-20.612171, -47.467361) "></path>
                        <path d="M11.9205615,29.0701751 C11.3999922,28.7217169 11.0572522,28.1282971 11.0572522,27.454826 C11.0572522,26.3820426 11.9269149,25.5123799 12.9996982,25.5123799 C14.0724816,25.5123799 14.9421443,26.3820426 14.9421443,27.454826 C14.9421443,28.1282971 14.5994043,28.7217169 14.0788349,29.0701751 L14.0788349,47.7722605 L11.9205615,48.3005697 L11.9205615,29.0701751 Z" id="Combined-Shape-Copy-2" fill="#FFFFFF" transform="translate(12.999698, 36.906475) rotate(90.000000) translate(-12.999698, -36.906475) "></path>
                        <path d="M14.1726592,12.9990797 C13.639125,12.6528511 13.2862001,12.0518768 13.2862001,11.3684724 C13.2862001,10.295689 14.1558628,9.42602633 15.2286461,9.42602633 C16.3014295,9.42602633 17.1710922,10.295689 17.1710922,11.3684724 C17.1710922,12.0340159 16.8363736,12.6213817 16.3260918,12.9714146 L16.6139133,34.7771628 L14.5351364,35.1515762 L14.1726592,12.9990797 Z" id="Combined-Shape-Copy-3" fill="#FFFFFF" transform="translate(15.228646, 22.288801) rotate(137.000000) translate(-15.228646, -22.288801) "></path>
                        <path d="M26.7566082,4.47376324 C26.2393966,4.12477217 25.8992806,3.53332236 25.8992806,2.8624342 C25.8992806,1.78965088 26.7689433,0.919988161 27.8417266,0.919988161 C28.9145099,0.919988161 29.7841727,1.78965088 29.7841727,2.8624342 C29.7841727,3.53902174 29.4382534,4.13481549 28.9136252,4.48260497 L28.7918311,28.113265 L26.6545702,28.2786852 L26.7566082,4.47376324 Z" id="Combined-Shape-Copy-4" fill="#FFFFFF" transform="translate(27.841727, 14.599337) rotate(180.000000) translate(-27.841727, -14.599337) "></path>
                        <path d="M41.4746523,10.3222538 C40.9696136,9.97148479 40.6389628,9.38722535 40.6389628,8.72573829 C40.6389628,7.65295497 41.5086255,6.78329225 42.5814089,6.78329225 C43.6541922,6.78329225 44.5238549,7.65295497 44.5238549,8.72573829 C44.5238549,9.41166678 44.1683182,10.0145552 43.6314767,10.3601715 L43.1677672,32.9899312 L41.0239262,32.8535821 L41.4746523,10.3222538 Z" id="Combined-Shape-Copy-5" fill="#FFFFFF" transform="translate(42.581409, 19.886612) rotate(225.000000) translate(-42.581409, -19.886612) "></path>
                        <path d="M46.3136521,25.445582 C45.7930827,25.0971238 45.4503427,24.5037039 45.4503427,23.8302328 C45.4503427,22.7574495 46.3200054,21.8877868 47.3927888,21.8877868 C48.4655721,21.8877868 49.3352348,22.7574495 49.3352348,23.8302328 C49.3352348,24.5037039 48.9924948,25.0971238 48.4719254,25.445582 L48.4719254,45.018688 L46.3136521,44.7833908 L46.3136521,25.445582 Z" id="Combined-Shape-Copy-6" fill="#FFFFFF" transform="translate(47.392789, 33.453237) rotate(270.000000) translate(-47.392789, -33.453237) "></path>
                        <path d="M41.6248997,38.6661877 C41.103439,38.3178741 40.7600015,37.7239322 40.7600015,37.0497762 C40.7600015,35.9769929 41.6296643,35.1073302 42.7024476,35.1073302 C43.7752309,35.1073302 44.6448936,35.9769929 44.6448936,37.0497762 C44.6448936,37.7217189 44.3037075,38.3139733 43.7851257,38.6627492 L43.8248852,54.3483297 L41.642579,54.2514372 L41.6248997,38.6661877 Z" id="Combined-Shape-Copy-7" fill="#FFFFFF" transform="translate(42.702448, 44.727830) rotate(314.000000) translate(-42.702448, -44.727830) "></path>
                    </g>
                </g>
            </g>
        </g>
    </g>
</svg>